SplineFontDB: 1.0
FontName: Kinnari
FullName: Kinnari
FamilyName: Kinnari
Weight: Medium
Copyright: Kinnari by Db Type : Fontographer 3.5
Version: 001.000
ItalicAngle: 0
UnderlinePosition: -70
UnderlineWidth: 25
Ascent: 800
Descent: 200
NeedsXUIDChange: 1
FSType: 0
PfmFamily: 17
TTFWeight: 500
TTFWidth: 5
Panose: 0 0 0 0 0 0 0 0 0 0
LineGap: 138
VLineGap: 0
OS2WinAscent: 0
OS2WinAOffset: 1
OS2WinDescent: 0
OS2WinDOffset: 1
HheadAscent: 0
HheadAOffset: 1
HheadDescent: 0
HheadDOffset: 1
ScriptLang: 5
 1 DFLT 1 dflt 
 1 thai 4 KUY  PAL  THA  dflt 
 1 latn 1 dflt 
 1 thai 1 dflt 
 1 thai 1 PAL  
ContextSub: glyph 0 4 ' RQD' 0 0 0 1
 String: 15 uni0E0D uni0E10
 BString: 0 
 FString: 0 
 1
  SeqLookup: 0 'nds0'
EndFPST
ChainSub: coverage 0 1 'ccmp' 0 0 0 1
 2 0 0
  Coverage: 19 uni0E4B uni0E4B.low
  Coverage: 7 uni0E4D
 2
  SeqLookup: 0 'amni'
  SeqLookup: 1 'G006'
EndFPST
ChainSub: coverage 0 1 'ccmp' 0 0 0 1
 2 0 0
  Coverage: 19 uni0E4A uni0E4A.low
  Coverage: 7 uni0E4D
 2
  SeqLookup: 0 'amni'
  SeqLookup: 1 'G005'
EndFPST
ChainSub: coverage 0 1 'ccmp' 0 0 0 1
 2 0 0
  Coverage: 19 uni0E49 uni0E49.low
  Coverage: 7 uni0E4D
 2
  SeqLookup: 0 'amni'
  SeqLookup: 1 'G004'
EndFPST
ChainSub: coverage 0 1 'ccmp' 0 0 0 1
 2 0 0
  Coverage: 19 uni0E48 uni0E48.low
  Coverage: 7 uni0E4D
 2
  SeqLookup: 0 'amni'
  SeqLookup: 1 'G003'
EndFPST
ChainSub: coverage 0 1 'ccmp' 0 0 0 1
 1 0 1
  Coverage: 15 uni0E0D uni0E10
  FCoverage: 23 uni0E38 uni0E39 uni0E3A
 1
  SeqLookup: 0 'ndsc'
EndFPST
ChainSub: coverage 0 1 'ccmp' 0 0 0 1
 1 2 0
  Coverage: 39 uni0E48 uni0E49 uni0E4A uni0E4B uni0E4C
  BCoverage: 23 uni0E38 uni0E39 uni0E3A

StartChar: Encoding:
Encoding: 0 -1 220
OldEncoding: 0
Width: 384
Flags: W
HStem: 0 23<23 384> 568 23<0 361>
VStem: 0 23<0 568> 361 23<23 591>
Fore
23 568 m 1
 23 23 l 1
 361 23 l 1
 361 568 l 1
 23 568 l 1
384 0 m 1
 0 0 l 1
 0 591 l 1
 384 591 l 1
 384 0 l 1
EndSplineSet
EndChar
StartChar: exclam
Encoding: 2 33 1
OldEncoding: 33
Width: 333
Flags: W
HStem: -14 115<156 176>
Fore
220 596 m 0
 220 596 l 0
 220 579 218 562 217 547 c 1
 174 177 l 1
 160 177 l 1
 117 547 l 1
 117 562 114 579 114 596 c 0
 114 628 124 676 167 676 c 0
 214 676 220 628 220 596 c 0
224 41 m 0
 224 9 197 -14 166 -14 c 0
 138 -14 109 11 109 41 c 0
 109 74 134 101 167 101 c 0
 200 101 224 74 224 41 c 0
EndSplineSet
EndChar
StartChar: quotedbl
Encoding: 3 34 2
OldEncoding: 34
Width: 407
Flags: W
HStem: 444 21G<103 123 284 304>
Fore
336 641 m 0
 304 444 l 1
 284 444 l 1
 250 641 l 1
 247 662 270 684 293 684 c 0
 318 684 341 662 336 641 c 0
157 641 m 1
 123 444 l 1
 103 444 l 1
 71 641 l 1
 66 662 89 684 114 684 c 0
 137 684 160 662 157 641 c 1
EndSplineSet
EndChar
StartChar: numbersign
Encoding: 4 35 3
OldEncoding: 35
Width: 499
Flags: W
HStem: 0 21G<78 137 272 330> 217 53<5 111 178 303 370 470> 404 55<31 141 207 332 398 495> 404 258<180 332 370 495>
DStem: 111 217 169 217 78 0 137 0 141 404 200 404 120 270 178 270 180 662 238 662 149 459 207 459 303 217 361 217 272 0 330 0 332 404 390 404 312 270 370 270 370 662 427 662 339 459 398 459
Fore
495 404 m 1xe0
 390 404 l 1xd0
 370 270 l 1
 470 270 l 1
 470 217 l 1
 361 217 l 1
 330 0 l 1
 272 0 l 1
 303 217 l 1
 169 217 l 1
 137 0 l 1
 78 0 l 1
 111 217 l 1
 5 217 l 1
 5 270 l 1
 120 270 l 1
 141 404 l 1
 31 404 l 1
 31 459 l 1
 149 459 l 1xe0
 180 662 l 1
 238 662 l 1xd0
 207 459 l 1
 339 459 l 1xe0
 370 662 l 1
 427 662 l 1xd0
 398 459 l 1
 495 459 l 1
 495 404 l 1xe0
332 404 m 1xe0
 200 404 l 1xd0
 178 270 l 1
 312 270 l 1
 332 404 l 1xe0
EndSplineSet
EndChar
StartChar: dollar
Encoding: 5 36 4
OldEncoding: 36
Width: 499
Flags: W
VStem: 52 75<508 533> 230 34<-88 0 28 293 407 636 661 727> 378 78<152 178>
Fore
456 178 m 0
 456 178 l 0
 456 65 367 8 264 0 c 1
 264 -88 l 1
 230 -88 l 1
 230 0 l 1
 164 0 100 17 45 51 c 1
 45 181 l 1
 60 181 l 1
 75 88 132 29 230 28 c 1
 230 310 l 1
 154 353 52 407 52 508 c 0
 52 610 140 659 230 662 c 1
 230 727 l 1
 264 727 l 1
 264 662 l 1
 321 660 379 645 424 610 c 1
 424 499 l 1
 410 499 l 1
 398 576 343 631 264 636 c 1
 264 390 l 1
 352 343 456 296 456 178 c 0
230 407 m 0
 230 636 l 0
 197 636 127 596 127 533 c 0
 127 467 184 441 230 407 c 0
378 152 m 0
 378 223 319 263 264 293 c 1
 264 28 l 1
 333 37 378 81 378 152 c 0
EndSplineSet
EndChar
StartChar: percent
Encoding: 6 37 5
OldEncoding: 37
Width: 832
Flags: W
HStem: -14 31<574 589> 287 36<180 200> 324 32<663 678> 633 29<274 286>
VStem: 61 76<396 424> 358 18<539 593> 358 26<537 553> 745 26<222 249>
DStem: 550 610 633 676 201 -14 249 -14
Fore
633 676 m 1xfb
 249 -14 l 1
 201 -14 l 1
 550 610 l 1
 490 585 416 578 376 593 c 1xfd
 376 578 384 556 384 539 c 0
 384 404 267 287 180 287 c 0
 103 287 61 338 61 424 c 0
 61 531 164 662 276 662 c 0
 310 662 330 653 356 630 c 1
 382 610 404 607 436 607 c 0
 496 607 553 633 585 676 c 1
 633 676 l 1xfb
771 247 m 0
 771 247 l 0
 771 91 662 -14 576 -14 c 0
 473 -14 449 48 449 123 c 0
 449 230 553 356 665 356 c 0
 733 356 771 300 771 247 c 0
358 553 m 0
 358 553 l 0
 358 570 353 584 350 599 c 1
 312 610 298 633 281 633 c 0
 244 633 137 533 137 396 c 0
 137 353 151 323 200 323 c 1
 296 332 358 456 358 553 c 0
745 241 m 0
 745 281 722 324 676 324 c 0
 622 324 585 269 564 224 c 0
 510 111 507 17 587 17 c 0
 680 17 745 161 745 241 c 0
EndSplineSet
EndChar
StartChar: ampersand
Encoding: 7 38 6
OldEncoding: 38
Width: 777
Flags: W
HStem: -14 54<220 263> 407 18<495 511.333 702.125 710> 644 32<346 364>
VStem: 43 91<144 172> 203 78<516 548> 438 52<545 563>
Fore
750 100 m 1
 750 100 l 0
 702 26 667 -14 599 -14 c 0
 530 -14 475 31 429 78 c 1
 373 25 298 -14 220 -14 c 0
 108 -14 43 43 43 144 c 0
 43 258 163 339 237 376 c 1
 220 422 203 468 203 516 c 0
 203 604 266 676 355 676 c 0
 427 676 490 633 490 556 c 0
 490 467 409 415 336 384 c 1
 373 312 416 243 467 178 c 1
 502 220 559 303 559 358 c 0
 559 387 544 404 495 407 c 1
 495 425 l 1
 710 425 l 1
 710 407 l 1
 647 399 631 373 604 323 c 0
 567 257 510 174 493 147 c 1
 533 101 579 58 644 58 c 0
 684 58 713 80 734 111 c 1
 750 100 l 1
438 559 m 0
 438 559 l 0
 438 604 404 644 359 644 c 0
 300 644 281 599 281 548 c 0
 281 510 304 450 321 416 c 1
 376 442 438 493 438 559 c 0
404 104 m 1
 344 177 296 260 252 343 c 1
 184 301 134 257 134 172 c 0
 134 104 195 40 263 40 c 0
 304 40 362 68 404 104 c 1
EndSplineSet
EndChar
StartChar: quotesingle
Encoding: 8 39 7
OldEncoding: 39
Width: 179
Flags: W
HStem: 444 21G<80 100>
Fore
134 641 m 1
 100 444 l 1
 80 444 l 1
 48 641 l 1
 43 662 66 684 91 684 c 0
 114 684 137 662 134 641 c 1
EndSplineSet
EndChar
StartChar: parenleft
Encoding: 9 40 8
OldEncoding: 40
Width: 333
Flags: W
VStem: 49 85<238 288>
Fore
304 -161 m 1
 292 -177 l 1
 163 -91 49 48 49 260 c 0
 49 433 138 579 295 676 c 1
 304 659 l 1
 170 567 134 424 134 269 c 0
 134 104 154 -41 304 -161 c 1
EndSplineSet
EndChar
StartChar: parenright
Encoding: 10 41 9
OldEncoding: 41
Width: 333
Flags: W
VStem: 200 84<206 256>
Fore
284 232 m 0
 284 60 184 -91 38 -177 c 1
 29 -161 l 1
 164 -68 200 74 200 229 c 0
 200 396 177 556 29 659 c 1
 41 676 l 1
 81 656 284 513 284 232 c 0
EndSplineSet
EndChar
StartChar: asterisk
Encoding: 11 42 10
OldEncoding: 42
Width: 499
Flags: W
Fore
435 559 m 0
 447 519 404 498 382 502 c 1
 359 504 310 482 266 467 c 1
 313 442 359 427 404 419 c 0
 424 416 442 382 422 359 c 0
 395 329 353 356 346 378 c 0
 338 398 293 430 257 458 c 1
 253 401 264 353 276 310 c 0
 283 292 267 260 237 266 c 0
 197 273 200 323 214 341 c 0
 227 358 233 412 241 458 c 1
 190 427 157 395 127 361 c 0
 114 346 77 346 66 375 c 0
 54 413 97 436 120 432 c 0
 141 429 190 450 232 470 c 1
 184 499 138 513 94 522 c 0
 74 525 57 559 77 582 c 0
 103 613 144 585 152 564 c 0
 160 544 204 511 241 482 c 1
 241 547 230 593 215 636 c 0
 207 654 227 687 258 682 c 0
 298 673 296 624 281 607 c 0
 267 590 263 536 258 482 c 1
 310 505 344 539 373 573 c 1
 390 585 424 587 435 559 c 0
EndSplineSet
EndChar
StartChar: plus
Encoding: 12 43 11
OldEncoding: 43
Width: 563
Flags: W
HStem: 238 65<31 250 313 533>
VStem: 250 63<17 238 303 521>
Fore
533 238 m 1
 313 238 l 1
 313 17 l 1
 250 17 l 1
 250 238 l 1
 31 238 l 1
 31 303 l 1
 250 303 l 1
 250 521 l 1
 313 521 l 1
 313 303 l 1
 533 303 l 1
 533 238 l 1
EndSplineSet
EndChar
StartChar: comma
Encoding: 13 44 12
OldEncoding: 44
Width: 250
Flags: W
VStem: 147 53<-6 17>
Fore
43 58 m 0
 43 100 68 126 111 126 c 0
 174 126 200 68 200 17 c 0
 200 -48 135 -118 74 -146 c 1
 60 -118 l 1
 100 -100 147 -41 147 -6 c 0
 147 0 149 5 143 5 c 0
 135 5 126 -5 106 -3 c 0
 72 -2 43 22 43 58 c 0
EndSplineSet
EndChar
StartChar: hyphen
Encoding: 14 45 13
OldEncoding: 45
Width: 333
Flags: W
HStem: 238 63<43 289>
Fore
289 238 m 1
 43 238 l 1
 43 301 l 1
 289 301 l 1
 289 238 l 1
EndSplineSet
EndChar
StartChar: period
Encoding: 15 46 14
OldEncoding: 46
Width: 250
Flags: W
Fore
54 60 m 0
 54 100 86 132 126 132 c 0
 166 132 198 100 198 60 c 0
 198 20 166 -12 126 -12 c 0
 86 -12 54 20 54 60 c 0
EndSplineSet
EndChar
StartChar: slash
Encoding: 16 47 15
OldEncoding: 47
Width: 278
Flags: W
DStem: 240 682 303 682 -12 -108 51 -108
Fore
303 682 m 1
 51 -108 l 1
 -12 -108 l 1
 240 682 l 1
 303 682 l 1
EndSplineSet
EndChar
StartChar: zero
Encoding: 17 48 16
OldEncoding: 48
Width: 537
Flags: W
HStem: -14 28<259 282> 650 26<259 282>
VStem: 41 97<305 355> 396 97<305 355>
Fore
493 327 m 0
 493 327 l 0
 493 190 439 -14 261 -14 c 0
 120 -14 41 138 41 333 c 0
 41 476 94 676 266 676 c 0
 416 676 493 524 493 327 c 0
396 326 m 0
 396 504 367 650 272 650 c 0
 160 650 138 481 138 313 c 0
 138 164 161 14 269 14 c 0
 382 14 396 172 396 326 c 0
EndSplineSet
EndChar
StartChar: one
Encoding: 18 49 17
OldEncoding: 49
Width: 537
Flags: W
HStem: 0 14<141 161 395 415>
VStem: 235 86<80 545>
Fore
415 0 m 1
 141 0 l 1
 141 14 l 1
 221 18 235 37 235 80 c 2
 235 528 l 2
 235 607 204 593 132 565 c 1
 132 579 l 1
 321 676 l 1
 321 80 l 2
 321 37 335 18 415 14 c 1
 415 0 l 1
EndSplineSet
EndChar
StartChar: two
Encoding: 19 50 18
OldEncoding: 50
Width: 537
Flags: W
HStem: 0 77<151 442> 604 72<218 269>
VStem: 361 86<459 501>
DStem: 223 192 310 243 54 14 151 77
Fore
498 137 m 1
 442 0 l 1
 54 0 l 1
 54 14 l 1
 223 192 l 2
 287 261 361 358 361 459 c 0
 361 547 306 604 218 604 c 0
 140 604 100 539 75 473 c 1
 54 479 l 1
 74 593 147 676 269 676 c 0
 367 676 447 599 447 501 c 0
 447 407 401 339 310 243 c 1
 151 77 l 1
 364 77 l 2
 438 77 445 80 485 143 c 1
 498 137 l 1
EndSplineSet
EndChar
StartChar: three
Encoding: 20 51 19
OldEncoding: 51
Width: 537
Flags: W
HStem: -14 36<183 247> 616 60<232 264>
VStem: 341 78<510 542> 382 71<167 214>
Fore
453 214 m 0xd0
 453 63 319 -14 183 -14 c 0
 144 -14 68 -11 68 43 c 0
 68 65 84 77 104 77 c 0
 154 77 187 22 247 22 c 0
 330 22 382 88 382 167 c 0xd0
 382 280 323 330 177 330 c 1
 175 344 l 1
 250 367 341 413 341 510 c 0
 341 574 296 616 232 616 c 0
 166 616 120 579 83 511 c 1
 68 516 l 1
 100 616 169 676 264 676 c 0
 369 676 419 621 419 542 c 0xe0
 419 476 376 433 327 402 c 1
 412 367 453 312 453 214 c 0xd0
EndSplineSet
EndChar
StartChar: four
Encoding: 21 52 20
OldEncoding: 52
Width: 537
Flags: W
HStem: 0 21G<315 392> 167 63<74 315 392 493>
VStem: 315 77<0 167 230 676>
DStem: 346 676 315 570 34 230 74 230
Fore
493 167 m 1
 392 167 l 1
 392 0 l 1
 315 0 l 1
 315 167 l 1
 34 167 l 1
 34 230 l 1
 346 676 l 1
 392 676 l 1
 392 230 l 1
 493 230 l 1
 493 167 l 1
315 230 m 1
 315 570 l 1
 74 230 l 1
 315 230 l 1
EndSplineSet
EndChar
StartChar: five
Encoding: 22 53 21
OldEncoding: 53
Width: 537
Flags: W
HStem: -14 36<180 240> 582 80<197 413>
VStem: 379 70<195 227>
DStem: 197 662 204 582 88 424 163 498
Fore
461 680 m 1
 413 582 l 1
 204 582 l 1
 163 498 l 1
 321 472 449 427 449 227 c 0
 449 78 327 -14 180 -14 c 0
 140 -14 63 -11 55 40 c 0
 51 68 71 84 100 84 c 0
 163 84 186 22 240 22 c 0
 326 22 379 100 379 195 c 0
 379 352 226 404 100 412 c 0
 91 413 86 418 88 424 c 1
 197 662 l 1
 393 662 l 2
 424 662 432 662 452 687 c 1
 461 680 l 1
EndSplineSet
EndChar
StartChar: six
Encoding: 23 54 22
OldEncoding: 54
Width: 537
Flags: W
HStem: -14 28<284 307> 382 45<267 304>
VStem: 58 93<245 275>
Fore
490 214 m 0
 490 214 l 0
 490 94 413 -14 286 -14 c 0
 160 -14 58 91 58 273 c 0
 58 490 207 645 410 674 c 0
 427 676 442 682 468 682 c 1
 470 664 l 1
 439 656 409 653 375 636 c 0
 286 594 195 518 175 382 c 1
 214 410 257 427 304 427 c 0
 421 427 490 346 490 214 c 0
398 226 m 0
 387 307 356 382 267 382 c 0
 233 382 197 370 170 350 c 0
 167 347 166 344 164 343 c 0
 152 316 151 283 151 247 c 0
 151 114 203 14 301 14 c 0
 376 14 412 108 398 226 c 0
EndSplineSet
EndChar
StartChar: seven
Encoding: 24 55 23
OldEncoding: 55
Width: 537
Flags: W
HStem: 587 75<103 393>
DStem: 393 587 472 647 194 -14 258 -14
Fore
472 647 m 1
 258 -14 l 1
 194 -14 l 1
 393 587 l 1
 187 587 l 2
 114 587 98 568 60 507 c 1
 43 515 l 1
 103 662 l 1
 472 662 l 1
 472 647 l 1
EndSplineSet
EndChar
StartChar: eight
Encoding: 25 56 24
OldEncoding: 56
Width: 537
Flags: W
HStem: -14 25<263 286> 650 26<252 281>
VStem: 77 75<145 165> 375 69<525 552> 389 76<126 154>
Fore
465 154 m 0xe8
 465 154 l 0xe8
 465 46 367 -14 266 -14 c 0
 167 -14 77 45 77 152 c 0
 77 237 146 287 206 332 c 1
 143 393 83 425 83 527 c 0
 83 596 151 676 273 676 c 0
 353 676 444 630 444 539 c 0xf0
 444 452 379 407 310 372 c 1
 381 316 465 255 465 154 c 0xe8
375 536 m 0xf0
 375 536 l 0
 375 604 330 650 264 650 c 0
 206 650 157 611 157 550 c 0
 157 478 227 424 281 390 c 1
 335 419 375 472 375 536 c 0xf0
389 126 m 0xe8
 389 214 295 267 232 312 c 1
 229 309 224 307 221 303 c 1
 180 270 152 214 152 163 c 0
 152 78 194 11 281 11 c 0
 347 11 389 60 389 126 c 0xe8
EndSplineSet
EndChar
StartChar: nine
Encoding: 26 57 25
OldEncoding: 57
Width: 537
Flags: W
HStem: 237 43<233 273> 292 21G<470 470> 650 26<245 269>
VStem: 54 92<446 476>
Fore
470 292 m 0
 470 292 l 0
 439 186 353 63 232 12 c 0
 175 -12 114 -23 83 -23 c 1
 80 -3 l 1
 141 8 233 35 300 124 c 0
 336 174 367 233 382 292 c 1
 330 257 283 237 233 237 c 0
 126 237 54 316 54 447 c 0
 54 530 106 676 267 676 c 0
 356 676 427 611 456 531 c 0
 482 459 493 373 470 292 c 0
386 413 m 0
 386 499 367 650 253 650 c 0
 166 650 146 545 146 476 c 0
 146 390 170 280 273 280 c 0
 306 280 362 303 382 330 c 1
 386 356 386 382 386 413 c 0
EndSplineSet
EndChar
StartChar: colon
Encoding: 27 58 26
OldEncoding: 58
Width: 278
Flags: W
HStem: -12 144<140 149> 324 144<140 149>
Fore
68 396 m 0
 68 396 l 0
 68 436 100 468 140 468 c 0
 180 468 212 436 212 396 c 0
 212 356 180 324 140 324 c 0
 100 324 68 356 68 396 c 0
68 60 m 0
 68 100 100 132 140 132 c 0
 180 132 212 100 212 60 c 0
 212 20 180 -12 140 -12 c 0
 100 -12 68 20 68 60 c 0
EndSplineSet
EndChar
StartChar: semicolon
Encoding: 28 59 27
OldEncoding: 59
Width: 278
Flags: W
HStem: 5 121<126 158> 324 144<127 136>
VStem: 163 52<-6 23>
Fore
58 58 m 0
 58 58 l 0
 58 100 83 126 126 126 c 0
 195 126 215 77 215 23 c 0
 215 -60 161 -112 89 -146 c 1
 75 -118 l 1
 115 -100 163 -45 163 -6 c 0
 163 0 164 5 158 5 c 0
 151 5 141 -5 121 -3 c 0
 88 -2 58 22 58 58 c 0
55 396 m 0
 55 436 88 468 127 468 c 0
 167 468 200 436 200 396 c 0
 200 356 167 324 127 324 c 0
 88 324 55 356 55 396 c 0
EndSplineSet
EndChar
StartChar: less
Encoding: 29 60 28
OldEncoding: 60
Width: 563
Flags: W
DStem: 28 233 108 261 536 0 536 63 536 522 536 459 28 287 108 261
Fore
536 0 m 1
 28 233 l 1
 28 287 l 1
 536 522 l 1
 536 459 l 1
 108 261 l 1
 536 63 l 1
 536 0 l 1
EndSplineSet
EndChar
StartChar: equal
Encoding: 30 61 29
OldEncoding: 61
Width: 563
Flags: W
HStem: 132 65<31 533> 326 64<31 533>
Fore
533 326 m 1
 31 326 l 1
 31 390 l 1
 533 390 l 1
 533 326 l 1
533 132 m 1
 31 132 l 1
 31 197 l 1
 533 197 l 1
 533 132 l 1
EndSplineSet
EndChar
StartChar: greater
Encoding: 31 62 30
OldEncoding: 62
Width: 563
Flags: W
DStem: 28 459 28 522 455 261 536 287 455 261 536 233 28 63 28 0
Fore
536 233 m 1
 28 0 l 1
 28 63 l 1
 455 261 l 1
 28 459 l 1
 28 522 l 1
 536 287 l 1
 536 233 l 1
EndSplineSet
EndChar
StartChar: question
Encoding: 32 63 31
OldEncoding: 63
Width: 443
Flags: W
HStem: -14 115<217 226> 647 29<195 217>
VStem: 49 89<510 536> 158 115<43 51> 303 92<516 531>
Fore
395 518 m 0
 395 518 l 0
 395 453 356 402 319 355 c 2
 289 316 l 2
 253 270 233 223 224 164 c 1
 207 164 l 1
 207 319 303 386 303 516 c 0
 303 582 267 647 195 647 c 0
 157 647 88 621 103 573 c 1
 109 564 117 556 123 547 c 0
 134 533 138 527 138 510 c 0
 138 485 120 470 94 470 c 0
 58 470 49 508 49 536 c 0
 49 625 135 676 217 676 c 0
 330 676 395 596 395 518 c 0
273 43 m 0
 273 11 244 -14 217 -14 c 0
 187 -14 158 12 158 43 c 0
 158 74 187 101 217 101 c 0
 244 101 273 75 273 43 c 0
EndSplineSet
EndChar
StartChar: at
Encoding: 33 64 32
OldEncoding: 64
Width: 920
Flags: W
HStem: -155 40<470 524> 41 43<401 433 657 669> 427 46<510 525> 636 38<501 526>
VStem: 55 96<228 262> 280 92<164 198> 828 40<308 346>
Fore
868 330 m 0
 868 330 l 0
 868 172 760 40 659 40 c 0
 624 40 561 49 542 123 c 1
 508 72 444 41 401 41 c 0
 330 41 280 83 280 184 c 0
 280 330 396 473 510 473 c 0
 562 473 594 436 604 410 c 1
 616 459 l 1
 702 459 l 1
 621 144 l 2
 610 104 636 83 667 83 c 0
 742 83 828 214 828 329 c 0
 828 513 660 636 501 636 c 0
 287 636 151 421 151 249 c 0
 151 98 210 -115 495 -115 c 0
 591 -115 707 -78 762 -23 c 1
 743 -88 l 1
 743 -88 650 -155 493 -155 c 0
 290 -155 55 -38 55 257 c 0
 55 424 195 674 501 674 c 0
 627 674 868 590 868 330 c 0
582 344 m 0
 582 409 554 427 525 427 c 0
 472 427 372 341 372 175 c 0
 372 111 390 84 433 84 c 0
 468 84 511 127 522 147 c 0
 536 170 582 273 582 344 c 0
EndSplineSet
EndChar
StartChar: A
Encoding: 34 65 33
OldEncoding: 65
Width: 721
Flags: W
HStem: 0 20<15 27.4 214 214 450 478.667 686.667 705> 217 40<217 461>
DStem: 330 531 367 676 447 257 610 117 347 676 330 531 144 194 217 257
Fore
705 0 m 1
 450 0 l 1
 450 20 l 1
 536 23 535 43 496 131 c 1
 461 217 l 1
 200 217 l 1
 186 178 144 98 144 61 c 0
 144 28 180 20 214 20 c 1
 214 0 l 1
 15 0 l 1
 15 20 l 1
 77 25 103 97 144 194 c 1
 347 676 l 1
 367 676 l 1
 610 117 l 1
 628 77 650 17 705 20 c 1
 705 0 l 1
447 257 m 1
 330 531 l 1
 217 257 l 1
 447 257 l 1
EndSplineSet
EndChar
StartChar: B
Encoding: 35 66 34
OldEncoding: 66
Width: 666
Flags: W
HStem: 0 20<20 43.5759> 0 37<275 335> 326 40<218 300> 642 20<20 43.1796>
VStem: 117 101<78 326 80 593> 459 103<479 497> 481 115<175 193>
Fore
596 183 m 0xba
 596 183 l 0
 596 63 492 0 335 0 c 2x7a
 20 0 l 1
 20 20 l 1
 101 20 117 51 117 80 c 2
 117 582 l 2
 117 610 101 642 20 642 c 1
 20 662 l 1
 287 662 l 2
 442 662 562 621 562 493 c 0xbc
 562 409 505 366 429 347 c 1
 515 330 596 278 596 183 c 0xba
459 490 m 0x3c
 459 490 l 0
 459 565 412 607 343 619 c 1
 250 625 218 627 218 593 c 2
 218 366 l 1
 300 366 l 2
 401 366 459 409 459 490 c 0x3c
481 184 m 0x7a
 481 304 362 326 267 326 c 2
 218 326 l 1
 218 91 l 2
 218 55 227 37 300 37 c 0
 404 37 481 68 481 184 c 0x7a
EndSplineSet
EndChar
StartChar: C
Encoding: 36 67 35
OldEncoding: 67
Width: 666
Flags: W
HStem: -14 45<369 388> 450 21G<601 624> 634 42<369 388>
VStem: 34 115<305 355>
Fore
636 111 m 1
 576 37 473 -14 376 -14 c 0
 183 -14 34 111 34 330 c 0
 34 528 174 676 375 676 c 0
 511 676 562 593 594 674 c 1
 616 674 l 1
 624 450 l 1
 601 450 l 1
 571 559 499 634 384 634 c 0
 220 634 149 502 149 323 c 0
 149 183 223 31 386 31 c 0
 484 31 550 63 619 131 c 1
 636 111 l 1
EndSplineSet
EndChar
StartChar: D
Encoding: 37 68 36
OldEncoding: 68
Width: 721
Flags: W
HStem: 0 20<20 41.4939> 624 38<20 293> 642 20<20 41.223>
VStem: 108 102<79 593> 579 109<303 353>
Fore
688 329 m 0xd8
 688 329 l 0
 688 126 553 0 286 0 c 2
 20 0 l 1
 20 20 l 1
 94 20 108 51 108 80 c 2
 108 582 l 2
 108 610 94 642 20 642 c 1xb8
 20 662 l 1
 278 662 l 2
 533 662 688 553 688 329 c 0xd8
579 327 m 0
 579 524 452 624 267 624 c 0xd8
 220 624 210 622 210 573 c 2
 210 91 l 2
 210 54 237 43 258 41 c 0
 462 32 579 143 579 327 c 0
EndSplineSet
EndChar
StartChar: E
Encoding: 38 69 37
OldEncoding: 69
Width: 609
Flags: W
HStem: 0 20<12 33.0082> 0 41<225 551> 326 41<203 365> 519 143<12 542> 621 41<12 413> 642 20<12 32.6541>
VStem: 100 103<68.0558 326 80 584> 467 20<229 246.032 462 462>
Fore
596 169 m 1x6b
 551 0 l 1x6b
 12 0 l 1
 12 20 l 1
 84 20 100 51 100 80 c 2
 100 582 l 2
 100 610 84 642 12 642 c 1xa7
 12 662 l 1
 542 662 l 1
 542 519 l 1
 521 519 l 1x33
 510 573 476 621 407 621 c 2
 246 621 l 2
 221 621 203 607 203 582 c 2
 203 367 l 1
 343 367 l 2
 410 367 467 384 467 462 c 1
 487 462 l 1
 487 229 l 1
 467 229 l 1
 467 307 410 326 343 326 c 2
 203 326 l 1
 203 80 l 2
 203 63 207 41 227 41 c 2
 359 41 l 2
 439 41 516 43 568 169 c 1
 596 169 l 1x6b
EndSplineSet
EndChar
StartChar: F
Encoding: 39 70 38
OldEncoding: 70
Width: 556
Flags: W
HStem: 0 20<12 33.0082 292 292> 326 41<203 349> 519 143<12 544> 621 41<12 429> 642 20<12 32.6541>
VStem: 100 103<68.0558 326 80 593> 458 21<229 246.032 462 462>
Fore
544 519 m 1xe6
 519 519 l 1xe6
 507 628 447 621 376 621 c 2
 244 621 l 2xd6
 210 621 203 605 203 582 c 2
 203 367 l 1
 333 367 l 2
 401 367 458 384 458 462 c 1
 479 462 l 1
 479 229 l 1
 458 229 l 1
 458 307 401 326 333 326 c 2
 203 326 l 1
 203 80 l 2
 203 51 217 20 292 20 c 1
 292 0 l 1
 12 0 l 1
 12 20 l 1
 84 20 100 51 100 80 c 2
 100 582 l 2
 100 610 84 642 12 642 c 1xce
 12 662 l 1
 544 662 l 1
 544 519 l 1xe6
EndSplineSet
EndChar
StartChar: G
Encoding: 40 71 39
OldEncoding: 71
Width: 721
Flags: W
HStem: -14 42<370 397> 336 20<449 702.905> 636 40<363 395>
VStem: 28 115<305 357> 536 97<81 275>
Fore
703 336 m 1
 639 336 633 304 633 247 c 2
 633 57 l 1
 576 25 464 -14 382 -14 c 0
 212 -14 28 94 28 329 c 0
 28 527 170 676 370 676 c 0
 492 676 570 602 594 676 c 1
 616 676 l 1
 624 464 l 1
 602 464 l 1
 564 570 498 636 379 636 c 0
 214 636 143 496 143 321 c 0
 143 167 227 28 395 28 c 0
 432 28 473 34 507 49 c 0
 536 63 536 69 536 98 c 2
 536 247 l 2
 536 304 531 336 449 336 c 1
 449 356 l 1
 703 356 l 1
 703 336 l 1
EndSplineSet
EndChar
StartChar: H
Encoding: 41 72 40
OldEncoding: 72
Width: 721
Flags: W
HStem: 0 20<20 41.4939 298 298 424 445.525 702 702> 318 41<210 513> 642 20<17 41.223 17 298 424 445.253 424 702>
VStem: 108 102<67.4697 318 80 593> 513 101<68.0558 318 359 593>
Fore
702 0 m 1
 424 0 l 1
 424 20 l 1
 498 20 513 51 513 80 c 2
 513 318 l 1
 210 318 l 1
 210 80 l 2
 210 51 224 20 298 20 c 1
 298 0 l 1
 20 0 l 1
 20 20 l 1
 94 20 108 51 108 80 c 2
 108 582 l 2
 108 610 94 642 20 642 c 1
 17 662 l 1
 298 662 l 1
 298 642 l 1
 224 642 210 610 210 582 c 2
 210 359 l 1
 513 359 l 1
 513 582 l 2
 513 610 498 642 424 642 c 1
 424 662 l 1
 702 662 l 1
 702 642 l 1
 630 642 614 610 614 582 c 2
 614 80 l 2
 614 51 630 20 702 20 c 1
 702 0 l 1
EndSplineSet
EndChar
StartChar: I
Encoding: 42 73 41
OldEncoding: 73
Width: 333
Flags: W
HStem: 0 20<18 42.1272 316 316> 642 20<18 41.7214 18 316>
VStem: 117 101<68.2233 593>
Fore
316 0 m 1
 18 0 l 1
 18 20 l 1
 101 20 117 51 117 80 c 2
 117 582 l 2
 117 610 101 642 18 642 c 1
 18 662 l 1
 316 662 l 1
 316 642 l 1
 233 642 218 610 218 582 c 2
 218 80 l 2
 218 51 233 20 316 20 c 1
 316 0 l 1
EndSplineSet
EndChar
StartChar: J
Encoding: 43 74 42
OldEncoding: 74
Width: 388
Flags: W
HStem: -14 39<112 135> 642 20<78 101.721 78 376>
VStem: 177 101<114 584>
Fore
376 642 m 1
 293 642 278 610 278 582 c 2
 278 198 l 2
 278 57 204 -14 112 -14 c 0
 83 -14 23 -3 14 45 c 2
 11 60 l 1
 11 83 31 108 58 108 c 0
 88 108 108 86 104 77 c 0
 98 57 114 25 135 25 c 0
 164 25 177 72 177 114 c 2
 177 582 l 2
 177 610 161 642 78 642 c 1
 78 662 l 1
 376 662 l 1
 376 642 l 1
EndSplineSet
EndChar
StartChar: K
Encoding: 44 75 43
OldEncoding: 75
Width: 721
Flags: W
HStem: 0 20<20 41.8316 303 303 404 431.351 692.189 707.937> 642 20<20 41.5556 20 304 399 660>
VStem: 111 101<68.0976 296 80 593>
Fore
708 0 m 1
 404 0 l 1
 404 20 l 1
 478 20 484 37 467 65 c 0
 439 112 373 183 335 221 c 2
 238 316 l 1
 212 296 l 1
 212 80 l 2
 212 51 227 20 303 20 c 1
 303 0 l 1
 20 0 l 1
 20 20 l 1
 95 20 111 51 111 80 c 2
 111 582 l 2
 111 610 95 642 20 642 c 1
 20 662 l 1
 304 662 l 1
 304 642 l 1
 227 642 212 610 212 582 c 2
 212 347 l 1
 253 387 467 562 467 608 c 0
 467 645 424 641 399 642 c 1
 399 662 l 1
 660 662 l 1
 660 642 l 1
 587 642 548 604 499 556 c 2
 319 376 l 1
 476 210 l 1
 544 137 l 2
 596 78 637 20 708 20 c 1
 708 0 l 1
EndSplineSet
EndChar
StartChar: L
Encoding: 45 76 44
OldEncoding: 76
Width: 609
Flags: W
HStem: 0 20<12 33.0082> 0 41<283 550> 642 20<12 32.6541 12 290>
VStem: 100 103<80 593>
Fore
598 174 m 1x70
 550 0 l 1x70
 12 0 l 1
 12 20 l 1xb0
 84 20 100 51 100 80 c 2
 100 582 l 2
 100 610 84 642 12 642 c 1
 12 662 l 1
 290 662 l 1
 290 642 l 1
 217 642 203 610 203 582 c 2
 203 80 l 2
 203 52 240 41 303 41 c 0
 429 41 518 37 573 174 c 1
 598 174 l 1x70
EndSplineSet
EndChar
StartChar: M
Encoding: 46 77 45
OldEncoding: 77
Width: 887
Flags: W
HStem: 0 20<20 43.5759 257 257 593 613.977 869 869> 642 20<22 44.6383 670 869>
VStem: 117 43<68.1814 545> 680 102<67.7626 568>
DStem: 160 545 220 662 410 0 450 157 670 662 680 568 450 157 424 0
Fore
869 0 m 1
 593 0 l 1
 593 20 l 1
 665 20 680 51 680 80 c 2
 680 568 l 1
 424 0 l 1
 410 0 l 1
 160 545 l 1
 160 80 l 2
 160 51 175 20 257 20 c 1
 257 0 l 1
 20 0 l 1
 20 20 l 1
 101 20 117 51 117 80 c 2
 117 582 l 2
 117 610 101 642 22 642 c 1
 22 662 l 1
 220 662 l 1
 450 157 l 1
 670 662 l 1
 869 662 l 1
 869 642 l 1
 796 642 782 610 782 582 c 2
 782 80 l 2
 782 51 797 20 869 20 c 1
 869 0 l 1
EndSplineSet
EndChar
StartChar: N
Encoding: 47 78 46
OldEncoding: 78
Width: 721
Flags: W
HStem: 0 20<12 35.8212 250 250> 642 20<12 35.2232 470 493.661 470 708>
VStem: 109 45<67.9301 536> 567 44<181 589>
DStem: 154 536 183 662 596 -14 567 181
Fore
708 642 m 1
 627 642 611 610 611 582 c 2
 611 -14 l 1
 596 -14 l 1
 154 536 l 1
 154 80 l 2
 154 51 167 20 250 20 c 1
 250 0 l 1
 12 0 l 1
 12 20 l 1
 94 20 109 51 109 80 c 2
 109 587 l 1
 101 598 l 1
 71 633 61 642 12 642 c 1
 12 662 l 1
 183 662 l 1
 567 181 l 1
 567 582 l 2
 567 610 553 642 470 642 c 1
 470 662 l 1
 708 662 l 1
 708 642 l 1
EndSplineSet
EndChar
StartChar: O
Encoding: 48 79 47
OldEncoding: 79
Width: 721
Flags: W
VStem: 34 113<330 355> 574 113<330 359.31>
Fore
687 330 m 0
 687 330 l 0
 687 138 561 -14 361 -14 c 0
 184 -14 34 120 34 330 c 0
 34 530 166 679 361 676 c 1
 533 684 687 544 687 330 c 0
574 330 m 1
 574 487 516 642 361 639 c 1
 212 630 147 522 147 330 c 0
 147 124 243 14 361 23 c 0
 539 37 579 224 574 330 c 1
EndSplineSet
EndChar
StartChar: P
Encoding: 49 80 48
OldEncoding: 80
Width: 556
Flags: W
HStem: 0 20<11 32.2829 289 289> 289 38<250 287> 624 38<17 269> 642 20<17 36.3059>
VStem: 100 101<68.0558 293 80 593> 433 109<477 497>
Fore
542 487 m 0xec
 542 487 l 0
 542 339 416 289 287 289 c 0
 260 289 230 290 201 293 c 1
 201 80 l 2
 201 51 217 20 289 20 c 1
 289 0 l 1
 11 0 l 1
 11 20 l 1
 84 20 100 51 100 80 c 2
 100 582 l 2
 100 610 84 642 17 642 c 1xdc
 17 662 l 1
 267 662 l 2
 422 662 542 605 542 487 c 0xec
433 479 m 0
 433 593 341 624 244 624 c 0xec
 203 624 201 619 201 579 c 2
 201 330 l 1
 217 330 233 327 250 327 c 0
 358 327 433 364 433 479 c 0
EndSplineSet
EndChar
StartChar: Q
Encoding: 50 81 49
OldEncoding: 81
Width: 721
Flags: W
HStem: -177 200<361 700> 639 37<361 371>
VStem: 34 113<330 352> 574 113<330 352>
Fore
700 -177 m 1
 700 -177 l 0
 527 -177 407 -147 323 -65 c 0
 304 -48 284 -20 267 -8 c 1
 257 3 243 8 233 9 c 0
 103 45 34 194 34 330 c 0
 34 525 157 676 361 676 c 0
 562 676 687 524 687 330 c 0
 687 138 556 -3 424 -8 c 1
 496 -100 581 -157 700 -160 c 1
 700 -177 l 1
574 330 m 0
 574 528 490 639 361 639 c 0
 224 637 147 530 147 330 c 0
 147 134 230 23 361 23 c 0
 499 23 574 147 574 330 c 0
EndSplineSet
EndChar
StartChar: R
Encoding: 51 82 50
OldEncoding: 82
Width: 666
Flags: W
HStem: 0 20<12 32.672 287 287 638 653> 624 38<12 289> 642 20<12 32.3248>
VStem: 97 103<80 307 80 593> 433 109<479 497>
DStem: 255 307 361 319 493 0 559 75
Fore
653 0 m 1xd8
 493 0 l 1
 255 307 l 1
 200 306 l 1
 200 80 l 2
 200 51 214 20 287 20 c 1
 287 0 l 1
 12 0 l 1
 12 20 l 1
 83 20 97 51 97 80 c 2
 97 582 l 2
 97 610 83 642 12 642 c 1xb8
 12 662 l 1
 276 662 l 2
 442 662 542 604 542 487 c 0
 542 381 455 332 361 319 c 1
 559 75 l 2
 585 43 608 23 653 20 c 1
 653 0 l 1xd8
433 485 m 0
 433 584 362 624 273 624 c 0xd8
 207 624 200 624 200 576 c 2
 200 343 l 1
 344 347 433 378 433 485 c 0
EndSplineSet
EndChar
StartChar: S
Encoding: 52 83 51
OldEncoding: 83
Width: 556
Flags: W
HStem: -14 39<261 284> 634 42<245 268>
VStem: 71 86<508 539>
Fore
490 169 m 0
 490 80 416 -14 280 -14 c 0
 177 -14 104 60 94 -14 c 1
 72 -14 l 1
 43 201 l 1
 65 201 l 1
 97 108 166 25 272 25 c 0
 353 25 407 94 384 172 c 0
 344 312 71 318 71 508 c 0
 71 607 151 676 247 676 c 0
 353 676 402 602 425 676 c 1
 447 676 l 1
 468 462 l 1
 444 462 l 1
 421 556 355 634 263 634 c 0
 203 634 157 602 157 539 c 0
 157 481 220 439 263 413 c 0
 399 332 490 289 490 169 c 0
EndSplineSet
EndChar
StartChar: T
Encoding: 53 84 52
OldEncoding: 84
Width: 609
Flags: W
HStem: 0 20<166 187.464 444 444> 619 43<25 253 25 467>
VStem: 253 103<67.4697 619>
Fore
593 492 m 1
 570 492 l 1
 547 622 498 619 427 619 c 2
 356 619 l 1
 356 80 l 2
 356 51 370 20 444 20 c 1
 444 0 l 1
 166 0 l 1
 166 20 l 1
 240 20 253 51 253 80 c 2
 253 619 l 1
 183 619 104 624 75 582 c 1
 54 556 49 522 43 492 c 1
 18 492 l 1
 25 662 l 1
 587 662 l 1
 593 492 l 1
EndSplineSet
EndChar
StartChar: U
Encoding: 54 85 53
OldEncoding: 85
Width: 721
Flags: W
HStem: -14 45<352 381> 642 20<17 37.624 17 293 473 495.367 473 703>
VStem: 104 102<225 584> 567 43<267 584>
Fore
703 642 m 1
 625 642 610 610 610 582 c 2
 610 267 l 2
 610 154 601 66 487 12 c 0
 456 -3 402 -14 359 -14 c 0
 178 -14 104 71 104 253 c 2
 104 582 l 2
 104 610 89 642 17 642 c 1
 17 662 l 1
 293 662 l 1
 293 642 l 1
 221 642 206 610 206 582 c 2
 206 246 l 2
 206 91 253 31 379 31 c 0
 565 31 567 172 567 267 c 2
 567 582 l 2
 567 610 551 642 473 642 c 1
 473 662 l 1
 703 662 l 1
 703 642 l 1
EndSplineSet
EndChar
StartChar: V
Encoding: 55 86 54
OldEncoding: 86
Width: 721
Flags: W
HStem: 642 20<20 33.0974 20 286 496 515.958 496 700>
DStem: 131 527 257 487 373 -14 402 161 544 516 617 570 402 161 386 -14
Fore
700 642 m 1
 653 642 633 610 617 570 c 0
 544 393 441 131 386 -14 c 1
 373 -14 l 1
 131 527 l 1
 104 587 78 642 20 642 c 1
 20 662 l 1
 286 662 l 1
 286 642 l 1
 223 642 210 630 210 605 c 0
 210 584 247 507 257 487 c 2
 402 161 l 1
 544 516 l 1
 553 538 568 576 568 599 c 0
 568 637 524 642 496 642 c 1
 496 662 l 1
 700 662 l 1
 700 642 l 1
EndSplineSet
EndChar
StartChar: W
Encoding: 56 87 55
OldEncoding: 87
Width: 943
Flags: W
HStem: 642 20<9 253 316 583.973 737 759 911 935>
DStem: 450 470 473 412 344 189 319 -14 473 412 516 570 634 -14 665 186
Fore
935 642 m 1
 911 641 889 633 872 614 c 1
 863 601 857 585 852 570 c 1
 647 -14 l 1
 634 -14 l 1
 473 412 l 1
 319 -14 l 1
 306 -14 l 1
 152 419 l 1
 134 468 101 561 75 604 c 0
 60 630 38 639 9 642 c 1
 9 662 l 1
 253 662 l 1
 253 642 l 1
 240 642 l 2
 207 637 189 637 189 602 c 0
 189 593 201 562 204 553 c 2
 344 189 l 1
 450 470 l 1
 435 513 419 556 399 596 c 0
 382 633 356 642 316 642 c 1
 316 662 l 1
 584 662 l 1
 584 642 l 1
 556 642 507 642 507 611 c 0
 507 596 515 576 516 570 c 1
 665 186 l 1
 786 513 l 1
 803 562 809 604 800 619 c 0
 786 641 759 641 737 642 c 1
 737 662 l 1
 935 662 l 1
 935 642 l 1
EndSplineSet
EndChar
StartChar: X
Encoding: 57 88 56
OldEncoding: 88
Width: 721
Flags: W
HStem: 0 20<12 24.9641 244 244 409 437.288 705 705> 642 20<25 326 459 485.41 459 697>
DStem: 313 326 339 287 164 143 229 149 339 287 402 367 427 158 587 103 482 533 541 539 378 404 402 367
Fore
705 0 m 1
 409 0 l 1
 409 20 l 1
 479 20 495 34 481 69 c 0
 473 92 442 137 427 158 c 2
 339 287 l 1
 229 149 l 2
 210 127 187 100 174 75 c 0
 160 48 184 20 244 20 c 1
 244 0 l 1
 12 0 l 1
 12 20 l 1
 69 20 112 77 164 143 c 2
 313 326 l 1
 212 476 l 2
 129 598 97 639 25 642 c 1
 25 662 l 1
 326 662 l 1
 326 642 l 1
 263 642 250 634 250 611 c 0
 250 581 324 478 343 453 c 2
 378 404 l 1
 482 533 l 2
 496 550 530 584 530 610 c 0
 530 642 481 642 459 642 c 1
 459 662 l 1
 697 662 l 5
 697 642 l 1
 625 642 570 576 541 539 c 2
 402 367 l 1
 587 103 l 1
 633 40 659 20 705 20 c 1
 705 0 l 1
EndSplineSet
EndChar
StartChar: Y
Encoding: 58 89 57
OldEncoding: 89
Width: 721
Flags: W
HStem: 0 20<214 238.924 518 518> 642 20<23 36.2325 23 303 484 513.958 694.333 702>
VStem: 315 101<68.2653 293>
DStem: 190 476 255 559 315 293 396 347 533 562 558 519 396 347 416 303
Fore
702 642 m 1
 633 633 587 564 558 519 c 2
 416 303 l 1
 416 80 l 2
 416 51 432 20 518 20 c 1
 518 0 l 1
 214 0 l 1
 214 20 l 1
 300 20 315 51 315 80 c 2
 315 293 l 1
 190 476 l 2
 123 574 94 641 23 642 c 1
 23 662 l 1
 303 662 l 1
 303 642 l 1
 249 642 230 636 230 614 c 0
 230 593 243 576 255 559 c 2
 396 347 l 1
 533 562 l 2
 544 581 559 602 550 624 c 0
 544 636 536 642 484 642 c 1
 484 662 l 1
 702 662 l 1
 702 642 l 1
EndSplineSet
EndChar
StartChar: Z
Encoding: 59 90 58
OldEncoding: 90
Width: 609
Flags: W
HStem: 0 38<144 573> 624 38<51 445>
DStem: 445 624 579 650 8 12 144 38
Fore
596 177 m 1
 573 0 l 1
 8 0 l 1
 8 12 l 1
 445 624 l 1
 237 624 l 2
 134 624 75 605 57 490 c 1
 31 490 l 1
 51 662 l 1
 579 662 l 1
 579 650 l 1
 144 38 l 1
 390 38 l 2
 499 38 544 66 573 177 c 1
 596 177 l 1
EndSplineSet
EndChar
StartChar: bracketleft
Encoding: 60 91 59
OldEncoding: 91
Width: 333
Flags: W
HStem: -157 26<215 300> 636 26<88 300>
VStem: 88 76<-157 596>
Fore
300 -157 m 1
 88 -157 l 1
 88 662 l 1
 300 662 l 1
 300 636 l 1
 221 636 l 2
 175 636 164 625 164 581 c 2
 164 -68 l 2
 164 -120 177 -131 224 -131 c 2
 300 -131 l 1
 300 -157 l 1
EndSplineSet
EndChar
StartChar: backslash
Encoding: 61 92 60
OldEncoding: 92
Width: 278
Flags: W
HStem: 0 21G<289 361>
DStem: -83 682 -11 682 289 0 361 0
Fore
361 0 m 1
 289 0 l 1
 -83 682 l 1
 -11 682 l 1
 361 0 l 1
EndSplineSet
EndChar
StartChar: bracketright
Encoding: 62 93 61
OldEncoding: 93
Width: 333
Flags: W
HStem: -157 26<34 244> 636 26<34 131>
VStem: 169 75<-78 662>
Fore
244 -157 m 1
 34 -157 l 1
 34 -131 l 1
 103 -131 l 2
 163 -129 169 -121 169 -63 c 2
 169 556 l 2
 169 610 170 636 123 636 c 2
 34 636 l 1
 34 662 l 1
 244 662 l 1
 244 -157 l 1
EndSplineSet
EndChar
StartChar: asciicircum
Encoding: 63 94 62
OldEncoding: 94
Width: 468
Flags: W
DStem: 203 662 235 593 14 257 86 257
Fore
456 257 m 1
 382 257 l 1
 235 593 l 1
 86 257 l 1
 14 257 l 1
 203 662 l 1
 267 662 l 1
 456 257 l 1
EndSplineSet
EndChar
StartChar: underscore
Encoding: 64 95 63
OldEncoding: 95
Width: 499
Flags: W
HStem: -174 59<0 499>
Fore
499 -174 m 1
 0 -174 l 1
 0 -115 l 1
 499 -115 l 1
 499 -174 l 1
EndSplineSet
EndChar
StartChar: grave
Encoding: 65 96 64
OldEncoding: 96
Width: 333
Flags: W
Fore
243 507 m 1
 203 507 l 1
 60 598 l 2
 43 607 17 624 17 641 c 0
 17 664 28 677 48 677 c 0
 65 677 92 664 104 645 c 1
 243 507 l 1
EndSplineSet
EndChar
StartChar: a
Encoding: 66 97 65
OldEncoding: 97
Width: 443
Flags: W
HStem: -11 60<143 195> 435 23<208 226>
VStem: 37 87<95 131> 283 84<93 321.603>
Fore
442 43 m 1
 442 43 l 0
 427 25 387 -11 359 -11 c 0
 307 -11 289 28 287 66 c 1
 243 25 186 -11 143 -11 c 0
 83 -11 37 37 37 95 c 0
 37 215 198 257 283 290 c 1
 283 396 273 435 210 435 c 0
 190 435 155 425 144 407 c 1
 140 395 144 375 144 349 c 0
 144 326 123 304 100 304 c 0
 54 304 45 344 66 382 c 0
 100 442 163 458 224 458 c 0
 335 458 367 410 367 287 c 2
 367 77 l 2
 367 40 393 35 442 69 c 1
 442 43 l 1
283 94 m 1
 283 264 l 1
 220 238 124 221 124 131 c 0
 124 88 147 49 195 49 c 0
 215 49 273 71 283 94 c 1
EndSplineSet
EndChar
StartChar: b
Encoding: 67 98 66
OldEncoding: 98
Width: 499
Flags: W
HStem: -11 34<241 261> 396 62<258 301>
VStem: 74 86<68 311 68 682> 386 87<200 243>
Fore
473 243 m 0
 473 243 l 0
 473 112 379 -11 243 -11 c 0
 186 -11 127 5 86 37 c 0
 78 43 74 54 74 68 c 2
 74 559 l 2
 74 628 63 619 9 619 c 1
 9 637 l 1
 45 647 71 651 97 660 c 2
 160 682 l 1
 160 378 l 1
 187 430 243 458 301 458 c 0
 416 458 473 344 473 243 c 0
386 200 m 0
 386 280 359 396 258 396 c 0
 184 396 160 353 160 309 c 2
 160 84 l 1
 157 51 167 49 197 35 c 0
 214 28 240 23 257 23 c 0
 356 23 386 117 386 200 c 0
EndSplineSet
EndChar
StartChar: c
Encoding: 68 99 67
OldEncoding: 99
Width: 443
Flags: W
HStem: -11 71<212 257> 429 29<228 249>
VStem: 25 78<214 255>
Fore
412 149 m 1
 370 63 315 -11 212 -11 c 0
 104 -11 25 91 25 214 c 0
 25 344 100 458 249 458 c 0
 306 458 393 427 398 359 c 0
 398 336 376 316 353 316 c 0
 330 316 307 338 307 359 c 0
 307 399 284 429 230 429 c 0
 144 429 103 338 103 255 c 0
 103 163 154 60 257 60 c 0
 323 60 364 106 398 157 c 1
 412 149 l 1
EndSplineSet
EndChar
StartChar: d
Encoding: 69 100 68
OldEncoding: 100
Width: 499
Flags: W
HStem: -11 49<212 250> 427 31<220.534 252>
VStem: 26 86<210 241> 339 85<113 682>
Fore
490 45 m 1
 490 45 l 0
 442 31 392 12 339 -14 c 1
 339 60 l 1
 313 20 263 -11 212 -11 c 0
 88 -11 26 98 26 210 c 0
 26 327 108 458 237 458 c 0
 287 458 326 433 339 418 c 1
 339 559 l 2
 339 627 333 619 273 619 c 1
 273 637 l 1
 310 647 336 651 361 660 c 2
 424 682 l 1
 424 91 l 2
 424 54 459 60 490 60 c 1
 490 45 l 1
339 117 m 2
 339 300 l 2
 339 372 307 427 235 427 c 0
 152 427 112 333 112 241 c 0
 112 111 170 38 250 38 c 0
 307 38 339 83 339 117 c 2
EndSplineSet
EndChar
StartChar: e
Encoding: 70 101 69
OldEncoding: 101
Width: 443
Flags: W
HStem: -11 68<212 253> 276 31<94 402> 422 36<204 226>
VStem: 23 68<214 276>
Fore
421 158 m 1
 421 158 l 0
 390 68 312 -11 212 -11 c 0
 97 -11 23 95 23 214 c 0
 23 356 103 458 226 458 c 0
 333 458 399 379 402 276 c 1
 91 276 l 1
 92 181 140 57 253 57 c 0
 319 57 373 109 404 164 c 1
 421 158 l 1
300 307 m 1
 296 366 270 422 204 422 c 0
 134 422 103 370 94 307 c 1
 300 307 l 1
EndSplineSet
EndChar
StartChar: f
Encoding: 71 102 70
OldEncoding: 102
Width: 333
Flags: W
HStem: 0 14<20 37 260.75 280> 416 31<22 103 187 309> 579 103<273 344>
VStem: 103 84<80 416 447 491.074>
Fore
382 624 m 1
 382 602 367 579 344 579 c 0
 290 579 303 630 266 648 c 0
 253 654 238 656 226 650 c 1
 184 639 187 587 187 553 c 2
 187 447 l 1
 309 447 l 1
 309 416 l 1
 187 416 l 1
 187 80 l 2
 187 37 203 18 280 14 c 1
 280 0 l 1
 20 0 l 1
 20 14 l 1
 88 18 103 37 103 80 c 2
 103 416 l 1
 22 416 l 1
 22 447 l 1
 103 447 l 1
 103 482 104 513 111 544 c 0
 127 622 190 682 273 682 c 0
 313 682 359 674 382 624 c 1
EndSplineSet
EndChar
StartChar: g
Encoding: 72 103 71
OldEncoding: 103
Width: 499
Flags: W
HStem: -217 56<200 240> 147 27<241 257> 386 38<462.294 470> 386 72<244 470> 430 28<223 244>
VStem: 28 70<-114 -91> 69 83<296 335> 329 77<272 300> 433 28<-68 -49>
Fore
470 386 m 1xe380
 387 386 l 0
 401 356 406 323 406 300 c 0
 406 204 332 147 244 147 c 0
 227 147 210 151 190 154 c 1
 170 149 127 108 134 84 c 1
 147 65 203 65 223 63 c 0
 356 57 461 68 461 -49 c 0
 461 -163 293 -217 200 -217 c 0
 84 -217 28 -154 28 -114 c 0xd580
 28 -74 74 -46 126 2 c 1
 104 11 74 25 74 54 c 0
 74 94 123 134 163 163 c 1
 104 187 69 230 69 296 c 0
 69 395 149 458 244 458 c 0xd380
 330 458 339 407 470 424 c 1
 470 386 l 1xe380
329 272 m 0
 329 272 l 0
 329 327 298 430 230 430 c 0
 170 430 152 384 152 335 c 0xcb80
 152 272 174 174 255 174 c 0
 312 174 329 223 329 272 c 0
433 -68 m 0
 433 -17 364 -15 298 -14 c 0
 253 -14 194 -12 147 -3 c 1
 127 -25 98 -58 98 -91 c 0xc580
 98 -126 137 -161 240 -161 c 0
 358 -161 433 -124 433 -68 c 0
EndSplineSet
EndChar
StartChar: h
Encoding: 73 104 72
OldEncoding: 104
Width: 499
Flags: W
HStem: 0 14<9 21 208 220 280 291.75 478 490> 404 54<266 301>
VStem: 72 85<80 344 80 682> 343 84<80 321>
Fore
490 0 m 1
 280 0 l 1
 280 14 l 1
 327 18 343 37 343 80 c 2
 343 287 l 2
 343 346 338 404 266 404 c 0
 210 404 186 376 157 344 c 1
 157 80 l 2
 157 37 172 18 220 14 c 1
 220 0 l 1
 9 0 l 1
 9 14 l 1
 57 18 72 37 72 80 c 2
 72 559 l 2
 72 624 63 621 9 619 c 1
 9 637 l 1
 43 647 69 651 94 660 c 2
 157 682 l 1
 157 378 l 1
 190 422 241 458 301 458 c 0
 402 458 427 399 427 289 c 2
 427 80 l 2
 427 37 442 18 490 14 c 1
 490 0 l 1
EndSplineSet
EndChar
StartChar: i
Encoding: 74 105 73
OldEncoding: 105
Width: 278
Flags: W
HStem: 0 14<23 38 244.5 260> 579 103<123.388 137>
VStem: 98 85<80 353>
Fore
184 630 m 0
 184 630 l 0
 184 602 161 579 134 579 c 0
 104 579 83 602 83 630 c 0
 83 659 104 682 134 682 c 0
 161 682 184 659 184 630 c 0
260 0 m 1
 23 0 l 1
 23 14 l 1
 83 18 98 37 98 80 c 2
 98 323 l 2
 98 401 86 407 23 390 c 1
 23 404 l 1
 183 458 l 1
 183 80 l 2
 183 37 198 18 260 14 c 1
 260 0 l 1
EndSplineSet
EndChar
StartChar: j
Encoding: 75 106 74
OldEncoding: 106
Width: 278
Flags: W
HStem: 579 103<161 169>
VStem: 121 85<-94 360>
Fore
212 630 m 0
 212 630 l 0
 212 602 189 579 161 579 c 0
 134 579 111 602 111 630 c 0
 111 659 134 682 161 682 c 0
 189 682 212 659 212 630 c 0
206 12 m 2
 206 -140 147 -217 35 -217 c 0
 8 -217 -25 -207 -43 -190 c 1
 -63 -167 -57 -134 -35 -124 c 0
 -15 -114 5 -118 17 -132 c 0
 28 -147 40 -167 69 -181 c 0
 111 -200 121 -134 121 -94 c 2
 121 343 l 2
 121 396 108 399 48 390 c 1
 48 404 l 1
 206 458 l 1
 206 12 l 2
EndSplineSet
EndChar
StartChar: k
Encoding: 76 107 75
OldEncoding: 107
Width: 499
Flags: W
HStem: 0 14<2 16.75 222 237 283 297.222 481.667 499> 433 14<270 294.26 270 475>
VStem: 77 84<80 247 80 682>
DStem: 161 247 230 283 310 51 375 98
Fore
499 0 m 1
 283 0 l 1
 283 14 l 1
 330 14 319 40 310 51 c 2
 161 247 l 1
 161 80 l 2
 161 37 177 18 237 14 c 1
 237 0 l 1
 2 0 l 1
 2 14 l 1
 61 18 77 37 77 80 c 2
 77 579 l 2
 77 625 66 622 11 619 c 1
 11 637 l 1
 48 647 74 651 98 660 c 2
 161 682 l 1
 161 263 l 1
 287 373 l 2
 300 384 312 396 321 410 c 1
 324 427 312 433 270 433 c 1
 270 447 l 1
 475 447 l 1
 475 433 l 1
 372 433 321 362 230 283 c 1
 375 98 l 2
 406 58 447 17 499 14 c 1
 499 0 l 1
EndSplineSet
MinimumDistance: x2,25 
EndChar
StartChar: l
Encoding: 77 108 76
OldEncoding: 108
Width: 278
Flags: W
HStem: 0 14<20 35.75 244.25 260>
VStem: 97 86<80 577>
Fore
260 0 m 1
 20 0 l 1
 20 14 l 1
 83 18 97 37 97 80 c 2
 97 559 l 2
 97 633 89 624 20 624 c 1
 20 637 l 1
 68 647 138 665 183 682 c 1
 183 80 l 2
 183 37 197 18 260 14 c 1
 260 0 l 1
EndSplineSet
EndChar
StartChar: m
Encoding: 78 109 77
OldEncoding: 109
Width: 777
Flags: W
HStem: 0 14<14 25.75 212.25 224 283 294.75 481 493 553 565 751.25 763> 404 54<276 316 538 574>
VStem: 77 84<80 323> 346 84<80 325> 616 84<80 305>
Fore
763 0 m 1
 553 0 l 1
 553 14 l 1
 601 18 616 37 616 80 c 2
 616 283 l 2
 616 379 601 404 538 404 c 0
 492 404 453 381 430 344 c 1
 430 80 l 2
 430 37 445 18 493 14 c 1
 493 0 l 1
 283 0 l 1
 283 14 l 1
 330 18 346 37 346 80 c 2
 346 287 l 1
 347 339 343 404 276 404 c 0
 235 404 184 381 161 346 c 1
 161 80 l 2
 161 37 177 18 224 14 c 1
 224 0 l 1
 14 0 l 1
 14 14 l 1
 61 18 77 37 77 80 c 2
 77 323 l 1
 80 378 65 389 14 389 c 1
 14 406 l 1
 161 458 l 1
 161 392 l 2
 161 367 181 399 197 410 c 0
 230 436 272 458 316 458 c 0
 367 458 407 421 419 373 c 1
 456 415 518 458 574 458 c 0
 693 458 700 356 700 267 c 2
 700 80 l 2
 700 37 716 18 763 14 c 1
 763 0 l 1
EndSplineSet
EndChar
StartChar: n
Encoding: 79 110 78
OldEncoding: 110
Width: 499
Flags: W
HStem: 0 14<9 21 208 220 280 291.75 478 490> 404 54<266 310>
VStem: 72 85<80 347> 343 84<80 324>
Fore
490 0 m 1
 280 0 l 1
 280 14 l 1
 327 18 343 37 343 80 c 2
 343 295 l 2
 343 353 336 404 266 404 c 0
 218 404 183 373 157 347 c 1
 157 80 l 2
 157 37 172 18 220 14 c 1
 220 0 l 1
 9 0 l 1
 9 14 l 1
 57 18 72 37 72 80 c 2
 72 324 l 2
 72 401 63 399 9 396 c 1
 9 410 l 1
 157 458 l 1
 157 378 l 1
 194 416 240 458 310 458 c 0
 387 458 427 404 427 296 c 2
 427 80 l 2
 427 37 442 18 490 14 c 1
 490 0 l 1
EndSplineSet
EndChar
StartChar: o
Encoding: 80 111 79
OldEncoding: 111
Width: 499
Flags: W
HStem: -11 31<246 266> 427 31<231 248>
VStem: 31 92<218 272> 378 92<190 238>
Fore
470 238 m 0
 470 238 l 0
 470 108 384 -11 246 -11 c 0
 118 -11 31 97 31 218 c 0
 31 350 108 458 246 458 c 0
 378 458 470 369 470 238 c 0
378 190 m 0
 378 281 347 427 233 427 c 0
 160 427 123 359 123 272 c 0
 121 131 169 20 264 20 c 0
 343 20 378 104 378 190 c 0
EndSplineSet
EndChar
StartChar: p
Encoding: 81 112 80
OldEncoding: 112
Width: 499
Flags: W
HStem: -217 14<3 22 220.333 243> -11 34<251 265> 402 56<258 306>
VStem: 75 85<-137 344> 384 86<203 243>
Fore
470 243 m 0
 470 243 l 0
 470 109 382 -11 253 -11 c 0
 218 -11 183 9 160 35 c 1
 160 -137 l 2
 160 -181 175 -200 243 -203 c 1
 243 -217 l 1
 3 -217 l 1
 3 -203 l 1
 60 -200 75 -181 75 -137 c 2
 75 327 l 2
 75 384 75 404 3 396 c 1
 3 410 l 1
 160 458 l 1
 160 396 l 1
 158 373 163 392 186 413 c 0
 214 439 247 458 306 458 c 0
 416 458 470 359 470 243 c 0
384 203 m 0
 384 284 362 402 258 402 c 0
 229 402 200 389 180 369 c 1
 160 352 160 347 160 324 c 2
 160 103 l 2
 160 74 174 60 198 43 c 0
 217 31 240 23 263 23 c 0
 335 23 384 103 384 203 c 0
EndSplineSet
EndChar
StartChar: q
Encoding: 82 113 81
OldEncoding: 113
Width: 499
Flags: W
HStem: -217 14<257 279.333 478.333 498> -11 62<194 233> 433 25<231 266>
VStem: 25 86<214 244> 339 85<-137 60 102 439>
Fore
498 -217 m 1
 257 -217 l 1
 257 -203 l 1
 324 -200 339 -181 339 -137 c 2
 339 60 l 1
 296 23 249 -11 194 -11 c 0
 63 -11 25 111 25 214 c 0
 25 343 114 458 250 458 c 0
 290 458 327 447 359 425 c 1
 407 456 l 2
 424 465 424 450 424 439 c 2
 424 -137 l 2
 424 -181 439 -200 498 -203 c 1
 498 -217 l 1
339 140 m 2
 339 323 l 2
 339 370 343 399 293 424 c 0
 275 432 264 433 244 433 c 0
 146 433 111 327 111 244 c 0
 111 134 154 51 233 51 c 0
 264 51 300 61 324 81 c 0
 344 100 339 114 339 140 c 2
EndSplineSet
EndChar
StartChar: r
Encoding: 83 114 82
OldEncoding: 114
Width: 333
Flags: W
HStem: 0 14<5 20 225 240> 396 62<226 278>
VStem: 80 84<80 320>
Fore
333 392 m 0
 330 370 313 361 293 361 c 0
 258 361 250 396 226 396 c 0
 206 396 164 347 164 318 c 2
 164 80 l 2
 164 37 180 18 240 14 c 1
 240 0 l 1
 5 0 l 1
 5 14 l 1
 65 18 80 37 80 80 c 2
 80 298 l 2
 80 393 65 406 5 389 c 1
 5 404 l 1
 164 458 l 1
 164 367 l 1
 184 402 227 458 278 458 c 0
 316 458 339 435 333 392 c 0
EndSplineSet
EndChar
StartChar: s
Encoding: 84 115 83
OldEncoding: 115
Width: 388
Flags: W
HStem: -11 25<187 212> 435 23<178 202>
VStem: 51 63<335 370> 278 69<84 124>
Fore
347 124 m 0
 347 38 280 -11 200 -11 c 0
 170 -11 154 -3 127 5 c 0
 69 23 68 6 65 -3 c 1
 51 -3 l 1
 51 154 l 1
 68 154 l 1
 80 81 115 14 198 14 c 0
 241 14 278 40 278 84 c 0
 278 190 51 194 51 335 c 0
 51 413 117 458 190 458 c 0
 214 458 232 452 264 439 c 0
 298 429 300 444 303 449 c 1
 315 449 l 1
 315 313 l 1
 300 313 l 1
 281 382 257 435 189 435 c 0
 151 435 114 410 114 370 c 0
 114 270 347 250 347 124 c 0
EndSplineSet
EndChar
StartChar: t
Encoding: 85 116 84
OldEncoding: 116
Width: 278
Flags: W
HStem: 416 31<157 255>
VStem: 71 86<116 416>
Fore
280 68 m 1
 243 20 198 -11 151 -11 c 0
 84 -11 69 31 71 129 c 1
 71 416 l 1
 41 416 l 2
 29 416 6 410 15 430 c 1
 71 468 109 524 157 579 c 1
 157 447 l 1
 255 447 l 1
 255 416 l 1
 157 416 l 1
 157 146 l 2
 157 72 166 25 229 49 c 0
 244 55 257 68 266 80 c 1
 280 68 l 1
EndSplineSet
EndChar
StartChar: u
Encoding: 86 117 85
OldEncoding: 117
Width: 499
Flags: W
HStem: -11 59<189 232> 433 14<9 31.6631 260 286.452>
VStem: 72 85<118 390> 332 84<116 374>
Fore
479 37 m 1
 439 25 386 6 338 -11 c 1
 338 77 l 1
 316 54 l 2
 295 29 253 -11 189 -11 c 0
 109 -11 72 46 72 132 c 2
 72 361 l 2
 72 421 65 433 9 433 c 1
 9 447 l 1
 157 447 l 1
 157 137 l 2
 157 86 177 48 232 48 c 0
 260 48 289 63 310 80 c 0
 338 103 332 115 332 151 c 2
 332 359 l 2
 332 421 326 433 260 433 c 1
 260 447 l 1
 416 447 l 1
 416 120 l 2
 416 68 421 48 479 51 c 1
 479 37 l 1
EndSplineSet
EndChar
StartChar: v
Encoding: 87 118 86
OldEncoding: 118
Width: 499
Flags: W
HStem: 433 14<11 205.952 329 344.79 329 467>
DStem: 74 379 174 358 230 17 270 120 347 323 399 343 270 120 266 17
Fore
467 433 m 1
 430 433 418 390 399 343 c 1
 266 17 l 2
 263 9 253 -11 247 -11 c 0
 243 -11 233 9 230 17 c 2
 74 379 l 2
 58 416 34 433 11 433 c 1
 11 447 l 1
 206 447 l 1
 206 433 l 1
 143 433 160 395 174 358 c 1
 270 120 l 1
 347 323 l 2
 378 402 387 433 329 433 c 1
 329 447 l 1
 467 447 l 1
 467 433 l 1
EndSplineSet
MinimumDistance: x13,0 x6,9 
EndChar
StartChar: w
Encoding: 88 119 87
OldEncoding: 119
Width: 721
Flags: W
HStem: 433 14<22 32.8616 188 201 263 275.957 430 464 570 585.896>
DStem: 88 343 210 244 227 -3 260 117 350 310 372 267 260 117 244 -3 372 267 422 343 479 -3 507 123 590 323 647 370 507 123 496 -3
Fore
693 433 m 1
 667 424 656 387 647 370 c 1
 496 -3 l 2
 495 -6 492 -11 488 -11 c 0
 485 -11 482 -6 479 -3 c 1
 372 267 l 1
 244 -3 l 2
 243 -6 238 -11 235 -11 c 0
 232 -11 229 -6 227 -3 c 2
 88 343 l 1
 63 406 58 433 22 433 c 1
 22 447 l 1
 201 447 l 1
 201 433 l 1
 175 435 155 430 155 399 c 0
 155 375 200 270 210 244 c 2
 260 117 l 1
 350 310 l 1
 324 396 312 433 263 433 c 1
 263 447 l 1
 464 447 l 1
 464 433 l 1
 396 435 396 413 422 343 c 1
 507 123 l 1
 590 323 l 1
 622 402 628 433 570 433 c 1
 570 447 l 1
 693 447 l 1
 693 433 l 1
EndSplineSet
MinimumDistance: x25,0 
EndChar
StartChar: x
Encoding: 89 120 88
OldEncoding: 120
Width: 499
Flags: W
HStem: 0 14<17 28.9694 163 163 278 290.333 468.171 478.969> 433 14<25 232 276 432.969>
DStem: 204 230 221 197 97 77 149 84 221 197 269 270 324 49 390 84
Fore
479 0 m 1
 278 0 l 1
 278 14 l 1
 315 17 341 26 324 49 c 2
 221 197 l 1
 149 84 l 2
 111 25 111 14 163 14 c 1
 163 0 l 1
 17 0 l 1
 17 14 l 1
 54 14 71 40 97 77 c 2
 204 230 l 1
 118 362 l 1
 94 398 89 430 25 433 c 1
 25 447 l 1
 232 447 l 1
 232 433 l 1
 197 433 189 419 189 407 c 0
 189 392 238 318 249 301 c 1
 263 323 316 384 316 410 c 0
 316 430 290 433 276 433 c 1
 276 447 l 1
 433 447 l 1
 433 433 l 1
 396 433 366 407 346 379 c 2
 269 270 l 1
 390 84 l 2
 416 45 444 14 479 14 c 1
 479 0 l 1
EndSplineSet
MinimumDistance: x9,6 x2,27 
EndChar
StartChar: y
Encoding: 90 121 89
OldEncoding: 121
Width: 499
Flags: W
HStem: -217 100<83 103> 433 14<15 221 341 476>
DStem: 71 390 174 367 241 25 287 114
Fore
476 433 m 1
 456 433 433 399 424 376 c 2
 276 -8 l 2
 247 -83 203 -217 103 -217 c 0
 77 -217 51 -207 37 -184 c 1
 31 -169 28 -155 35 -140 c 0
 43 -123 65 -117 83 -117 c 0
 98 -117 120 -127 143 -134 c 0
 170 -140 194 -117 230 -23 c 0
 237 -8 246 14 241 25 c 2
 71 390 l 1
 60 416 45 430 15 433 c 1
 15 447 l 1
 221 447 l 1
 221 433 l 1
 154 433 154 410 174 367 c 2
 287 114 l 1
 386 392 l 1
 393 410 390 430 341 433 c 1
 341 447 l 1
 476 447 l 1
 476 433 l 1
EndSplineSet
MinimumDistance: x11,14 
EndChar
StartChar: z
Encoding: 91 122 90
OldEncoding: 122
Width: 443
Flags: W
HStem: 0 31<134 404> 416 31<57 293>
DStem: 293 416 404 433 25 14 134 31
Fore
418 135 m 1
 404 0 l 1
 25 0 l 1
 25 14 l 1
 293 416 l 1
 167 416 l 2
 81 416 77 384 71 330 c 1
 54 330 l 1
 57 447 l 1
 404 447 l 1
 404 433 l 1
 134 31 l 1
 260 31 l 2
 289 31 319 31 347 43 c 1
 387 54 390 106 399 140 c 1
 418 135 l 1
EndSplineSet
EndChar
StartChar: braceleft
Encoding: 92 123 91
OldEncoding: 123
Width: 479
Flags: W
VStem: 186 72<-45 145 363 561>
Fore
341 -164 m 1
 227 -167 186 -140 186 -17 c 2
 186 143 l 2
 186 209 177 240 111 257 c 1
 172 275 186 307 186 370 c 2
 186 544 l 2
 186 662 241 682 341 682 c 1
 276 665 258 627 258 559 c 2
 258 384 l 2
 258 313 246 275 177 257 c 1
 249 238 258 194 258 121 c 2
 258 -43 l 2
 258 -111 278 -152 341 -164 c 1
EndSplineSet
EndChar
StartChar: bar
Encoding: 93 124 92
OldEncoding: 124
Width: 199
Flags: W
HStem: 0 21G<68 132>
VStem: 68 64<0 682>
Fore
132 0 m 1
 68 0 l 1
 68 682 l 1
 132 682 l 1
 132 0 l 1
EndSplineSet
EndChar
StartChar: braceright
Encoding: 94 125 93
OldEncoding: 125
Width: 479
Flags: W
VStem: 223 70<-45 157 363 561>
Fore
370 257 m 1
 304 240 293 209 293 143 c 2
 293 -17 l 2
 293 -140 252 -167 140 -164 c 1
 203 -152 223 -111 223 -43 c 2
 223 121 l 2
 223 194 230 238 303 257 c 1
 233 275 223 313 223 384 c 2
 223 559 l 2
 223 627 204 665 140 682 c 1
 240 682 293 662 293 544 c 2
 293 370 l 2
 293 307 307 275 370 257 c 1
EndSplineSet
EndChar
StartChar: asciitilde
Encoding: 95 126 94
OldEncoding: 126
Width: 540
Flags: W
HStem: 198 63<381 393.352> 267 65<146.62 161>
Fore
522 307 m 1
 493 253 445 198 381 198 c 0
 304 198 229 267 160 267 c 0
 104 267 77 217 54 177 c 1
 18 217 l 1
 49 270 89 332 160 332 c 0
 229 332 329 261 382 261 c 0
 427 261 467 309 487 347 c 1
 522 307 l 1
EndSplineSet
EndChar
StartChar: uni0E10.descless
Encoding: 96 63232 95
OldEncoding: 128
Width: 484
Flags: HW
HStem: -8 43<278 287> 319 38<112 131>
VStem: 170 71<90.4185 190> 315 73<77 334>
DStem: 27 439 77 472 287 370 341 401
Fore
431 571 m 0
 400 461 295 490 277 496 c 0
 219 515 179 526 149 526 c 0
 111 526 92 508 77 472 c 1
 341 401 l 1
 356 393 388 392 388 332 c 2
 388 106 l 2
 388 41 353 -8 278 -8 c 0
 216 -8 170 45 170 106 c 2
 171 190 l 1
 155 187 144 191 129 195 c 0
 96 204 52 241 47 287 c 0
 44 321 67 357 114 357 c 0
 191 358 241 319 241 270 c 2
 241 78 l 2
 241 58 254 35 278 35 c 0
 303 35 315 58 315 77 c 2
 315 321 l 2
 315 353 309 364 287 370 c 2
 27 439 l 1
 38 478 71 598 175 594 c 0
 221 594 299 560 358 560 c 0
 383 560 403 566 418 582 c 0
 426 591 435 587 431 571 c 0
144 229 m 0
 173 229 181 252 175 274 c 0
 169 296 148 319 120 319 c 0
 92 319 84 296 90 274 c 0
 96 252 116 229 144 229 c 0
EndSplineSet
KernsSLIF: 177 44 0 0 181 44 0 0 182 44 0 0 183 44 0 0 180 44 0 0
EndChar
StartChar: uni0E34.left
Encoding: 97 63233 96
OldEncoding: 129
Width: 0
Flags: HW
Fore
-243 654 m 1
 -267 667 -383 722 -453 731 c 0
 -546 746 -628 733 -646 728 c 1
 -620 834 -538 900 -440 892 c 0
 -331 885 -251 796 -243 654 c 1
-293 719 m 1
 -323 803 -372 834 -443 843 c 0
 -503 851 -555 820 -577 779 c 1
 -577 779 -508 785 -443 773 c 0
 -353 756 -293 719 -293 719 c 1
EndSplineSet
EndChar
StartChar: uni0E35.left
Encoding: 98 63234 97
OldEncoding: 130
Width: 0
Flags: HW
VStem: -331 64<852 951>
Fore
-243 654 m 1
 -267 667 -383 720 -453 731 c 0
 -549 746 -628 733 -646 728 c 1
 -626 820 -546 900 -448 892 c 0
 -415 891 -371 883 -331 852 c 1
 -331 951 l 1
 -267 951 l 1
 -267 762 l 1
 -267 762 -248 720 -243 654 c 1
-293 719 m 1
 -323 803 -372 834 -443 843 c 0
 -503 851 -555 820 -577 779 c 1
 -577 779 -508 785 -443 773 c 0
 -353 756 -293 719 -293 719 c 1
EndSplineSet
EndChar
StartChar: uni0E36.left
Encoding: 99 63235 98
OldEncoding: 131
Width: 0
Flags: HW
HStem: 780 42<-291 -275> 905 43<-324 -313>
Back
-198 892 m 4
 -158 889 -135 877 -135 877 c 5
-60 783 m 5
 -60 783 -43 733 -62 654 c 5
-141 864 m 0
 -142 910 -107 948 -62 948 c 0
 -18 948 17 910 18 864 c 0
 18 818 -18 779 -63 779 c 0
 -107 779 -141 818 -141 864 c 0
EndSplineSet
Fore
-291 822 m 0
 -266 822 -259 842 -265 863 c 0
 -270 884 -289 905 -315 905 c 0
 -340 905 -346 885 -341 864 c 0
 -335 843 -316 822 -291 822 c 0
-293 719 m 17
 -323 803 -372 834 -443 843 c 0
 -503 851 -555 820 -577 779 c 1
 -577 779 -508 785 -443 773 c 0
 -353 756 -293 719 -293 719 c 17
-243 654 m 1
 -267 667 -383 720 -453 731 c 0
 -549 746 -628 733 -646 728 c 1
 -626 822 -542 900 -445 892 c 0
 -405 889 -384 879 -384 879 c 1
 -386 908 -377 948 -323 948 c 0
 -278 948 -233 904 -222 865 c 0
 -211 825 -229 779 -275 780 c 1
 -275 780 -248 735 -243 654 c 1
EndSplineSet
EndChar
StartChar: uni0E37.left
Encoding: 100 63236 99
OldEncoding: 132
Width: 0
Flags: HW
VStem: -327 56<845 951>
Fore
-243 654 m 1
 -267 667 -383 720 -453 731 c 0
 -549 746 -628 733 -646 728 c 1
 -617 851 -516 902 -443 889 c 1
 -441 951 l 1
 -388 951 l 1
 -387 877 l 1
 -355 869 -327 845 -327 845 c 1
 -327 951 l 1
 -271 951 l 1
 -268 763 l 1
 -268 763 -246 723 -243 654 c 1
-293 719 m 1
 -323 803 -372 834 -443 843 c 0
 -503 851 -555 820 -577 779 c 1
 -577 779 -508 785 -443 773 c 0
 -353 756 -293 719 -293 719 c 1
EndSplineSet
EndChar
StartChar: ellipsis
Encoding: 101 8230 100
OldEncoding: 133
Width: 951
Flags: HW
VStem: 106 108<34 51> 422 111<34 51> 740 108<34 51>
CounterMasks: 1 00
Fore
848 45 m 0
 848 45 l 0
 848 12 823 -14 793 -14 c 0
 763 -14 740 14 740 45 c 0
 740 74 765 101 793 101 c 0
 822 101 848 75 848 45 c 0
532 45 m 0
 532 45 l 0
 532 12 505 -14 476 -14 c 0
 445 -14 422 14 422 45 c 0
 422 74 446 101 476 101 c 0
 505 101 532 75 532 45 c 0
214 45 m 0
 214 12 189 -14 158 -14 c 0
 129 -14 106 14 106 45 c 0
 106 74 131 101 158 101 c 0
 188 101 214 75 214 45 c 0
EndSplineSet
EndChar
StartChar: uni0E48.low_left
Encoding: 102 63237 101
OldEncoding: 134
Width: 0
Flags: HW
VStem: -337 72<685 926>
Fore
-265 926 m 1
 -265 685 l 1
 -337 685 l 5
 -337 926 l 1
 -265 926 l 1
EndSplineSet
EndChar
StartChar: uni0E49.low_left
Encoding: 103 63238 102
OldEncoding: 135
Width: 0
Flags: HW
HStem: 902 36<-538 -528>
Back
-379 703 m 5
 -370 707 -309 734 -279 780 c 5
-196 857 m 5
 -222 765 -293 716 -293 716 c 5
-360 857 m 0
 -360 901 -329 937 -278 937 c 0
 -233 937 -196 901 -196 857 c 0
 -197 813 -234 777 -279 777 c 0
 -336 777 -361 813 -360 857 c 0
EndSplineSet
Fore
-464 906 m 0
 -432 875 -429 843 -432 824 c 0
 -446 754 -492 716 -492 716 c 1
 -491 714 l 1
 -431 723 -304 766 -296 931 c 1
 -218 931 l 17
 -262 637 -545 667 -574 670 c 1
 -574 703 l 1
 -566 707 -511 736 -497 778 c 1
 -497 778 -502 777 -518 780 c 0
 -559 786 -588 820 -598 854 c 0
 -609 895 -592 938 -535 938 c 0
 -509 938 -478 919 -464 906 c 0
-504 811 m 0
 -476 811 -468 833 -474 856 c 0
 -480 879 -501 902 -530 902 c 0
 -559 902 -568 880 -561 857 c 0
 -555 834 -534 811 -504 811 c 0
EndSplineSet
EndChar
StartChar: uni0E4A.low_left
Encoding: 104 63239 103
OldEncoding: 136
Width: 0
Flags: HW
HStem: 666 21G<-548.5 -488> 849 54<-532.51 -522>
Back
-288 849 m 5
 -323 849 -361 806 -366 768 c 5
-338 667 m 4
 -398 667 -420 720 -400 793 c 4
 -386 843 -323 903 -273 903 c 5
-386 733 m 0
 -385 771 -359 801 -323 801 c 0
 -281 801 -256 771 -257 733 c 0
 -256 695 -280 667 -322 667 c 0
 -359 667 -385 695 -386 733 c 0
EndSplineSet
Fore
-235 906 m 17
 -227 768 -295 684 -416 670 c 1
 -416 694 l 1
 -391 710 -379 744 -379 776 c 0
 -379 810 -393 842 -418 849 c 1
 -472 811 l 1
 -523 849 l 1
 -558 849 -577 810 -579 788 c 1
 -579 788 -574 800 -541 800 c 0
 -502 800 -471 770 -460 734 c 0
 -448 690 -470 666 -506 666 c 0
 -591 666 -620 720 -620 793 c 0
 -620 843 -573 903 -523 903 c 1
 -523 903 -472 857 -470 857 c 2
 -419 902 l 1
 -352 884 -333 839 -333 797 c 0
 -333 771 -341 745 -349 728 c 1
 -295 766 -279 834 -296 906 c 1
 -235 906 l 17
-489 733 m 0
 -496 758 -518 770 -536 770 c 0
 -554 770 -568 758 -561 733 c 0
 -554 708 -533 696 -515 696 c 0
 -497 696 -482 708 -489 733 c 0
EndSplineSet
EndChar
StartChar: uni0E4B.low_left
Encoding: 105 63240 104
OldEncoding: 137
Width: 0
Flags: HW
HStem: 776 58<-498 -388 -330 -222>
VStem: -391 61<836 935>
DStem: -409 836 -346 836 -522 834 -233 834
Fore
-222 777 m 1
 -331 776 l 1
 -333 676 l 1
 -387 676 l 1
 -388 776 l 1
 -498 777 l 1
 -498 834 l 1
 -390 836 l 1
 -391 935 l 1
 -328 935 l 1
 -330 836 l 1
 -222 834 l 1
 -222 777 l 1
EndSplineSet
MinimumDistance: x8,9 
EndChar
StartChar: uni0E4C.low_left
Encoding: 106 63241 105
OldEncoding: 138
Width: 0
Flags: HW
HStem: 670 33<-403 -393>
Back
49 954 m 4
 9 846 -121 823 -153 817 c 6
-284 748 m 4
 -273 786 -249 831 -143 860 c 4
-283 746 m 0
 -283 788 -250 820 -208 820 c 0
 -148 820 -131 786 -131 746 c 0
 -131 698 -165 670 -207 670 c 0
 -249 670 -284 704 -283 746 c 0
EndSplineSet
Fore
-216 954 m 17
 -226 846 -349 825 -358 822 c 0
 -372 817 -399 815 -399 815 c 1
 -365 805 -347 778 -338 746 c 0
 -323 694 -354 670 -395 670 c 0
 -440 670 -480 709 -490 746 c 0
 -502 788 -479 831 -381 860 c 0
 -334 876 -281 906 -284 968 c 1
 -216 954 l 17
-401 703 m 0
 -373 703 -366 724 -371 746 c 0
 -377 767 -397 788 -425 788 c 0
 -453 788 -461 767 -455 746 c 0
 -449 724 -429 703 -401 703 c 0
EndSplineSet
EndChar
StartChar: uni0E48.low
Encoding: 107 63242 106
OldEncoding: 139
Width: 0
Flags: HW
HStem: 670 21G<-171 -99>
VStem: -171 72<670 914>
AnchorPoint: "AboveBase" -101.077 645.12 mark 0
Fore
-99 914 m 1
 -99 670 l 1
 -171 670 l 5
 -171 914 l 1
 -99 914 l 1
EndSplineSet
Substitution: 0 65534 'amni' uni0E4D
EndChar
StartChar: uni0E49.low
Encoding: 108 63243 107
OldEncoding: 140
Width: 0
Flags: HW
HStem: 919 37<-315 -301>
AnchorPoint: "AboveBase" -101.075 645.12 mark 0
Back
-151 705 m 5
 -143 708 -81 733 -49 780 c 5
40 866 m 4
 12 765 -66 716 -66 716 c 5
-140 866 m 0
 -140 917 -101 956 -52 956 c 0
 2 956 38 918 38 866 c 0
 38 815 -3 774 -52 774 c 0
 -100 774 -140 815 -140 866 c 0
EndSplineSet
Fore
-223 908 m 0
 -201 878 -194 842 -201 822 c 0
 -225 744 -265 716 -265 716 c 1
 -263 716 l 1
 -263 716 -66 722 -58 952 c 1
 19 952 l 17
 -10 636 -315 667 -347 670 c 1
 -347 705 l 1
 -339 708 -288 730 -268 775 c 1
 -270 774 l 1
 -270 774 -283 774 -298 780 c 0
 -340 794 -370 830 -380 866 c 0
 -392 911 -374 956 -313 956 c 0
 -278 956 -244 935 -223 908 c 0
-278 813 m 0
 -244 813 -234 840 -241 866 c 0
 -249 892 -273 919 -308 919 c 0
 -341 919 -350 892 -343 866 c 0
 -335 840 -311 813 -278 813 c 0
EndSplineSet
Substitution: 0 65534 'amni' uni0E4D
EndChar
StartChar: uni0E4A.low
Encoding: 109 63244 108
OldEncoding: 141
Width: 0
Flags: HW
HStem: 666 21G<-364 -295> 876 56<-338 -333>
VStem: -440 41<794 809>
AnchorPoint: "AboveBase" -101.075 645.12 mark 0
Back
-93 876 m 5
 -131 876 -181 816 -182 777 c 5
-151 668 m 4
 -217 668 -237 733 -216 809 c 4
 -201 862 -132 931 -75 932 c 5
-201 740 m 0
 -200 781 -171 814 -131 814 c 0
 -92 814 -59 781 -60 740 c 0
 -60 699 -92 667 -132 667 c 0
 -171 667 -201 699 -201 740 c 0
EndSplineSet
Fore
-355 814 m 0
 -319 814 -277 782 -265 740 c 0
 -256 706 -272 666 -318 666 c 0
 -410 666 -440 733 -440 809 c 0
 -440 862 -390 931 -333 932 c 1
 -331 931 -276 883 -274 883 c 2
 -216 932 l 1
 -139 909 -121 857 -121 813 c 0
 -121 773 -136 739 -136 739 c 1
 -134 739 l 2
 -87 770 -47 852 -65 926 c 1
 8 926 l 17
 9 799 -62 691 -213 670 c 1
 -213 699 l 1
 -184 718 -170 756 -170 792 c 0
 -170 831 -185 867 -214 876 c 1
 -276 831 l 1
 -282 836 -336 876 -336 876 c 1
 -374 876 -399 824 -399 794 c 1
 -399 794 -388 814 -355 814 c 0
-298 739 m 0
 -306 768 -330 782 -349 782 c 0
 -369 782 -385 768 -377 739 c 0
 -369 712 -346 698 -326 698 c 0
 -306 698 -290 712 -298 739 c 0
EndSplineSet
Substitution: 0 65534 'amni' uni0E4D
EndChar
StartChar: uni0E4B.low
Encoding: 110 63245 109
OldEncoding: 142
Width: 0
Flags: HW
HStem: 777 62<-276 -167 -106 0>
VStem: -170 64<840 942>
DStem: -177 840 -111 840 -289 839 0 839
AnchorPoint: "AboveBase" -101.077 645.12 mark 0
Fore
0 779 m 1
 -107 777 l 1
 -109 677 l 1
 -166 677 l 1
 -167 777 l 1
 -276 779 l 1
 -276 839 l 1
 -169 840 l 1
 -170 942 l 1
 -104 942 l 1
 -106 840 l 1
 0 839 l 1
 0 779 l 1
EndSplineSet
MinimumDistance: x8,9 
Substitution: 0 65534 'amni' uni0E4D
EndChar
StartChar: uni0E4C.low
Encoding: 111 63246 110
OldEncoding: 143
Width: 0
Flags: HW
HStem: 668 39<-190 -177>
AnchorPoint: "AboveBase" -101.075 645.12 mark 0
Back
263 949 m 4
 215 854 100 833 65 826 c 6
-72 754 m 4
 -61 793 -38 837 72 871 c 4
 126 888 175 917 200 971 c 5
-73 750 m 0
 -74 795 -37 831 8 831 c 0
 61 831 91 800 91 750 c 0
 91 705 54 668 9 668 c 0
 -40 668 -73 705 -73 750 c 0
EndSplineSet
Fore
-0 949 m 17
 -22 854 -129 835 -163 826 c 8
 -170 824 -182 824 -182 824 c 1
 -148 811 -126 784 -117 751 c 0
 -105 706 -130 668 -179 668 c 0
 -234 668 -271 715 -282 754 c 0
 -294 796 -270 837 -170 871 c 0
 -120 888 -79 917 -69 971 c 1
 -0 949 l 17
-185 707 m 0
 -159 707 -151 729 -157 750 c 0
 -163 772 -183 794 -209 794 c 0
 -239 794 -248 772 -242 750 c 0
 -236 729 -215 707 -185 707 c 0
EndSplineSet
EndChar
StartChar: uni0E0D.descless
Encoding: 112 63247 111
OldEncoding: 144
Width: 762
Flags: HW
HStem: -10 42<206 224> 392 44<93 123 93 255> 574 20G<588 662>
VStem: 91 77<165 326> 377 73<98 413> 588 74<98 594>
Fore
662 104 m 2
 662 54 602 -8 517 -8 c 0
 435 -8 377 48 377 112 c 2
 377 407 l 1
 376 506 314 547 247 547 c 0
 180 547 110 505 93 436 c 1
 255 436 l 1
 255 392 l 1
 245 392 208 392 208 392 c 2
 166 392 168 354 168 352 c 2
 168 165 l 1
 177 165 l 0
 234 165 275 122 287 78 c 0
 300 34 283 -10 224 -10 c 0
 131 -10 91 69 91 109 c 2
 91 324 l 2
 91 375 123 392 123 392 c 1
 43 392 l 1
 47 527 153 598 256 598 c 0
 351 598 443 539 450 413 c 1
 450 101 l 2
 450 61 478 29 519 29 c 0
 561 29 588 60 588 100 c 2
 588 594 l 1
 662 594 l 1xfe
 662 104 l 2
214 32 m 0
 244 32 253 55 247 77 c 0
 241 99 220 121 190 121 c 0
 162 121 153 98 160 76 c 0
 166 54 186 32 214 32 c 0
EndSplineSet
EndChar
StartChar: quoteleft
Encoding: 113 8216 112
OldEncoding: 145
Width: 317
Flags: HW
VStem: 82 50<565 588>
Fore
232 524 m 0
 232 482 208 456 167 456 c 0
 107 456 82 515 82 565 c 0
 82 630 144 700 202 728 c 1
 216 700 l 1
 180 679 132 624 132 588 c 0
 132 582 131 578 136 578 c 0
 144 578 153 587 172 585 c 0
 204 584 232 561 232 524 c 0
EndSplineSet
EndChar
StartChar: quoteright
Encoding: 114 8217 113
OldEncoding: 146
Width: 317
Flags: HW
VStem: 185 50<594 617>
Fore
85 659 m 0
 85 700 109 727 150 727 c 0
 210 727 235 668 235 617 c 0
 235 553 173 482 114 455 c 1
 101 482 l 1
 136 504 185 559 185 594 c 0
 185 601 186 605 180 605 c 0
 173 605 164 596 145 598 c 0
 113 599 85 622 85 659 c 0
EndSplineSet
EndChar
StartChar: quotedblleft
Encoding: 115 8220 114
OldEncoding: 147
Width: 451
Flags: HW
VStem: 24 50<565 588> 259 50<565 588>
Fore
409 524 m 0
 409 482 385 456 344 456 c 0
 284 456 259 515 259 565 c 0
 259 630 320 700 380 728 c 1
 393 700 l 1
 358 679 309 624 309 588 c 0
 309 582 308 578 314 578 c 0
 320 578 330 587 349 585 c 0
 381 584 409 561 409 524 c 0
173 524 m 0
 173 482 150 456 109 456 c 0
 49 456 24 515 24 565 c 0
 24 630 85 700 144 728 c 1
 156 700 l 1
 121 679 73 624 73 588 c 0
 73 582 72 578 77 578 c 0
 85 578 93 587 113 585 c 0
 145 584 173 561 173 524 c 0
EndSplineSet
EndChar
StartChar: quotedblright
Encoding: 116 8221 115
OldEncoding: 148
Width: 451
Flags: HW
VStem: 41 150<617 659> 140 51<594 617> 277 150<617 659> 377 50<594 617>
Fore
41 659 m 0
 41 700 65 727 106 727 c 0
 166 727 191 668 191 617 c 0x80
 191 553 129 482 71 455 c 1
 57 482 l 1
 93 504 140 559 140 594 c 0x40
 140 601 142 605 136 605 c 0
 129 605 120 596 101 598 c 0
 69 599 41 622 41 659 c 0
277 659 m 0x20
 277 700 300 727 341 727 c 0
 402 727 426 668 426 617 c 0x20
 426 553 364 482 306 455 c 1
 293 482 l 1
 328 504 377 559 377 594 c 0x10
 377 601 378 605 372 605 c 0
 364 605 356 596 337 598 c 0
 304 599 277 622 277 659 c 0x20
EndSplineSet
EndChar
StartChar: bullet
Encoding: 117 8226 116
OldEncoding: 149
Width: 367
Flags: HW
HStem: 430 20G<149 218>
Fore
308 319 m 0
 308 247 254 189 183 189 c 0
 115 189 60 247 60 319 c 0
 58 392 114 450 183 450 c 0
 254 450 308 392 308 319 c 0
EndSplineSet
EndChar
StartChar: endash
Encoding: 118 8211 117
OldEncoding: 150
Width: 732
Flags: HW
HStem: 214 47<32 700>
Fore
700 214 m 1
 32 214 l 1
 32 261 l 1
 700 261 l 1
 700 214 l 1
EndSplineSet
EndChar
StartChar: emdash
Encoding: 119 8212 118
OldEncoding: 151
Width: 1464
Flags: HW
HStem: 214 47<21 1444>
Fore
1444 214 m 1
 21 214 l 1
 21 261 l 1
 1444 261 l 1
 1444 214 l 1
EndSplineSet
EndChar
StartChar: uni0E31.left
Encoding: 120 63248 119
OldEncoding: 152
Width: 0
Flags: HW
HStem: 871 41<-407 -394>
Back
-109 677 m 4
 -210 677 -292 720 -297 800 c 4
315 908 m 0
 171 628 -244 616 -245 800 c 0
-138 745 m 1
 27 682 196 816 231 908 c 1
-241 824 m 0
 -241 873 -209 912 -155 912 c 0
 -103 912 -69 872 -69 824 c 0
 -70 775 -108 736 -156 736 c 0
 -203 736 -242 775 -241 824 c 0
EndSplineSet
Fore
63 908 m 17
 26 750 -123 677 -253 677 c 0
 -354 677 -450 717 -471 815 c 0
 -482 867 -471 912 -407 912 c 0
 -367 912 -315 882 -299 826 c 0
 -280 758 -332 742 -332 742 c 1
 -304 733 -277 728 -251 728 c 0
 -123 728 -29 831 -21 908 c 1
 63 908 l 17
-370 780 m 0
 -342 780 -335 803 -341 826 c 0
 -347 848 -368 871 -396 871 c 0
 -426 871 -434 848 -428 826 c 0
 -422 803 -400 780 -370 780 c 0
EndSplineSet
EndChar
StartChar: uni0E4D.left
Encoding: 121 63249 120
OldEncoding: 153
Width: 0
Flags: HW
HStem: 676 41<-321 -308> 820 43<-360 -346>
Fore
-308 676 m 0
 -368 676 -411 723 -424 770 c 0
 -437 816 -420 863 -360 863 c 0
 -301 863 -258 816 -245 769 c 0
 -232 722 -249 676 -308 676 c 0
-319 717 m 0
 -286 717 -277 742 -284 768 c 0
 -291 794 -315 820 -348 820 c 0
 -382 820 -392 795 -385 769 c 0
 -378 743 -353 717 -319 717 c 0
EndSplineSet
EndChar
StartChar: uni0E47.left
Encoding: 122 63250 121
OldEncoding: 154
Width: 0
Flags: HW
HStem: 745 55<-471 -462>
Back
-318 753 m 5
 -318 753 -297 800 -247 800 c 4
 -197 800 -190 746 -168 734 c 5
-119 668 m 4
 -215 668 -206 745 -255 745 c 4
 -304 745 -314 684 -306 668 c 5
-170 744 m 0
 -169 792 -139 820 -100 820 c 0
 -60 820 -29 788 -30 744 c 0
 -30 700 -61 668 -100 668 c 0
 -139 668 -169 702 -170 744 c 0
EndSplineSet
Fore
-224 995 m 17
 -224 895 -271 837 -422 868 c 0
 -484 880 -527 882 -538 822 c 0
 -544 794 -535 763 -527 753 c 1
 -527 753 -519 800 -469 800 c 0
 -419 800 -397 746 -372 734 c 1
 -372 734 -373 740 -375 748 c 0
 -389 797 -362 820 -328 820 c 0
 -293 820 -249 795 -236 745 c 0
 -222 695 -255 667 -285 667 c 0
 -409 667 -413 745 -462 745 c 0
 -511 745 -504 684 -491 668 c 1
 -525 668 l 1
 -566 702 -598 773 -580 846 c 0
 -570 891 -527 952 -407 923 c 0
 -328 905 -287 911 -292 995 c 1
 -224 995 l 17
-270 745 m 0
 -277 771 -298 784 -316 784 c 0
 -334 784 -349 771 -342 745 c 0
 -335 720 -313 708 -295 708 c 0
 -277 708 -263 720 -270 745 c 0
EndSplineSet
EndChar
StartChar: uni0E48.left
Encoding: 123 63251 122
OldEncoding: 155
Width: 0
Flags: HW
VStem: -337 72<1006 1226>
Fore
-265 1226 m 1
 -265 1006 l 1
 -337 1006 l 1
 -337 1226 l 1
 -265 1226 l 1
EndSplineSet
EndChar
StartChar: uni0E49.left
Encoding: 124 63252 123
OldEncoding: 156
Width: 0
Flags: HW
HStem: 1085 34<-347 -343> 1203 36<-379 -368>
Fore
-343 1085 m 1
 -350 1085 -347 1085 -362 1088 c 0
 -399 1098 -424 1128 -433 1159 c 0
 -444 1199 -428 1239 -377 1239 c 0
 -337 1239 -289 1203 -281 1154 c 0
 -281 1072 -336 1035 -336 1035 c 1
 -336 1032 l 1
 -233 1038 -154 1098 -145 1229 c 1
 -73 1229 l 1
 -91 1044 -208 943 -416 997 c 1
 -416 1026 l 1
 -391 1034 -359 1053 -343 1085 c 1
-346 1119 m 0
 -319 1119 -312 1140 -317 1161 c 0
 -323 1182 -343 1203 -370 1203 c 0
 -398 1203 -407 1182 -401 1161 c 0
 -395 1140 -375 1119 -346 1119 c 0
EndSplineSet
EndChar
StartChar: uni0E4A.left
Encoding: 125 63253 124
OldEncoding: 157
Width: 0
Flags: HW
HStem: 1175 54<-368 -364>
AnchorPoint: "AboveMark" -294.542 970.68 mark 0
Fore
-462 1118 m 0
 -462 1169 -415 1229 -364 1229 c 1
 -364 1229 -314 1183 -312 1183 c 2
 -260 1229 l 1
 -194 1211 -175 1166 -175 1124 c 0
 -175 1097 -183 1071 -191 1054 c 1
 -136 1092 -121 1157 -137 1229 c 1
 -76 1229 l 17
 -69 1091 -142 1012 -257 995 c 1
 -257 1020 l 1
 -232 1036 -220 1069 -220 1101 c 0
 -220 1135 -234 1168 -259 1175 c 1
 -314 1137 l 1
 -365 1175 l 1
 -400 1175 -420 1136 -422 1112 c 1
 -422 1112 -408 1135 -366 1124 c 0
 -339 1117 -309 1089 -302 1059 c 0
 -292 1018 -310 991 -351 991 c 0
 -430 991 -462 1046 -462 1118 c 0
-331 1058 m 0
 -338 1083 -360 1096 -378 1096 c 0
 -396 1096 -410 1083 -403 1058 c 0
 -396 1033 -375 1020 -357 1020 c 0
 -339 1020 -324 1033 -331 1058 c 0
EndSplineSet
EndChar
StartChar: uni0E4B.left
Encoding: 126 63254 125
OldEncoding: 158
Width: 0
Flags: HW
HStem: 1080 58<-431 -328 -270 -172>
VStem: -331 61<1140 1229>
DStem: -346 1140 -283 1140 -452 1138 -180 1138
Fore
-172 1081 m 1
 -271 1080 l 1
 -273 992 l 1
 -327 992 l 1
 -328 1080 l 1
 -431 1081 l 1
 -431 1138 l 1
 -330 1140 l 1
 -331 1229 l 1
 -268 1229 l 1
 -270 1140 l 1
 -172 1138 l 1
 -172 1081 l 1
EndSplineSet
MinimumDistance: x8,9 
EndChar
StartChar: uni0E4C.left
Encoding: 127 63255 126
OldEncoding: 159
Width: 0
Flags: HW
HStem: 923 29<-296 -280>
Fore
-261 1103 m 0
 -237 1107 -158 1140 -155 1193 c 1
 -95 1164 l 17
 -128 1061 -287 1061 -280 1057 c 0
 -253 1042 -236 1019 -229 995 c 0
 -219 959 -236 923 -284 923 c 0
 -328 923 -369 961 -375 1004 c 0
 -383 1062 -329 1091 -261 1103 c 0
-289 952 m 0
 -263 952 -255 972 -261 993 c 0
 -267 1014 -286 1035 -313 1035 c 0
 -340 1035 -347 1015 -342 994 c 0
 -336 973 -316 952 -289 952 c 0
EndSplineSet
EndChar
StartChar: uni0E01
Encoding: 129 3585 128
OldEncoding: 161
Width: 574
Flags: W
HStem: 0 21G<91 167 402 476> 392 44<93 123 93 255> 550 49<250 271>
VStem: 91 76<0 341> 402 74<0 413>
Fore
476 0 m 1
 402 0 l 1
 402 407 l 2
 402 506 333 550 259 550 c 0
 188 550 113 509 93 436 c 1
 255 436 l 1
 255 392 l 1
 245 392 208 392 208 392 c 2
 167 392 167 343 167 341 c 2
 167 0 l 1
 91 0 l 1
 91 324 l 2
 91 373 123 392 123 392 c 1
 43 392 l 1
 43 527 158 599 269 599 c 0
 370 599 469 539 476 413 c 1
 476 0 l 1
EndSplineSet
EndChar
StartChar: uni0E02
Encoding: 130 3586 129
OldEncoding: 162
Width: 557
Flags: HW
HStem: -8 43<342 348> 319 33<122 138> 547 51<151 164>
VStem: 224 76<90.2068 470> 385 75<77 594>
Back
68 465 m 1
 78 473 87 470 97 470 c 0
 187 467 233 324 138 319 c 0
 62 315 19 393 25 465 c 0
EndSplineSet
Fore
159 597 m 0
 249 598 300 531 300 449 c 2
 300 78 l 2
 300 57 318 35 342 35 c 0
 366 35 385 58 385 77 c 2
 385 594 l 1
 460 594 l 1
 460 106 l 2
 460 37 419 -22 342 -8 c 1
 274 -8 224 41 224 106 c 2
 224 453 l 2
 224 505 192 549 145 548 c 0
 91 548 80 506 75 496 c 1
 85 504 87 501 97 501 c 0
 143 499 177 462 187 425 c 0
 197 389 185 352 138 350 c 0
 62 346 10 431 29 497 c 0
 43 544 77 597 159 597 c 0
127 383 m 0
 154 383 162 404 156 425 c 0
 150 447 130 469 103 469 c 0
 74 469 66 448 72 427 c 0
 78 405 99 383 127 383 c 0
EndSplineSet
EndChar
StartChar: uni0E03
Encoding: 131 3587 130
OldEncoding: 163
Width: 604
Flags: HW
HStem: -8 43<378.017 391> 280 32<122 133> 399 34<90 102> 574 20G<431 505>
VStem: 270 75<90.8482 472> 431 74<77 593>
DStem: 109 524 109 593 175 452 175 515 246 591 245 524 175 515 175 452
Fore
110 593 m 1
 175 515 l 1
 246 591 l 1
 309 587 345 536 345 461 c 1
 345 78 l 1
 345 57 360 35 388 35 c 0
 415 35 431 58 431 77 c 2
 431 594 l 1
 505 594 l 1
 505 106 l 2
 505 39 464 -17 388 -8 c 1
 319 -8 270 45 270 106 c 1
 270 461 l 1
 270 495 265 524 245 524 c 1
 175 452 l 1
 110 524 l 1
 81 524 68 484 66 459 c 1
 66 459 58 463 91 463 c 0
 141 463 175 426 186 388 c 0
 196 350 182 311 132 311 c 0
 52 311 1 411 26 498 c 0
 40 548 71 581 110 593 c 1
124 342 m 0
 153 342 162 364 156 386 c 0
 150 407 129 429 100 429 c 0
 73 429 66 408 72 386 c 0
 78 364 98 342 124 342 c 0
EndSplineSet
EndChar
StartChar: uni0E04
Encoding: 132 3588 131
OldEncoding: 164
Width: 561
Flags: HW
HStem: 0 21G<96 172 393 465> 273 36<255 264> 407 37<216 230> 553 46<216 259>
VStem: 33 44<413 427.368> 96 -19<224 413> 96 76<0 231> 393 72<0 417>
Fore
257 309 m 0
 257 309 l 0
 290 309 299 334 293 358 c 0
 286 382 263 407 230 407 c 0
 199 407 190 382 197 358 c 0
 203 334 226 309 257 309 c 0
118 321 m 1
 129 376 137 444 216 444 c 0
 272 444 312 401 324 358 c 0
 335 316 319 273 262 273 c 0
 226 273 181 301 181 301 c 1
 173 280 172 246 172 229 c 2
 172 0 l 1
 96 0 l 1
 96 224 l 2
 96 266 33 310 33 413 c 0
 33 519 123 599 236 599 c 0
 355 599 465 554 465 401 c 2
 465 0 l 1
 393 0 l 1
 393 401 l 2
 393 521 320 553 235 553 c 0
 142 553 77 479 77 413 c 0
 77 369 91 335 118 321 c 1
EndSplineSet
EndChar
StartChar: uni0E05
Encoding: 133 3589 132
OldEncoding: 165
Width: 560
Flags: HW
HStem: 0 21G<96 172 391 464> 273 36<255 264> 407 37<216 230>
VStem: 33 46<413 429.764> 96 -17<229 413> 96 76<0 240> 391 73<0 417>
DStem: 158 538 162 594 246 468 246 524 328 594 331 538 246 524 246 468
Fore
464 0 m 1
 391 0 l 1
 391 399 l 2
 391 458 394 504 331 538 c 1
 246 468 l 1
 158 538 l 1
 125 528 79 479 79 413 c 0
 79 366 95 335 120 321 c 1
 132 390 137 444 216 444 c 0
 272 444 312 401 324 358 c 0
 335 316 319 273 262 273 c 0
 229 273 186 295 186 295 c 1
 175 287 172 267 172 240 c 2
 172 0 l 1
 96 0 l 1
 96 229 l 2
 96 272 33 316 33 413 c 0
 33 530 121 581 162 594 c 1
 246 524 l 1
 328 594 l 1
 363 588 464 551 464 399 c 2
 464 0 l 1
257 309 m 0
 290 309 299 334 293 358 c 0
 286 382 263 407 230 407 c 0
 199 407 190 382 197 358 c 0
 203 334 226 309 257 309 c 0
EndSplineSet
EndChar
StartChar: uni0E06
Encoding: 134 3590 133
OldEncoding: 166
Width: 721
Flags: HW
HStem: 0 21G<544 621> 280 32<125 137> 399 34<93 105> 574 20G<547 621>
VStem: 274 78<68 141 198 472> 547 74<77 594>
DStem: 113 524 113 593 180 452 180 515 251 591 249 524 180 515 180 452
Fore
274 68 m 0
 274 144 l 1
 237 147 220 119 220 91 c 0
 219 75 225 60 235 51 c 0
 245 45 277 40 274 68 c 0
274 461 m 2
 274 495 270 524 249 524 c 1
 180 452 l 1
 113 524 l 1
 84 524 62 482 69 413 c 1
 69 413 61 433 94 433 c 0
 144 433 179 395 190 357 c 0
 201 319 185 280 135 280 c 0
 52 280 14 390 25 470 c 0
 35 545 74 581 113 593 c 1
 180 515 l 1
 251 591 l 1
 314 587 350 536 350 461 c 2
 350 190 l 1
 350 190 476 170 547 77 c 1
 547 594 l 1
 621 594 l 1
 621 0 l 1
 544 0 l 1
 469 134 352 141 352 141 c 1
 353 57 353 -8 271 -8 c 0
 207 -8 176 42 176 92 c 0
 176 145 209 199 274 198 c 1
 274 461 l 2
127 312 m 0
 156 312 165 334 159 356 c 0
 153 377 132 399 103 399 c 0
 76 399 69 378 75 356 c 0
 81 334 101 312 127 312 c 0
EndSplineSet
EndChar
StartChar: uni0E07
Encoding: 135 3591 134
OldEncoding: 167
Width: 416
Flags: HW
HStem: 0 21G<241 320> 418 37<213 229> 556 38<177 195>
VStem: 243 77<98 425>
Fore
320 0 m 1
 241 0 l 1
 34 338 l 1
 35 395 l 1
 244 98 l 1
 243 425 l 1
 238 420 241 418 229 418 c 0
 170 418 128 460 116 504 c 0
 104 548 123 594 188 594 c 0
 304 594 320 501 320 488 c 2
 320 0 l 1
215 455 m 0
 248 455 258 480 251 506 c 0
 244 531 220 556 187 556 c 0
 154 556 145 531 152 506 c 0
 159 480 182 455 215 455 c 0
EndSplineSet
EndChar
StartChar: uni0E08
Encoding: 136 3592 135
OldEncoding: 168
Width: 538
Flags: HW
HStem: -5 43<322 324> 276 40<170 177> 406 41<167 177> 544 54<232 245>
VStem: 205 74<95 286> 364 76<80 428>
Fore
441 109 m 2
 441 43 399 -5 322 -5 c 0
 259 -5 205 48 205 109 c 2
 204 281 l 1
 199 275 202 276 194 276 c 0
 141 276 99 321 88 367 c 0
 79 413 101 447 151 447 c 0
 233 449 279 373 279 326 c 2
 279 81 l 2
 279 60 296 38 322 38 c 0
 350 38 364 61 364 80 c 2
 364 419 l 2
 364 495 309 544 232 544 c 0
 128 544 72 464 62 439 c 1
 31 453 l 1
 52 508 125 598 232 598 c 0
 358 598 441 533 441 413 c 2
 441 109 l 2
183 316 m 0
 212 316 220 338 214 361 c 0
 208 384 187 406 158 406 c 0
 129 406 122 384 128 361 c 0
 134 338 154 316 183 316 c 0
EndSplineSet
EndChar
StartChar: uni0E09
Encoding: 137 3593 136
OldEncoding: 169
Width: 586
Flags: HW
HStem: -8 40<457 470>
VStem: 169 72<0 292> 412 74<172 425>
Back
386 76 m 0
 386 122 423 160 470 160 c 0
 516 160 554 122 554 76 c 0
 554 30 517 -8 470 -8 c 0
 424 -8 386 30 386 76 c 0
EndSplineSet
Fore
367 123 m 1
 275 97 245 13 240 0 c 1
 169 0 l 1
 169 240 l 1
 117 223 69 270 55 318 c 0
 44 359 57 400 111 404 c 0
 196 411 241 361 241 292 c 2
 241 91 l 1
 248 89 l 1
 248 89 286 166 412 172 c 1
 412 415 l 2
 412 490 349 544 257 544 c 0
 156 544 88 464 76 439 c 1
 46 453 l 1
 93 553 186 598 274 598 c 0
 384 598 486 530 486 416 c 2
 486 416 487 169 486 167 c 2
 487 155 472 150 472 150 c 1
 473 147 l 1
 505 132 525 104 533 77 c 0
 545 35 526 -8 470 -8 c 0
 438 -8 394 17 373 55 c 0
 356 85 363 117 367 123 c 1
367 123 m 0
149 272 m 0
 177 272 185 295 179 319 c 0
 173 341 152 364 124 364 c 0
 95 364 87 341 93 317 c 0
 99 295 120 272 149 272 c 0
457 32 m 0
 487 32 496 55 490 77 c 0
 484 99 463 121 433 121 c 0
 405 121 396 98 403 76 c 0
 409 54 429 32 457 32 c 0
EndSplineSet
EndChar
StartChar: uni0E0A
Encoding: 138 3594 137
OldEncoding: 170
Width: 556
Flags: HW
HStem: 0 49<161 352> 438 32<95 103> 547 49<143 159>
VStem: 222 77<49 398 450 453> 222 159<421 421.286>
Back
226 319 m 0
 149 315 128 393 154 465 c 0
154 465 m 0
 180 539 242 596 324 596 c 0
339 49 m 2
 421 49 430.004 353.86 353.004 396.86 c 0
 367.891 397.674 329.823 445.623 330 432 c 1
 330 468 l 1
 418 463 460 549 462 609 c 1
 513 591 l 17
 481 447 381 421 381 421 c 1
 500 387 527 -9 375 -7 c 1
348 453 m 2
 361 502 356 547 297 547 c 0
 243 547 199 493 193 450 c 1
 209 467 206 472 227 472 c 0
145 394 m 0
 145 436 179 470 221 470 c 0
 263 470 297 436 297 394 c 0
 298 352 263 318 221 318 c 0
 179 318 146 352 145 394 c 0
EndSplineSet
Fore
402 117 m 2
 402 333 l 2
 402 383 384 409 332 422 c 1
 332 450 l 1
 384 463 402 481 402 531 c 2
 402 594 l 1
 478 594 l 1
 478 582 478 539 478 539 c 2
 478 494 472 443 408 436 c 1
 472 429 478 366 478 321 c 2
 478 105 l 2
 478 65 455 0 378 0 c 2
 161 0 l 1
 161 49 l 1
 222 49 l 1
 222 453 l 2
 222 502 204 547 145 547 c 4
 91 547 80 505 75 495 c 5
 85 503 87 500 97 500 c 4
 143 498 177 461 187 424 c 4
 197 388 185 351 138 349 c 4
 62 345 10 430 29 496 c 4
 43 543 77 596 159 596 c 4
 294 596 300 465 300 451 c 2
 300 451 301 416 300 49 c 1xf0
 315 48 338 49 338 49 c 2
 370 49 402 65 402 117 c 2
127 382 m 4
 154 382 162 403 156 424 c 4
 150 446 130 468 103 468 c 4
 74 468 66 447 72 426 c 4
 78 404 99 382 127 382 c 4
EndSplineSet
EndChar
StartChar: uni0E0B
Encoding: 139 3595 138
OldEncoding: 171
Width: 618
Flags: HW
HStem: 0 49<213 402> 281 31<125 137> 399 34<93 105>
VStem: 273 76<49 399 49 481> 273 158<422 422.345>
DStem: 113 524 113 593 180 452 180 515 251 591 249 524 180 515 180 452
Back
258 524 m 5
 229 524 197 479 187 429 c 5
213 281 m 4
 133 281 117 378 155 470 c 4
 186 545 235 581 277 593 c 5
388 49 m 2
 467 51 473 333 402 386 c 0
 391.869 390.799 382.875 394.176 373.805 396.284 c 0
 365.866 398.128 370.661 447.391 377 448 c 0
 454.608 455.466 479.151 535.531 481 591 c 1
 563 591 l 1
 536 456 431 422 431 422 c 1
 547 379 554 -2 402 0 c 2
258 524 m 1
 229 524 196 482 184 413 c 1
137 358 m 0
 137 400 171 434 213 434 c 0
 255 434 289 400 289 358 c 0
 290 316 255 282 213 282 c 0
 171 282 138 316 137 358 c 0
EndSplineSet
Fore
563 591 m 1,32,33
427 0 m 2,9,-1
 213 0 l 1,37,-1
 213 49 l 1,38,-1
 273 49 l 1,39,-1
 273 461 l 2,8,9
 273 495 270 524 249 524 c 1,10,-1
 180 452 l 1,11,-1
 113 524 l 1,12,13
 84 524 71 484 69 459 c 1,14,15
 69 459 61 463 94 463 c 0,16,17
 144 463 178 426 189 388 c 0,18,19
 199 350 185 311 135 311 c 0,20,21
 55 311 4 411 29 498 c 0,22,23
 43 548 74 581 113 593 c 1,24,-1
 180 515 l 1,25,-1
 251 591 l 1,26,27
 314 587 349 536 349 461 c 2,28,-1
 349 49 l 1,4,-1
 387 49 l 2,2,3
 419 49 451 65 451 117 c 2,4,-1
 451 333 l 2,0,0
 451 383 433 409 381 422 c 1,0,0
 381 450 l 1,0,0
 433 463 451 481 451 531 c 2,0,0
 451 594 l 1,5,-1
 527 594 l 1,6,-1
 527 582 527 539 527 539 c 2,0,0
 527 494 521 443 457 436 c 1,0,0
 521 429 527 366 527 321 c 2,0,0
 527 105 l 2,7,8
 527 65 504 0 427 0 c 2,9,-1
127 342 m 0,40,41
 156 342 165 364 159 386 c 0,42,43
 153 407 132 429 103 429 c 0,44,45
 76 429 69 408 75 386 c 0,46,47
 81 364 101 342 127 342 c 0,40,41
EndSplineSet
EndChar
StartChar: uni0E0C
Encoding: 140 3596 139
OldEncoding: 172
Width: 777
Flags: HW
HStem: -8 39<198 211> 392 44<93 123 93 255> 574 20G<604 677>
VStem: 43 212<392 412.496> 91 77<159 329> 402 74<61 120 165 413> 604 73<94 594>
Back
262 341 m 1
 261 338 210 154 210 154 c 1
 342 190 310 -8 187 -8 c 0
 110 -8 110 69 121 109 c 2
 181 324 l 2
125 76 m 0
 125 122 162 160 209 160 c 0
 255 160 293 122 293 76 c 0
 293 30 256 -8 209 -8 c 0
 163 -8 125 30 125 76 c 0
EndSplineSet
Fore
677 594 m 1xf6
 677 0 l 1
 602 0 l 1
 582 111 476 120 476 120 c 1
 476 52 470 -8 399 -8 c 0
 344 -8 318 34 317 78 c 0
 317 122 346 168 402 166 c 1
 402 407 l 1
 401 507 333 550 260 550 c 0
 189 550 113 508 93 436 c 1
 255 436 l 1
 255 392 l 1xf6
 245 392 208 392 208 392 c 2
 166 392 168 348 168 346 c 2
 168 159 l 1
 225 154 262 116 272 77 c 0
 284 35 265 -8 207 -8 c 0
 130 -8 91 69 91 109 c 2
 91 324 l 2xee
 91 375 123 392 123 392 c 1
 43 392 l 1
 44 527 158 599 269 599 c 0
 371 599 470 539 476 413 c 1
 476 163 l 1
 476 163 568 149 604 94 c 1
 604 594 l 1
 677 594 l 1xf6
402 61 m 2
 402 126 l 17
 371 129 352 104 351 78 c 0
 351 64 356 51 366 41 c 0
 375 31 404 28 402 61 c 2
200 31 m 0
 231 31 240 54 233 77 c 0
 227 99 206 121 176 121 c 0
 148 121 140 98 146 75 c 0
 152 53 172 31 200 31 c 0
EndSplineSet
EndChar
StartChar: uni0E0D
Encoding: 141 3597 140
OldEncoding: 173
Width: 762
Flags: HW
HStem: -230 32<508 521> -10 42<206 224> 392 44<93 123 93 255> 574 20G<588 662>
VStem: 91 77<165 331> 377 73<98 413> 588 74<98 594> 595 67<-120 -53>
Back
444 -230 m 4
 332 -230 342 -140 351 -112 c 4
380 -157 m 5
 387 -180 409 -198 453 -198 c 4
262 341 m 1
 261 338 210 154 210 154 c 1
121 109 m 2
 181 324 l 2
360 -102 m 0
 360 -64 391 -34 428 -34 c 0
 466 -34 496 -64 496 -102 c 0
 495 -140 465 -170 428 -170 c 0
 390 -170 359 -140 360 -102 c 0
134 78 m 0
 134 127 173 166 222 166 c 0
 270 166 310 127 310 78 c 0
 309 29 270 -10 221 -10 c 0
 173 -10 133 29 134 78 c 0
EndSplineSet
Fore
662 104 m 2
 662 54 602 -8 517 -8 c 0
 435 -8 377 48 377 112 c 2
 377 407 l 1
 376 506 314 547 247 547 c 0
 180 547 110 505 93 436 c 1
 255 436 l 1
 255 392 l 1
 245 392 208 392 208 392 c 2
 166 392 168 354 168 352 c 2
 168 165 l 1
 177 165 l 0
 234 165 275 122 287 78 c 0
 300 34 283 -10 224 -10 c 0
 131 -10 91 69 91 109 c 2
 91 324 l 2
 91 375 123 392 123 392 c 1
 43 392 l 1
 47 527 153 598 256 598 c 0
 351 598 443 539 450 413 c 1
 450 101 l 2
 450 61 478 29 519 29 c 0
 561 29 588 60 588 100 c 2
 588 594 l 1
 662 594 l 1xfe
 662 104 l 2
662 -108 m 2
 662 -155 623 -230 508 -230 c 0
 396 -230 381 -143 382 -111 c 0
 382 -93 384 -17 460 -38 c 0
 501 -49 522 -87 526 -107 c 0
 533 -143 512 -175 460 -169 c 0
 445 -167 431 -157 418 -149 c 1
 435 -179 464 -198 508 -198 c 0
 560 -198 595 -152 595 -106 c 2
 595 -52 l 1
 662 -52 l 1
 662 -108 l 2
214 32 m 0
 244 32 253 55 247 77 c 0
 241 99 220 121 190 121 c 0
 162 121 153 98 160 76 c 0
 166 54 186 32 214 32 c 0
494 -103 m 0
 487 -78 465 -66 447 -66 c 0
 429 -66 415 -78 422 -103 c 0
 429 -128 450 -141 468 -141 c 0
 486 -141 501 -128 494 -103 c 0
EndSplineSet
Substitution: 0 65534 'nds0' uni0E0D.descless
Substitution: 0 65534 'ndsc' uni0E0D.descless
EndChar
StartChar: uni0E0E
Encoding: 142 3598 141
OldEncoding: 174
Width: 583
Flags: HW
HStem: -212 43<175 186> 392 44<101 132 101 264>
VStem: 77 43<-126 -124> 101 74<153 341> 412 74<-160 416>
AnchorPoint: "BelowBase" 486.341 -245.76 basechar 0
Back
270 341 m 5
 197 80 l 6
146 163 m 5
 193 332 l 6
31 74 m 0
 30 120 68 158 115 158 c 0
 161 158 198 120 199 74 c 0
 199 28 161 -10 114 -10 c 0
 68 -10 31 28 31 74 c 0
EndSplineSet
Fore
486 -241 m 1xd8
 412 -241 l 0
 407 -217 356 -141 290 -111 c 1
 290 -111 259 -212 175 -212 c 0xd8
 120 -212 77 -183 77 -126 c 0xe8
 77 -78 122 -40 186 -40 c 0
 209 -40 233 -44 260 -55 c 1
 260 -55 276 -3 311 12 c 1
 345 -5 l 1
 306 -34 300 -69 300 -69 c 1
 377 -97 412 -160 412 -160 c 1
 412 407 l 2
 412 506 342 550 268 550 c 0
 196 550 121 509 101 436 c 1
 265 436 l 1
 265 392 l 1
 219 392 l 2
 175 392 175 343 175 341 c 2
 175 59 l 2
 175 4 152 -21 100 -9 c 0
 51 2 20 39 10 75 c 0
 -1 117 16 157 68 157 c 0
 78 157 88 156 101 153 c 1
 101 332 l 2
 101 378 132 392 132 392 c 1
 52 392 l 1
 55 530 167 599 277 599 c 0
 383 599 486 535 486 407 c 2
 486 -241 l 1xd8
107 32 m 0
 136 32 145 55 139 77 c 0
 133 99 112 121 83 121 c 0
 55 121 46 98 53 76 c 0
 59 54 79 32 107 32 c 0
251 -95 m 1
 226 -86 200 -83 180 -83 c 0
 150 -83 120 -94 120 -126 c 0xe8
 120 -163 154 -169 175 -169 c 0
 221 -169 243 -121 251 -95 c 1
EndSplineSet
EndChar
StartChar: uni0E0F
Encoding: 143 3599 142
OldEncoding: 175
Width: 583
Flags: HW
HStem: -111 43<77 85> 392 44<101 134 101 265>
VStem: -21 42<-164 -144> 101 74<153 341> 412 74<-155 416>
AnchorPoint: "BelowBase" 486.341 -245.76 basechar 0
Back
175 59 m 6
 175 4 152 -21 100 -9 c 4
 -16 18 -32 187 102 153 c 5
EndSplineSet
Fore
107 32 m 0
 136 32 145 55 139 77 c 0
 133 99 112 121 83 121 c 0
 55 121 46 98 53 76 c 0
 59 54 79 32 107 32 c 0
131 -129 m 1
 113 -117 93 -111 77 -111 c 0
 30 -111 21 -135 21 -154 c 0
 21 -174 33 -201 73 -198 c 0
 104 -195 115 -164 131 -129 c 1
148 -89 m 1
 161 -63 180 -40 213 -26 c 1
 240 -54 l 1
 213 -66 195 -89 183 -115 c 1
 208 -137 229 -164 237 -187 c 1
 257 -139 295 -115 333 -115 c 0
 362 -115 390 -128 412 -155 c 1
 412 407 l 2
 412 506 341 550 267 550 c 0
 196 550 121 509 101 436 c 1
 265 436 l 1
 265 392 l 1
 219 392 l 2
 175 392 175 343 175 341 c 2
 175 59 l 2
 175 4 152 -21 100 -9 c 0
 51 2 20 39 10 75 c 0
 -1 117 16 157 68 157 c 0
 78 157 88 156 101 153 c 1
 101 332 l 2
 101 381 134 392 134 392 c 1
 52 392 l 1
 55 530 167 599 277 599 c 0
 383 599 486 535 486 407 c 2
 486 -241 l 1
 416 -241 l 1
 398 -189 365 -163 333 -163 c 0
 301 -163 270 -189 257 -240 c 1
 214 -240 l 1
 210 -210 189 -180 164 -157 c 1
 145 -197 126 -233 74 -240 c 0
 2 -247 -21 -186 -21 -155 c 0
 -21 -95 27 -68 77 -68 c 0
 101 -68 125 -75 148 -89 c 1
EndSplineSet
EndChar
StartChar: uni0E10
Encoding: 144 3600 143
OldEncoding: 176
Width: 484
Flags: HW
HStem: -276 53<204 339> -233 35<76 84> -190 33<299 311> -8 43<278 286> 319 38<110 131>
VStem: 170 71<91 270> 311 77<-203 -131>
DStem: 27 439 77 472 287 370 341 401
Back
255 -201 m 2
 259 -186 l 1
352 -131 m 1
 328 -218 l 1
199 106 m 2
 225 198 l 1
316 270 m 2
 263 78 l 2
187 -117 m 0
 187 -77 219 -45 259 -45 c 0
 299 -45 331 -77 331 -117 c 0
 330 -157 299 -189 259 -189 c 0
 219 -189 186 -157 187 -117 c 0
127 273 m 0
 126 319 165 357 211 357 c 0
 257 357 294 319 295 273 c 0
 295 227 256 189 210 189 c 0
 164 189 127 227 127 273 c 0
EndSplineSet
Fore
431 571 m 0
 400 461 295 490 277 496 c 0
 219 515 179 526 149 526 c 0
 111 526 92 508 77 472 c 1
 341 401 l 1
 356 393 388 392 388 332 c 2
 388 106 l 2
 388 41 353 -8 278 -8 c 0
 216 -8 170 45 170 106 c 2
 170 190 l 1
 154 187 144 191 129 195 c 0
 96 204 52 241 47 287 c 0
 44 321 67 357 114 357 c 0
 191 358 241 319 241 270 c 2
 241 78 l 2
 241 58 254 35 278 35 c 0
 303 35 315 58 315 77 c 2
 315 321 l 2
 315 353 309 364 287 370 c 2
 27 439 l 1
 38 478 71 598 175 594 c 0
 221 594 299 560 358 560 c 0
 383 560 403 566 418 582 c 0
 426 591 435 587 431 571 c 0
388 -218 m 18
 388 -243 378 -276 339 -276 c 2
 166 -276 l 1xbe
 166 -226 l 2
 166 -198 162 -175 142 -149 c 1
 144 -161 145 -233 76 -233 c 0x7e
 46 -233 24 -214 14 -178 c 0
 13 -173 13 -169 12 -164 c 0
 13 -129 38 -94 84 -94 c 0
 92 -94 100 -95 109 -97 c 1
 109 -97 107 -72 117 -57 c 1
 151 -61 l 1
 134 -81 145 -111 145 -111 c 1
 207 -135 205 -223 205 -223 c 1
 284 -223 l 2xbe
 295 -223 311 -215 311 -201 c 2
 311 -190 l 1
 308 -190 298 -190 277 -181 c 0
 246 -167 227 -143 220 -119 c 0
 209 -79 230 -39 289 -46 c 0
 348 -54 388 -91 388 -131 c 2
 388 -218 l 18
144 229 m 0
 173 229 181 252 175 274 c 0
 169 296 148 319 120 319 c 0
 92 319 84 296 90 274 c 0
 96 252 116 229 144 229 c 0
299 -157 m 0
 321 -157 328 -138 322 -119 c 0
 317 -101 301 -83 279 -83 c 0
 254 -83 247 -102 252 -121 c 0
 257 -139 274 -157 299 -157 c 0
109 -132 m 1
 109 -132 88 -127 73 -127 c 0
 32 -132 33 -198 76 -198 c 0x7e
 98 -198 115 -170 109 -132 c 1
EndSplineSet
KernsSLIF: 177 44 1 0 181 44 1 0 182 44 1 0 183 44 1 0 180 44 1 0
Substitution: 0 65534 'nds0' uni0E10.descless
Substitution: 0 65534 'ndsc' uni0E10.descless
EndChar
StartChar: uni0E11
Encoding: 145 3601 144
OldEncoding: 177
Width: 743
Flags: HW
HStem: 0 21G<274 349 568 643> 281 31<125 137> 399 34<93 105>
VStem: 274 75<0 225 0 461> 568 75<0 464>
DStem: 113 524 113 593 180 452 180 515 251 591 249 524 180 515 180 452 429 498 462 482 350 347 375 312
Back
68 429 m 5
 68 429 61 433 94 433 c 4
 195 433 233 281 135 281 c 4
 55 281 12 378 25 470 c 4
127 312 m 4
 185 312 161 399 103 399 c 4
 48 399 75 312 127 312 c 4
EndSplineSet
Fore
274 461 m 2
 274 495 270 524 249 524 c 1
 180 452 l 1
 113 524 l 1
 84 524 60 479 68 429 c 1
 68 429 61 433 94 433 c 0
 144 433 178 396 189 358 c 0
 199 320 185 281 135 281 c 0
 55 281 12 378 25 470 c 0
 36 545 74 581 113 593 c 1
 180 515 l 1
 251 591 l 1
 314 587 350 536 350 461 c 2
 350 347 l 1
 429 498 l 2
 461 557 508 587 551 587 c 0
 600 587 644 546 643 464 c 2
 643 0 l 1
 568 0 l 1
 568 468 l 2
 568 510 548 529 524 529 c 0
 502 529 477 512 462 482 c 2
 375 312 l 2
 359 275 349 223 349 216 c 2
 349 0 l 1
 274 0 l 1
 274 461 l 2
127 312 m 0
 156 312 165 334 159 356 c 0
 153 377 132 399 103 399 c 0
 76 399 69 378 75 356 c 0
 81 334 101 312 127 312 c 0
EndSplineSet
EndChar
StartChar: uni0E12
Encoding: 146 3602 145
OldEncoding: 178
Width: 763
Flags: HW
HStem: 0 21G<96 172 586 662> 574 20G<587 662>
VStem: 35 45<384 408.112> 96 -16<94 384> 96 76<0 86> 387 75<62 151 196 425> 587 75<88 594>
DStem: 159 538 164 594 248 468 248 524 330 594 333 538 248 524 248 468
Back
202 166 m 5
 227 200 325 257 311 257 c 5
395 283 m 4
 336 206 227 169 196 86 c 5
250 346 m 0
 251 395 289 434 338 434 c 0
 386 434 427 395 426 346 c 0
 425 297 387 258 338 258 c 0
 290 258 249 297 250 346 c 0
EndSplineSet
Fore
250 293 m 0
 282 293 292 319 285 345 c 0
 278 370 255 395 222 395 c 0
 192 395 183 369 191 343 c 0
 198 318 219 293 250 293 c 0
387 63 m 0
 387 151 l 1
 361 152 344 118 344 88 c 0
 344 72 348 57 358 49 c 0
 366 43 390 37 387 63 c 0
662 594 m 1
 662 0 l 1
 586 0 l 1
 579 58 506 131 462 151 c 1
 462 127 462 81 462 81 c 2
 462 32 448 -8 383 -8 c 0
 324 -8 296 39 296 88 c 0
 296 139 327 193 387 197 c 1
 387 401 l 2
 387 482 377 515 333 538 c 1
 248 468 l 1
 159 538 l 1
 120 519 80 475 80 384 c 0
 80 359 98 301 115 272 c 0
 158 192 153 175 156 166 c 1
 172 200 236 239 244 261 c 1
 214 267 168 296 153 346 c 0
 140 389 170 444 236 431 c 0
 285 421 320 386 330 347 c 0
 337 322 334 295 318 273 c 0
 270 206 180 169 172 86 c 1
 172 0 l 1
 96 0 l 1
 96 94 l 2
 96 220 35 298 35 384 c 0
 35 531 117 578 164 594 c 1
 248 524 l 1
 330 594 l 1
 381 582 462 547 462 396 c 2
 462 194 l 1
 462 194 557 158 587 88 c 1
 587 594 l 1
 662 594 l 1
EndSplineSet
EndChar
StartChar: uni0E13
Encoding: 147 3603 146
OldEncoding: 179
Width: 762
Flags: HW
HStem: -8 39<198 211 633 646> 0 101<450 450.563> 392 44<93 125 93 255> 574 20G<587 662>
VStem: 43 212<392 410> 91 77<159 335> 374 76<0 416> 587 75<168 594>
Fore
662 594 m 1x7b
 662 169 l 2
 662 158 648 150 648 150 c 1
 649 147 l 1
 681 132 701 104 709 77 c 0
 721 35 702 -8 646 -8 c 0xbb
 614 -8 570 17 549 55 c 0
 532 85 540 121 545 127 c 1
 478 103 455 17 451 0 c 1
 374 0 l 1
 374 410 l 2
 374 507 313 547 247 547 c 0
 179 547 107 504 93 436 c 1
 255 436 l 1
 255 392 l 1x7b
 245 392 208 392 208 392 c 2
 166 392 167 337 167 335 c 2
 168 159 l 1
 225 154 262 116 272 77 c 0
 284 35 265 -8 207 -8 c 0
 130 -8 91 69 91 109 c 2
 91 326 l 2xb7
 91 376 125 392 125 392 c 1
 43 392 l 1
 46 526 155 598 259 598 c 0
 353 598 442 540 450 416 c 1
 450 101 l 1
 450 101 491 177 587 169 c 1
 587 594 l 1
 662 594 l 1x7b
633 32 m 0
 663 32 672 55 666 77 c 0
 660 99 639 121 609 121 c 0
 581 121 572 98 579 76 c 0
 585 54 605 32 633 32 c 0
200 31 m 0
 231 31 240 54 233 77 c 0
 227 99 206 121 176 121 c 0
 148 121 140 98 146 75 c 0
 152 53 172 31 200 31 c 0
EndSplineSet
KernsSLIF: 186 -44 1 0 185 -44 1 0 184 -44 1 0 177 -44 1 0 181 -44 1 0 182 -44 1 0 183 -44 1 0 180 -44 1 0
EndChar
StartChar: uni0E14
Encoding: 148 3604 147
OldEncoding: 180
Width: 580
Flags: HW
HStem: 0 21G<109 181 410 484> 551 47<257 273>
VStem: 49 44<384 405.489> 109 -16<94 384> 109 72<0 86> 410 74<0 417>
Back
216 166 m 1
 241 203 349 273 336 273 c 0
416 296 m 0
 360 220 239 169 205 86 c 1
272 360 m 0
 272 409 311 448 360 448 c 0
 408 448 448 409 448 360 c 0
 447 311 408 272 359 272 c 0
 311 272 271 311 272 360 c 0
EndSplineSet
Fore
484 0 m 1
 410 0 l 1
 410 396 l 2
 410 476 369 551 257 551 c 0
 200 551 93 516 93 384 c 0
 93 307 155 244 170 166 c 1
 185 203 257 257 260 273 c 1
 184 303 175 349 172 361 c 0
 165 387 168 461 255 445 c 0
 298 437 338 400 349 358 c 0
 356 333 353 306 336 283 c 0
 281 211 192 169 181 86 c 1
 181 0 l 1
 109 0 l 1
 109 94 l 2
 109 220 49 298 49 384 c 0
 49 533 170 598 257 598 c 0
 295 598 484 594 484 396 c 2
 484 0 l 1
271 309 m 0
 303 309 311 334 304 358 c 0
 297 384 274 409 243 409 c 0
 210 409 200 384 207 360 c 0
 214 334 238 309 271 309 c 0
EndSplineSet
EndChar
StartChar: uni0E15
Encoding: 149 3605 148
OldEncoding: 181
Width: 580
Flags: HW
HStem: 0 21G<109 181 410 484>
VStem: 49 44<384 405.615> 109 -16<94 385> 109 72<0 74> 410 74<0 418>
DStem: 177 538 181 594 265 468 265 524 347 594 350 538 265 524 265 468
Back
223 174 m 4
 245 203 332 258 321 258 c 4
405 283 m 4
 349 206 236 157 202 74 c 5
256 346 m 0
 257 395 295 434 344 434 c 0
 392 434 433 395 432 346 c 0
 431 297 393 258 344 258 c 0
 296 258 255 297 256 346 c 0
EndSplineSet
Fore
484 0 m 1
 410 0 l 1
 410 416 l 2
 410 496 390 515 350 538 c 1
 265 468 l 1
 177 538 l 1
 144 528 93 475 93 384 c 0
 93 359 110 301 128 272 c 0
 172 192 172 166 175 174 c 0
 189 203 249 247 252 260 c 1
 184 281 168 325 161 347 c 0
 154 369 156 438 231 435 c 0
 268 434 323 396 337 345 c 0
 343 323 341 298 326 273 c 0
 283 201 192 157 181 74 c 1
 181 0 l 1
 109 0 l 1
 109 94 l 2
 109 220 49 298 49 384 c 0
 49 527 131 574 181 594 c 1
 265 524 l 1
 347 594 l 1
 397 584 484 542 484 396 c 2
 484 0 l 1
263 293 m 0
 295 293 305 319 298 345 c 0
 291 370 268 395 235 395 c 0
 203 395 194 369 201 343 c 0
 208 318 231 293 263 293 c 0
EndSplineSet
EndChar
StartChar: uni0E16
Encoding: 150 3606 149
OldEncoding: 182
Width: 574
Flags: HW
HStem: -8 37<198 210> 392 44<91 121 91 254>
VStem: 90 76<155 335> 402 73<0 416>
Fore
166 155 m 1
 223 150 261 112 271 74 c 0
 283 33 264 -8 206 -8 c 0
 129 -8 90 69 90 109 c 2
 90 326 l 2
 90 375 121 392 121 392 c 1
 41 392 l 1
 42 527 157 599 268 599 c 0
 369 599 467 540 475 416 c 1
 475 0 l 1
 402 0 l 1
 402 410 l 1
 400 508 332 551 259 551 c 0
 186 551 108 508 91 436 c 1
 254 436 l 1
 254 392 l 1
 243 392 207 392 207 392 c 2
 164 392 166 337 166 335 c 2
 166 155 l 1
200 29 m 0
 230 29 239 52 233 75 c 0
 227 97 206 119 176 119 c 0
 147 119 139 96 145 73 c 0
 152 51 172 29 200 29 c 0
EndSplineSet
EndChar
StartChar: uni0E17
Encoding: 151 3607 150
OldEncoding: 183
Width: 624
Flags: HW
HStem: 0 21G<158 232 453 525> 455 21G<98.5 163>
VStem: 158 74<0 225 0 492> 453 72<0 467>
DStem: 322 498 357 476 232 347 263 312
Back
158 0 m 5
 276 425 l 5
290 594 m 4
 403 594 371 502 368 492 c 6
 328 347 l 5
172 506 m 0
 173 555 212 594 261 594 c 0
 309 594 349 555 348 506 c 0
 348 457 309 418 260 418 c 0
 212 418 172 457 172 506 c 0
EndSplineSet
Fore
232 496 m 2
 232 347 l 1
 322 498 l 2
 354 559 400 589 440 589 c 0
 487 589 525 549 525 467 c 2
 525 0 l 1
 453 0 l 1
 453 472 l 2
 453 510 438 527 419 527 c 0
 398 527 373 508 357 476 c 2
 263 312 l 2
 245 275 233 240 233 216 c 2
 232 0 l 1
 158 0 l 1
 158 424 l 1
 145 420 131 421 118 425 c 0
 71 440 42 475 32 508 c 0
 20 553 41 598 98 598 c 0
 188 598 232 537.012 232 496 c 2
131 459 m 0
 163 459 172 484 165 510 c 0
 158 535 135 560 103 560 c 0
 70 560 61 535 68 510 c 0
 75 484 98 459 131 459 c 0
EndSplineSet
EndChar
StartChar: uni0E18
Encoding: 152 3608 151
OldEncoding: 184
Width: 484
Flags: HW
HStem: 0 45<50 292>
VStem: 93 74<45 364> 315 73<106 337>
DStem: 28 439 81 472 301 370 358 401
Fore
315 321 m 2
 315 353 309 364 287 370 c 2
 27 439 l 1
 38 478 71 598 175 594 c 0
 221 594 299 560 358 560 c 0
 382 560 403 566 418 582 c 0
 426 591 435 587 431 571 c 0
 400 461 295 490 277 496 c 0
 219 515 179 526 150 526 c 0
 111 526 92 508 77 472 c 1
 341 401 l 2
 357 397 388 392 388 332 c 2
 388 108 l 2
 388 35 353 0 292 0 c 2
 50 0 l 1
 50 45 l 1
 93 45 l 1
 93 364 l 1
 167 364 l 1
 167 45 l 1
 238 45 l 2
 290 45 315 66 315 114 c 2
 315 321 l 2
EndSplineSet
EndChar
StartChar: uni0E19
Encoding: 153 3609 152
OldEncoding: 185
Width: 632
Flags: HW
HStem: 0 21G<158 227> 121 51<446 469> 459 21G<98.5 163> 574 20G<446 522>
VStem: 158 74<0 496> 446 76<171 594>
Back
687 594 m 5
 574 186 l 4
418 75 m 0
 418 121 455 159 502 159 c 0
 548 159 586 121 586 75 c 0
 586 29 549 -9 502 -9 c 0
 456 -9 418 29 418 75 c 0
EndSplineSet
Fore
232 496 m 2
 232 77 l 1
 232 77 279 175 446 172 c 1
 446 594 l 1
 522 594 l 1
 522 169 l 2
 522 155 505 146 505 146 c 1
 536 131 557 103 565 74 c 0
 576 34 561 -7 506 -9 c 0
 469 -11 426 16 406 54 c 0
 384 96 398 117 403 131 c 1
 286 124 235 15 227 0 c 1
 158 0 l 1
 158 424 l 1
 145 420 131 421 118 425 c 0
 71 439 42 475 32 508 c 0
 20 553 41 598 98 598 c 0
 188 598 232 537.012 232 496 c 2
131 459 m 0
 163 459 172 484 165 510 c 0
 158 535 135 560 103 560 c 0
 70 560 61 535 68 510 c 0
 75 484 98 459 131 459 c 0
493 32 m 0
 523 32 532 55 526 77 c 0
 520 99 499 121 469 121 c 0
 440 121 432 98 438 76 c 0
 444 54 464 32 493 32 c 0
EndSplineSet
KernsSLIF: 186 -44 1 0 185 -44 1 0 184 -44 1 0 177 -44 1 0 181 -44 1 0 182 -44 1 0 183 -44 1 0 180 -44 1 0
EndChar
StartChar: uni0E1A
Encoding: 154 3610 153
OldEncoding: 186
Width: 618
Flags: HW
HStem: 0 45<106 421> 455 21G<98.5 163> 574 20G<445 519>
VStem: 158 74<45 420> 445 74<117 594>
Fore
232 496 m 2
 232 45 l 1
 381 45 l 2
 413 45 445 66 445 118 c 2
 445 594 l 5
 519 594 l 1
 520 106 l 2
 523 66 498 0 421 0 c 2
 106 0 l 1
 106 45 l 1
 158 45 l 1
 158 424 l 1
 145 420 131 421 118 425 c 0
 71 439 42 475 32 508 c 0
 20 553 41 598 98 598 c 0
 188 598 232 537.012 232 496 c 2
131 459 m 0
 163 459 172 484 165 510 c 0
 158 535 135 560 103 560 c 0
 70 560 61 535 68 510 c 0
 75 484 98 459 131 459 c 0
EndSplineSet
EndChar
StartChar: uni0E1B
Encoding: 155 3611 154
OldEncoding: 187
Width: 634
Flags: HW
HStem: 0 45<106 435> 455 21G<98.5 163>
VStem: 158 74<45 492> 460 75<117 974>
AnchorPoint: "AboveBase" 367.687 645.12 basechar 0
Fore
131 459 m 0
 163 459 172 484 165 510 c 0
 158 535 135 560 103 560 c 0
 70 560 61 535 68 510 c 0
 75 484 98 459 131 459 c 0
535 106 m 2
 538 66 513 0 435 0 c 2
 106 0 l 1
 106 45 l 1
 158 45 l 1
 158 425 l 1
 145 420 131 421 118 425 c 0
 71 440 42 474 32 508 c 0
 20 553 41 598 98 598 c 0
 188 598 233 537 232 496 c 2
 232 45 l 1
 396 45 l 2
 428 45 460 66 460 118 c 2
 460 974 l 1
 535 974 l 1
 535 106 l 2
EndSplineSet
EndChar
StartChar: uni0E1C
Encoding: 156 3612 155
OldEncoding: 188
Width: 618
Flags: HW
HStem: 0 21G<88 164 445 520> 426 36<343 353> 559 39<332 350>
VStem: 396 32<508 515>
DStem: 224 490 288 447 88 0 196 115 392 316 415 401 450 58 478 118 415 401 392 316 196 115 191 58 610 594 685 594 478 118 520 0
Back
88 0 m 1
 224 490 l 2
284 433 m 1
 196 115 l 1
260 510 m 0
 260 556 298 594 345 594 c 0
 391 594 428 556 428 510 c 0
 429 464 391 426 344 426 c 0
 298 426 261 464 260 510 c 0
EndSplineSet
Fore
229 426 m 0
 210 426 189 432 164 447 c 1
 164 115 l 1
 304 401 l 1
 445 118 l 1
 445 594 l 1
 520 594 l 1
 520 0 l 1
 445 0 l 1
 445 22 l 2
 445 43 437 51 434 58 c 1
 304 316 l 1
 175 58 l 1
 172 51 164 45 164 22 c 2
 164 0 l 1
 88 0 l 1
 88 490 l 2
 88 529 102 598 166 598 c 0
 219 597 272 561 286 513 c 0
 298 469 277 426 229 426 c 0
221 462 m 0
 252 462 261 487 254 511 c 0
 248 535 226 559 195 559 c 0
 163 559 153 534 160 510 c 0
 167 486 189 462 221 462 c 0
EndSplineSet
EndChar
StartChar: uni0E1D
Encoding: 157 3613 156
OldEncoding: 189
Width: 634
Flags: HW
HStem: 0 21G<88 164 460 535> 426 36<343 353> 559 39<332 350>
VStem: 396 32<508 515>
DStem: 224 490 288 447 88 0 196 117 402 326 425 407 463 54 493 118 425 407 402 326 196 117 190 54 730 974 805 974 493 118 535 0
AnchorPoint: "AboveBase" 367.687 645.12 basechar 0
Fore
221 462 m 0
 252 462 261 487 254 511 c 0
 248 535 226 559 195 559 c 0
 163 559 153 534 160 510 c 0
 166 486 189 462 221 462 c 0
164 447 m 1
 164 117 l 1
 312 407 l 1
 460 118 l 1
 460 974 l 1
 535 974 l 1
 535 0 l 1
 460 0 l 1
 460 17 l 2
 460 38 451 46 448 54 c 1
 312 326 l 1
 175 54 l 1
 172 46 164 40 164 17 c 2
 164 0 l 1
 88 0 l 1
 88 490 l 2
 87 529 103 598 166 598 c 0
 219 597 272 561 286 513 c 0
 298 469 277 426 229 426 c 0
 211 426 189 432 164 447 c 1
EndSplineSet
EndChar
StartChar: uni0E1E
Encoding: 158 3614 157
OldEncoding: 190
Width: 689
Flags: HW
HStem: 0 21G<159 237 511 590> 455 21G<98.5 163> 574 20G<517 590>
VStem: 159 74<0 423> 517 73<115 594>
DStem: 361 588 375 490 233 115 237 0 375 490 388 588 511 0 517 115
Fore
232 496 m 2
 233 115 l 1
 361 588 l 1
 388 588 l 1
 517 115 l 1
 517 594 l 1
 590 594 l 1
 590 0 l 1
 511 0 l 1
 375 490 l 1
 237 0 l 1
 159 0 l 1
 159 427 l 1
 146 423 131 421 118 425 c 0
 71 439 42 475 32 508 c 0
 20 553 41 598 98 598 c 0
 188 598 231.892 537.012 232 496 c 2
131 459 m 0
 163 459 172 484 165 510 c 0
 158 535 135 560 103 560 c 0
 70 560 61 535 68 510 c 0
 75 484 98 459 131 459 c 0
EndSplineSet
EndChar
StartChar: uni0E1F
Encoding: 159 3615 158
OldEncoding: 191
Width: 689
Flags: HW
HStem: 0 21G<159 237 511 590> 455 21G<98.5 163>
VStem: 159 74<0 424> 517 73<111 974>
DStem: 361 591 375 490 233 111 237 0 375 490 388 591 511 0 517 111
AnchorPoint: "AboveBase" 423.352 645.12 basechar 0
Fore
159 427 m 1
 146 423 131 421 118 425 c 0
 71 439 42 475 32 508 c 0
 20 553 41 598 98 598 c 0
 188 598 231.894 537.012 232 496 c 2
 233.125 495.144 233 111 233 111 c 1
 361 591 l 1
 388 591 l 1
 517 111 l 1
 517 974 l 1
 591 974 l 0
 590 0 l 1
 511 0 l 1
 375 490 l 1
 237 0 l 1
 159 0 l 1
 159 427 l 1
131 459 m 0
 163 459 172 484 165 510 c 0
 158 535 135 560 103 560 c 0
 70 560 61 535 68 510 c 0
 75 484 98 459 131 459 c 0
EndSplineSet
EndChar
StartChar: uni0E20
Encoding: 160 3616 159
OldEncoding: 192
Width: 590
Flags: HW
HStem: -4 39<124 139> 392 44<107 274>
VStem: 123 73<155 341> 418 74<0 416>
Back
291 341 m 5
 219 83 l 6
169 166 m 5
 215 332 l 6
56 78 m 0
 55 123 92 160 137 160 c 0
 183 160 219 123 220 78 c 0
 220 33 183 -4 138 -4 c 0
 92 -4 56 33 56 78 c 0
EndSplineSet
Fore
492 0 m 9
 418 0 l 1
 418 410 l 2
 418 507 349 549 275 549 c 0
 202 549 125 508 107 436 c 1
 274 436 l 1
 274 392 l 1
 238 392 l 2
 195 392 196 343 196 341 c 2
 196 83 l 2
 196 28 190 -4 139 -4 c 0
 84 -4 46 37 34 78 c 0
 23 119 39 159 91 159 c 0
 100 159 111 158 123 155 c 1
 123 332 l 2
 123 379 154 392 154 392 c 1
 57 392 l 1
 58 528 173 599 285 599 c 0
 387 599 485 540 492 416 c 1
 492 416 492 37 492 0 c 9
129 35 m 0
 158 35 167 57 160 80 c 0
 154 102 134 124 105 124 c 0
 75 124 66 102 72 80 c 0
 78 57 99 35 129 35 c 0
EndSplineSet
EndChar
StartChar: uni0E21
Encoding: 161 3617 160
OldEncoding: 193
Width: 616
Flags: HW
HStem: 0 21G<441 517> 459 21G<98.5 163> 574 20G<443 517>
VStem: 158 74<209 424> 443 74<80 594>
Fore
158 427 m 1
 145 423 130 421 117 425 c 0
 70 439 41 475 31 508 c 0
 19 553 40 598 97 598 c 0
 187 598 232 537.012 232 496 c 2
 232 203 l 1
 232 203 359 174 443 80 c 1
 443 594 l 1
 517 594 l 1
 517 0 l 1
 441 0 l 1
 369 127 233 147 233 147 c 1
 236 51 233 -5 153 -5 c 0
 85.7746 -5.4907 53.4627 46.2685 53.8195 99 c 0
 54.1898 153.731 89.7533 209.509 158 209 c 1
 158 427 l 1
130 459 m 0
 162 459 171 484 164 510 c 0
 157 535 134 560 102 560 c 0
 69 560 60 535 67 510 c 0
 74 484 97 459 130 459 c 0
158 68 m 2
 158 157 l 1
 115.023 163.053 96.9615 130.635 96.9393 99 c 0
 96.9248 78.3724 104.58 58.078 118 49 c 0
 129 45 159 38 158 68 c 2
EndSplineSet
EndChar
StartChar: uni0E22
Encoding: 162 3618 161
OldEncoding: 194
Width: 553
Flags: HW
HStem: -8 54<254 292> 309 41<214 254> 422 39<214 223> 574 20G<381 454>
VStem: 82 74<144 229> 381 73<135 594>
Back
189 379 m 4
 186 422 198 470 223 510 c 4
274 436 m 5
 259 389 274 350 323 350 c 6
251 510 m 0
 252 559 291 598 340 598 c 0
 388 598 428 559 427 510 c 0
 427 461 388 422 339 422 c 0
 291 422 251 461 251 510 c 0
EndSplineSet
Fore
454 154 m 2
 454 52 381 -8 271 -8 c 0
 162 -8 82 52 82 158 c 2
 82 158 82 227 82 229 c 0
 87 287 120 313 153 324 c 1
 120 327 91 358 84 379 c 0
 69 422 68 470 82 510 c 0
 103 567 135 602 178 598 c 0
 237 593 275 552 286 511 c 0
 298 467 280 424 223 422 c 0
 188 422 154 446 154 446 c 1
 145 394 177 350 226 350 c 2
 254 350 l 1
 254 309 l 1
 227 309 l 2
 186 309 156 276 156 232 c 2
 156 152 l 2
 156 86 204 46 273 46 c 0
 344 46 381 83 381 146 c 2
 381 146 381 605 381 594 c 1
 454 594 l 1
 454 154 l 2
216 461 m 0
 249 461 259 486 252 512 c 0
 245 537 221 562 188 562 c 0
 156 562 146 537 153 512 c 0
 160 486 184 461 216 461 c 0
EndSplineSet
EndChar
StartChar: uni0E23
Encoding: 163 3619 162
OldEncoding: 195
Width: 440
Flags: HW
HStem: -4 39<228 243> 138 38<191 202> 574 20G<125.5 210.5>
VStem: 255 73<156 367>
DStem: 30 442 76 472 230 387 281 416
Back
430 367 m 6
 356 101 l 6
300 163 m 5
 350 344 l 5
153 86 m 0
 153 136 193 176 243 176 c 0
 293 176 333 136 333 86 c 0
 333 36 293 -4 243 -4 c 0
 193 -4 153 36 153 86 c 0
EndSplineSet
Fore
402 576 m 0
 375 468 277 501 274 502 c 0
 219 520 180 530 151 530 c 0
 112 530 92 512 76 472 c 1
 281 416 l 2
 295 413 328 399 328 367 c 2
 328 101 l 2
 328 82 321 -4 243 -4 c 0
 187 -4 141 45 130 85 c 0
 118 128 137 176 193 176 c 0
 214 176 243 167 255 156 c 1
 255 344 l 2
 257 364 255 381 230 387 c 2
 30 442 l 1
 39 476 76 594 175 594 c 0
 224 594 285 564 332 564 c 0
 354 564 373 570 387 588 c 0
 394 596 405 594 402 576 c 0
230 35 m 0
 262 35 270 61 263 86 c 0
 256 112 233 138 202 138 c 0
 169 138 159 112 167 86 c 0
 174 61 197 35 230 35 c 0
EndSplineSet
KernsSLIF: 177 44 1 0 181 44 1 0 182 44 1 0 183 44 1 0 180 44 1 0
EndChar
StartChar: uni0E24
Encoding: 164 3620 163
OldEncoding: 196
Width: 569
Flags: HW
HStem: -8 37<196 208> 392 44<91 120 91 252>
VStem: 88 76<155 333> 399 74<-240 417>
Fore
88 109 m 2
 88 324 l 2
 88 373 120 392 120 392 c 1
 41 392 l 1
 44 530 158 599 268 599 c 0
 372 599 473 537 473 410 c 2
 473 -240 l 1
 399 -240 l 25
 399 410 l 2
 399 506 331 549 258 549 c 0
 187 549 111 508 91 436 c 1
 252 436 l 1
 252 392 l 1
 241 392 207 392 205 392 c 0
 162 392 164 335 164 333 c 2
 164 155 l 1
 221 150 259 112 269 74 c 0
 281 33 262 -8 204 -8 c 0
 127 -8 88 69 88 109 c 2
198 29 m 0
 228 29 237 52 231 75 c 0
 225 97 204 119 174 119 c 0
 145 119 137 96 143 73 c 0
 150 51 170 29 198 29 c 0
EndSplineSet
EndChar
StartChar: uni0E25
Encoding: 165 3621 164
OldEncoding: 197
Width: 552
Flags: HW
HStem: -9 37<188 198> 401 49<245 265>
VStem: 80 75<108 295> 381 73<0 433>
Fore
156 154 m 1
 214 149 251 111 262 73 c 0
 273 32 254 -9 196 -9 c 0
 119 -9 80 68 80 108 c 2
 80 293 l 2
 80 372 147 450 245 450 c 0
 334 450 382 395 382 395 c 1
 391 521 293 539 241 539 c 0
 167 539 98 505 57 444 c 1
 31 467 l 1
 89 560 175 598 254 598 c 0
 360 598 454 530 454 433 c 2
 454 0 l 1
 381 0 l 1
 381 289 l 2
 381 353 330 401 265 401 c 0
 196 401 155 347 155 289 c 2
 156 154 l 1
190 28 m 0
 220 28 229 51 223 74 c 0
 217 96 196 118 166 118 c 0
 138 118 129 95 136 72 c 0
 142 50 162 28 190 28 c 0
EndSplineSet
EndChar
StartChar: uni0E26
Encoding: 166 3622 165
OldEncoding: 198
Width: 582
Flags: HW
HStem: -4 39<102 117> 392 44<103 134 103 265>
VStem: 101 73<155 335> 412 74<-240 417>
Fore
101 155 m 1
 101 326 l 2
 101 375 134 392 134 392 c 1
 52 392 l 1
 54 529 169 599 280 599 c 0
 385 599 486 536 486 410 c 2
 486 -240 l 1
 412 -240 l 25
 412 410 l 2
 412 507 343 549 270 549 c 0
 197 549 120 507 103 436 c 1
 265 436 l 1
 265 392 l 1
 219 392 l 2
 175 392 174 337 174 335 c 2
 174 83 l 2
 174 28 168 -4 117 -4 c 0
 62 -4 24 37 12 78 c 0
 1 119 17 159 69 159 c 0
 78 159 89 158 101 155 c 1
107 35 m 0
 136 35 145 57 138 80 c 0
 132 102 112 124 83 124 c 0
 53 124 44 102 50 80 c 0
 56 57 77 35 107 35 c 0
EndSplineSet
EndChar
StartChar: uni0E27
Encoding: 167 3623 166
OldEncoding: 199
Width: 481
Flags: HW
HStem: -6 37<280 293> 131 35<244 255> 545 53<184 207>
VStem: 308 74<145 443>
Back
351 155 m 5
 429 438 l 6
503 438 m 6
 415 118 l 5
206 80 m 0
 206 127 245 166 292 166 c 0
 340 166 378 127 378 80 c 0
 378 33 339 -6 292 -6 c 0
 244 -6 206 33 206 80 c 0
EndSplineSet
Fore
382 118 m 2
 382 41 362 -6 293 -6 c 0
 249 -6 197 31 185 77 c 0
 171 126 194 164 244 166 c 0
 265 166 295 156 308 145 c 1
 308 438 l 2
 308 502 252 545 189 545 c 0
 106 545 62 484 52 470 c 1
 17 479 l 1
 22 502 77 598 207 598 c 0
 298 598 382 531 382 438 c 2
 382 331 382 118 382 118 c 2
281 31 m 0
 313 31 322 56 315 80 c 0
 308 106 285 131 253 131 c 0
 221 131 213 106 220 82 c 0
 227 56 250 31 281 31 c 0
EndSplineSet
EndChar
StartChar: uni0E28
Encoding: 168 3624 167
OldEncoding: 200
Width: 561
Flags: HW
HStem: 0 21G<96 172 393 465> 273 36<255 264> 407 37<216 229> 553 46<216 259>
VStem: 33 44<413 427.368> 96 -19<224 413> 96 76<0 231> 393 72<0 417>
Back
264 301 m 5
 251 280 240 246 236 229 c 6
419 415 m 1
 448 427 480 447 511 473 c 0
508 422 m 1
 481 404 453 390 427 378 c 1
253 358 m 0
 253 405 292 444 339 444 c 0
 387 444 425 405 425 358 c 0
 425 311 386 272 339 272 c 0
 291 272 253 311 253 358 c 0
EndSplineSet
Fore
257 309 m 0
 290 309 299 333 292 357 c 0
 285 382 262 407 229 407 c 0
 198 407 189 383 196 359 c 0
 203 334 226 309 257 309 c 0
380 473 m 1
 356 535 299 553 235 553 c 0
 142 553 77 479 77 413 c 0
 77 369 91 335 118 321 c 1
 129 376 137 444 216 444 c 0
 246 444 280 426 294 409 c 1
 319 421 356 447 380 473 c 1
453 482 m 1
 462 461 465 433 465 401 c 2
 465 0 l 1
 393 0 l 1
 393 401 l 2
 393 409 393 415 391 422 c 1
 369 404 342 389 319 377 c 1
 341 328 328 273 262 273 c 0
 220 273 196 296 183 308 c 1
 175 287 172 246 172 229 c 2
 172 0 l 1
 96 0 l 1
 96 224 l 2
 96 266 33 310 33 413 c 0
 33 519 123 599 236 599 c 0
 308 599 375 584 419 536 c 1
 432 565 440 601 440 641 c 1
 440 641 511 642 511 641 c 1
 511 582 487 528 453 482 c 1
EndSplineSet
EndChar
StartChar: uni0E29
Encoding: 169 3625 168
OldEncoding: 201
Width: 634
Flags: HW
HStem: 0 45<106 451> 459 21G<96.5 161> 574 20G<463 535>
VStem: 156 76<45 426.844> 463 72<101 594>
Back
353 221 m 5
 432 178 539 273 558 344 c 6
369 496 m 6
 369 496 337 379 337 378 c 5
259 300 m 0
 260 349 299 388 348 388 c 0
 396 388 436 349 435 300 c 0
 435 251 396 212 347 212 c 0
 299 212 259 251 259 300 c 0
EndSplineSet
Fore
156 427 m 1
 143 423 126 421 113 425 c 0
 66 439 37 475 27 508 c 0
 15 553 36 598 93 598 c 0
 183 598 232 537.012 232 496 c 2
 232 496 232 387 232 386 c 1
 240 392 259 387 272 382 c 0
 303 370 331 352 347 314 c 0
 370 260 341 219 308 216 c 1
 386 188 463 273 463 344 c 2
 463 594 l 1
 535 594 l 25
 535 103 l 2
 535 51 510 0 451 0 c 2
 106 0 l 1
 106 45 l 1
 156 45 l 1
 156 427 l 1
126 459 m 0
 158 459 167 484 160 510 c 0
 153 535 130 560 98 560 c 0
 65 560 56 535 63 510 c 0
 70 484 93 459 126 459 c 0
280 255 m 0
 308 255 316 277 309 300 c 0
 303 323 282 346 254 346 c 0
 225 346 216 324 223 301 c 0
 229 278 251 255 280 255 c 0
232 212 m 0
 232 45 l 1
 402 45 l 2
 435 45 463 69 463 101 c 2
 463 240 l 1
 434 169 298 129 232 212 c 0
EndSplineSet
EndChar
StartChar: uni0E2A
Encoding: 170 3626 169
OldEncoding: 202
Width: 552
Flags: HW
HStem: -9 37<188 198>
VStem: 80 75<108 280> 381 73<0 440>
Fore
156 154 m 1
 214 149 251 111 262 73 c 0
 273 32 254 -9 196 -9 c 0
 119 -9 80 68 80 108 c 2
 80 270 l 2
 80 335 131 413 219 425 c 1
 260 442 308 467 349 501 c 1
 321 526 282 538 241 538 c 0
 170 538 93 503 57 444 c 1
 31 467 l 1
 91 564 175 598 251 598 c 0
 310 598 364 578 397 551 c 1
 416 576 432 607 440 641 c 1
 511 641 l 1
 503 588 470 545 432 510 c 1
 448 482 454 456 454 429 c 2
 454 0 l 1
 381 0 l 1
 381 250 l 2
 381 315 330 378 265 378 c 0
 196 378 154 324 155 266 c 2
 156 154 l 1
190 28 m 0
 220 28 229 51 223 74 c 0
 217 96 196 118 166 118 c 0
 138 118 129 95 136 72 c 0
 142 50 162 28 190 28 c 0
278 424 m 1
 353 409 382 356 382 356 c 1
 382 369 382 422 382 422 c 2
 382 436 380 452 375 465 c 1
 340 445 304 430 278 424 c 1
EndSplineSet
EndChar
StartChar: uni0E2B
Encoding: 171 3627 170
OldEncoding: 203
Width: 623
Flags: HW
HStem: 0 21G<150 224 450 525> 459 21G<89.5 154> 561 35<443 455>
VStem: 150 74<0 113 0 493> 450 75<0 386>
Back
290 244 m 5
 400.256 383.312 540.276 460.328 535 456 c 5
622 441 m 5
 622 441 641 418 631 384 c 6
548 422 m 5
 418 352 296 190 284 172 c 4
529 516 m 0
 529 560 565 596 609 596 c 0
 653 596 689 560 689 516 c 0
 689 472 653 436 609 436 c 0
 565 436 529 472 529 516 c 0
EndSplineSet
Fore
222 493 m 2
 222 244 l 1
 294 383 413 460 409 456 c 1
 397 469 390 484 385 500 c 0
 372 547 391 596 444 596 c 0
 495 596 534 556 546 515 c 0
 555 481 544 447 503 437 c 1
 503 437 525 418 525 384 c 2
 525 0 l 1
 450 0 l 1
 450 376 l 2
 450 406 431 422 431 422 c 1
 320 352 243 190 236 172 c 0
 229 147 224 127 224 109 c 2
 224 0 l 1
 150 0 l 1
 150 427 l 1
 137 423 122 421 109 425 c 0
 62 439 33 475 23 508 c 0
 11 553 32 598 89 598 c 0
 179 598 222.165 534.012 222 493 c 2
122 459 m 0
 154 459 163 484 156 510 c 0
 149 535 126 560 94 560 c 0
 61 560 52 535 59 510 c 0
 66 484 89 459 122 459 c 0
477 472 m 0
 506 472 515 495 509 517 c 0
 502 539 482 561 453 561 c 0
 426 561 418 538 424 516 c 0
 430 494 450 472 477 472 c 0
EndSplineSet
EndChar
StartChar: uni0E2C
Encoding: 172 3628 171
OldEncoding: 204
Width: 681
Flags: HW
HStem: 0 21G<151 226 506 583> 459 21G<90.5 155> 607 38<481 493>
VStem: 151 75<0 492> 506 77<126 502>
DStem: 358 425 358 556 506 0 506 126 358 556 358 425 226 121 226 0 358 425 358 556 506 0 506 126 358 556 358 425 226 121 226 0 358 425 358 556 506 0 506 126 358 556 358 425 226 121 226 0 358 425 358 556 506 0 506 126 358 556 358 425 226 121 226 0 358 425 358 556 506 0 506 126 358 556 358 425 226 121 226 0 358 425 358 556 506 0 506 126 358 556 358 425 226 121 226 0 358 425 358 556 506 0 506 126 358 556 358 425 226 121 226 0 358 425 358 556 506 0 506 126 358 556 358 425 226 121 226 0 358 425 358 556 506 0 506 126 358 556 358 425 226 121 226 0 358 425 358 556 506 0 506 126 358 556 358 425 226 121 226 0 358 425 358 556 506 0 506 126 358 556 358 425 226 121 226 0 358 425 358 556 506 0 506 126 358 556 358 425 226 121 226 0 358 425 358 556 506 0 506 126 358 556 358 425 226 121 226 0 358 425 358 556 506 0 506 126 358 556 358 425 226 121 226 0 358 425 358 556 506 0 506 126 358 556 358 425 226 121 226 0 358 425 358 556 506 0 506 126 358 556 358 425 226 121 226 0 358 425 358 556 506 0 506 126 358 556 358 425 226 121 226 0 358 425 358 556 506 0 506 126 358 556 358 425 226 121 226 0 358 425 358 556 506 0 506 126 358 556 358 425 226 121 226 0 358 425 358 556 506 0 506 126 358 556 358 425 226 121 226 0 358 425 358 556 506 0 506 126 358 556 358 425 226 121 226 0 358 425 358 556 506 0 506 126 358 556 358 425 226 121 226 0 358 425 358 556 506 0 506 126 358 556 358 425 226 121 226 0 358 425 358 556 506 0 506 126 358 556 358 425 226 121 226 0
Back
541 126 m 5
 638 475 l 5
741 562 m 5
 779 607 784 639 787 659 c 5
850 659 m 4
 813 536 722 502 722 502 c 5
 583 0 l 5
575 560 m 0
 575 606 613 644 660 644 c 0
 706 644 743 606 743 560 c 0
 744 514 706 476 659 476 c 0
 613 476 576 514 575 560 c 0
EndSplineSet
Fore
151 427 m 1
 138 423 124 421 111 425 c 0
 64 439 35 475 25 508 c 0
 13 553 34 598 91 598 c 0
 181 598 226 537.012 226 496 c 2
 226 121 l 1
 358 556 l 1
 506 126 l 1
 506 478 l 1
 459 491 429 526 420 560 c 0
 408 603 428 645 483 645 c 0
 539 645 584 584 586 564 c 1
 611 609 607 639 604 659 c 1
 667 659 l 17
 664 536 583 502 583 502 c 1
 583 0 l 1
 506 0 l 1
 358 425 l 1
 226 0 l 1
 151 0 l 1
 151 427 l 1
124 459 m 0
 156 459 165 484 158 510 c 0
 151 535 128 560 96 560 c 0
 63 560 54 535 61 510 c 0
 68 484 91 459 124 459 c 0
517 516 m 0
 545 516 552 538 546 561 c 0
 540 584 519 607 491 607 c 0
 462 607 454 585 460 562 c 0
 466 539 488 516 517 516 c 0
EndSplineSet
EndChar
StartChar: uni0E2D
Encoding: 173 3629 172
OldEncoding: 205
Width: 553
Flags: HW
HStem: -8 21G<229 288.5> 548 46<230 248>
VStem: 79 75<130 286> 380 76<130 431>
Back
120 147 m 6
 170 327 l 6
232 280 m 5
 191 132 l 5
199 358 m 0
 200 407 239 446 288 446 c 0
 336 446 376 407 375 358 c 0
 375 309 336 270 287 270 c 0
 239 270 199 309 199 358 c 0
EndSplineSet
Fore
456 146 m 2
 456 18 315 -8 262 -8 c 0
 196 -8 79 15 79 147 c 2
 79 327 l 2
 79 367 93 452 166 446 c 0
 227 441 263 402 274 362 c 0
 287 316 267 270 215 270 c 0
 199 270 178 275 155 286 c 1
 155 132 l 2
 155 68 212 36 268 36 c 0
 324 36 380 67 380 132 c 2
 380 425 l 2
 380 488 330 552 238 552 c 0
 134 552 95 500 68 468 c 1
 39 489 l 1
 72 531 128 598 243 598 c 0
 369 598 456 523 456 433 c 2
 456 146 l 2
205 309 m 0
 238 309 247 334 241 358 c 0
 234 384 210 409 177 409 c 0
 144 409 134 384 141 360 c 0
 148 334 172 309 205 309 c 0
EndSplineSet
EndChar
StartChar: uni0E2E
Encoding: 174 3630 173
OldEncoding: 206
Width: 553
Flags: HW
HStem: -8 21G<229 288.5> 553 43<212 254>
VStem: 79 75<130 201> 380 76<130 446>
Fore
154 201 m 1
 154 132 l 2
 154 68 211 36 268 36 c 0
 324 36 380 67 380 132 c 2
 380 421 l 2
 380 432 381 450 377 461 c 1
 333 421 272 403 215 403 c 0
 141 403 75 433 63 485 c 0
 50 553 151 596 235 596 c 0
 314 596 364 565 378 559 c 1
 383 571 387 584 387 602 c 1
 464 602 l 17
 457 567 446 542 429 516 c 1
 446 495 456 458 456 429 c 2
 456 146 l 2
 456 18 315 -8 262 -8 c 0
 196 -8 79 15 79 147 c 2
 79 243 l 2
 79 283 93 368 166 362 c 0
 227 357 263 318 274 278 c 0
 287 232 267 185 214 185 c 0
 198 185 178 190 154 201 c 1
205 225 m 0
 238 225 247 250 240 275 c 0
 233 300 210 325 177 325 c 0
 144 325 134 300 141 275 c 0
 148 250 172 225 205 225 c 0
350 508 m 1
 333 531 296 553 233 553 c 0
 188 553 96 539 107 490 c 0
 114 462 159 444 209 444 c 0
 261 444 319 463 350 508 c 1
EndSplineSet
EndChar
StartChar: uni0E2F
Encoding: 175 3631 174
OldEncoding: 207
Width: 514
Flags: HW
HStem: 556 40<91 103>
VStem: 331 74<3 591>
Back
459.956 465 m 5
 355.879 389 219.703 410 189.468 438 c 4
309.124 462 m 5
 444.351 452 489.353 571 494.898 591 c 5
169.99 512 m 0
 169.99 558.368 207.622 596 253.99 596 c 0
 300.357 596 337.99 558.368 337.99 512 c 0
 337.99 465.632 300.358 428 253.99 428 c 0
 207.623 428 169.99 465.632 169.99 512 c 0
EndSplineSet
Fore
405 0 m 1
 331 0 l 1
 331 465 l 1
 288 426 230 412 179 412 c 0
 130 412 86 424 68 438 c 0
 45 454 31 476 25 498 c 0
 12 546 35 596 91 596 c 0
 133 596 174 562 188 534 c 0
 208 494 194 462 194 462 c 1
 320 460 331 571 331 591 c 1
 405 591 l 1
 405 0 l 1
127 465 m 0
 156 465 164 487 158 510 c 0
 151 533 130 556 101 556 c 0
 72 556 63 534 70 511 c 0
 76 488 97 465 127 465 c 0
EndSplineSet
EndChar
StartChar: uni0E30
Encoding: 176 3632 175
OldEncoding: 208
Width: 438
Flags: HW
HStem: 141 31<104 116> 551 30<103 117>
Back
199.144 51 m 1
 274.479 45 327.682 89 352.868 169 c 1
312.847 461 m 1
 388.183 455 441.385 499 466.571 579 c 1
75.1777 98 m 0
 75.1777 139.952 109.227 174 151.178 174 c 0
 193.13 174 227.178 139.952 227.178 98 c 0
 227.178 56.0479 193.13 22 151.179 22 c 0
 109.227 22 75.1777 56.0479 75.1777 98 c 0
188.326 506 m 0
 188.326 547.952 222.375 582 264.327 582 c 0
 306.278 582 340.326 547.952 340.326 506 c 0
 340.326 464.048 306.278 430 264.327 430 c 0
 222.375 430 188.326 464.048 188.326 506 c 0
EndSplineSet
Fore
364 579 m 17
 347 445 246 406 148 418 c 1
 148 418 76 424 52 492 c 0
 41 523 39 581 103 581 c 0
 139 581 174 558 192 525 c 0
 212 489 198 461 198 461 c 1
 263 459 303 499 306 579 c 1
 364 579 l 17
148 8 m 1
 148 8 76 14 52 82 c 0
 41 113 41 172 105 172 c 0
 141 172 174 148 192 115 c 0
 212 79 198 51 198 51 c 1
 260 48 303 89 306 169 c 1
 364 169 l 17
 347 35 246 -3 148 8 c 1
136 468 m 0
 162 468 169 489 164 510 c 0
 158 530 139 551 113 551 c 0
 86 551 78 530 84 510 c 0
 90 489 109 468 136 468 c 0
137 58 m 0
 163 58 170 79 164 100 c 0
 159 120 140 141 114 141 c 0
 87 141 79 120 85 100 c 0
 91 79 110 58 137 58 c 0
EndSplineSet
EndChar
StartChar: uni0E31
Encoding: 177 3633 176
OldEncoding: 209
Width: 0
Flags: HW
HStem: 874 40<-279 -268>
AnchorPoint: "AboveMark" -101.077 967.68 basemark 0
AnchorPoint: "AboveBase" -101.075 645.12 mark 0
Back
-12 745 m 5
 113 691 244 770 303 911 c 5
-117 826 m 0
 -116 875 -78 914 -29 914 c 0
 19 914 60 875 59 826 c 0
 58 777 20 738 -29 738 c 0
 -77 738 -118 777 -117 826 c 0
EndSplineSet
Fore
134 911 m 17
 99 747 -28 676 -143 676 c 0
 -207 676 -267 697 -306 737 c 0
 -329 760 -344 785 -350 808 c 0
 -366 865 -336 914 -282 914 c 0
 -279 914 l 0
 -241 914 -188 880 -174 838 c 0
 -147 754 -210 742 -210 742 c 1
 -183 732 -157 728 -132 728 c 0
 -37 728 35 799 50 911 c 1
 134 911 l 17
-244 782 m 0
 -216 782 -208 805 -214 827 c 0
 -221 851 -242 874 -270 874 c 0
 -301 874 -309 851 -303 829 c 0
 -297 805 -275 782 -244 782 c 0
EndSplineSet
EndChar
StartChar: uni0E32
Encoding: 178 3634 177
OldEncoding: 210
Width: 407
Flags: HW
HStem: 558 44<138 155>
VStem: 235 76<3 468>
Fore
311 0 m 1
 235 0 l 1
 235 456 l 2
 235 512 202 555 144 555 c 0
 79 555 32 513 17 496 c 1
 17 539 l 1
 35 559 79 599 154 599 c 0
 254 599 311 555 311 461 c 2
 311 0 l 1
EndSplineSet
EndChar
StartChar: uni0E33
Encoding: 179 3635 178
OldEncoding: 211
Width: 407
Flags: HW
HStem: 558 44<142 156> 685 43<-113 -100> 829 47<-152 -137>
VStem: 235 76<3 468>
Fore
311 0 m 1
 235 0 l 1
 235 456 l 2
 235 512 202 555 144 555 c 0
 79 555 32 513 17 496 c 1
 17 539 l 1
 35 559 79 599 154 599 c 0
 254 599 311 555 311 461 c 2
 311 0 l 1
-100 685 m 0
 -161 685 -204 732 -217 780 c 0
 -231 828 -213 876 -152 876 c 0
 -92 876 -49 829 -36 781 c 0
 -23 733 -40 685 -100 685 c 0
-77 779 m 0
 -85 808 -112 829 -139 829 c 0
 -167 829 -183 808 -175 779 c 0
 -167 751 -139 728 -111 728 c 0
 -84 728 -69 751 -77 779 c 0
EndSplineSet
MultipleSubs: 0 1 'ccmp' uni0E4D uni0E32
EndChar
StartChar: uni0E34
Encoding: 180 3636 179
OldEncoding: 212
Width: 0
Flags: HW
AnchorPoint: "AboveMark" -137.699 967.68 basemark 0
AnchorPoint: "AboveBase" -101.077 645.12 mark 0
Fore
-80 651 m 1
 -120 671 -200 713 -298 730 c 0
 -399 748 -459 737 -510 728 c 1
 -484 823 -399 900 -293 892 c 0
 -169 883 -90 796 -80 651 c 1
-134 717 m 1
 -170 808 -227 837 -296 843 c 0
 -361 849 -410 820 -437 777 c 1
 -396 782 -350 780 -298 773 c 0
 -213 760 -134 717 -134 717 c 1
EndSplineSet
EndChar
StartChar: uni0E35
Encoding: 181 3637 180
OldEncoding: 213
Width: 0
Flags: HW
VStem: -173 72<849 951>
AnchorPoint: "AboveMark" -137.699 967.68 basemark 0
AnchorPoint: "AboveBase" -101.077 645.12 mark 0
Fore
-173 849 m 9
 -173 951 l 1
 -101 951 l 1
 -101 951 -101 753 -101 751 c 0
 -90 722 -84 688 -80 651 c 1
 -120 671 -200 713 -298 730 c 0
 -399 748 -459 737 -510 728 c 1
 -484 823 -399 900 -293 892 c 0
 -246 889 -205 874 -173 849 c 9
-134 717 m 1
 -170 808 -227 837 -296 843 c 0
 -361 849 -410 820 -437 777 c 1
 -396 782 -350 780 -298 773 c 0
 -213 760 -134 717 -134 717 c 1
EndSplineSet
EndChar
StartChar: uni0E36
Encoding: 182 3638 181
OldEncoding: 214
Width: 0
Flags: HW
HStem: 906 48<-161 -148>
AnchorPoint: "AboveMark" -136.234 967.68 basemark 0
AnchorPoint: "AboveBase" -101.075 645.12 mark 0
Back
-48 894 m 5
 -5 889 23 874 23 874 c 5
102 780 m 5
 102 780 118 731 101 651 c 4
9 864 m 0
 8 914 49 954 99 954 c 0
 149 954 188 914 189 864 c 0
 189 814 149 774 99 774 c 0
 49 774 9 814 9 864 c 0
EndSplineSet
Fore
-80 651 m 1
 -139 684 -235 722 -309 731 c 0
 -410 748 -470 736 -508 728 c 1
 -487 822 -400 899 -296 894 c 1
 -252 889 -234 880 -234 880 c 1
 -236 898 -233 954 -161 954 c 0
 -107 954 -63 908 -50 862 c 0
 -39 821 -53 780 -111 774 c 1
 -111 774 -85 731 -80 651 c 1
-124 820 m 0
 -96 820 -88 842 -94 863 c 0
 -100 884 -120 906 -148 906 c 0
 -177 906 -186 884 -180 863 c 0
 -174 842 -153 820 -124 820 c 0
-134 717 m 1
 -170 808 -227 837 -296 843 c 0
 -361 849 -410 820 -437 777 c 1
 -396 782 -350 780 -298 773 c 0
 -213 760 -134 717 -134 717 c 1
EndSplineSet
EndChar
StartChar: uni0E37
Encoding: 183 3639 182
OldEncoding: 215
Width: 0
Flags: HW
VStem: -296 67<876 951> -167 66<831 951>
AnchorPoint: "AboveMark" -197.759 967.68 basemark 0
AnchorPoint: "AboveBase" -101.077 645.12 mark 0
Fore
-79 648 m 1
 -145 684 -222 714 -308 728 c 0
 -393 742 -450 737 -506 725 c 1
 -463 888 -296 876 -296 876 c 1
 -295 951 l 1
 -229 951 l 1
 -227 863 l 1
 -191 852 -167 831 -167 831 c 1
 -166 951 l 1
 -101 951 l 1
 -99 743 l 1
 -99 743 -84 714 -79 648 c 1
-134 714 m 1
 -161 788 -214 823 -296 829 c 0
 -350 834 -405 816 -440 773 c 1
 -400 779 -355 776 -295 768 c 0
 -216 757 -134 714 -134 714 c 1
EndSplineSet
EndChar
StartChar: uni0E38
Encoding: 184 3640 183
OldEncoding: 216
Width: 0
Flags: HW
VStem: -175 76<-307 -155>
AnchorPoint: "BelowBase" -99.6123 -69.1201 mark 0
Back
-260 -307 m 5
 -234 -214 l 5
-227 -69 m 4
 -166 -66 -130 -95 -142 -155 c 5
-321 -145 m 0
 -322 -103 -287 -69 -245 -69 c 0
 -203 -69 -170 -103 -169 -145 c 0
 -169 -187 -203 -221 -245 -221 c 0
 -287 -221 -321 -187 -321 -145 c 0
EndSplineSet
Fore
-99 -307 m 1
 -175 -307 l 1
 -175 -220 l 1
 -179 -221 -187 -224 -209 -217 c 0
 -246 -205 -273 -174 -281 -144 c 0
 -291 -107 -276 -71 -224 -69 c 0
 -146 -66 -104 -95 -99 -155 c 1
 -99 -307 l 1
-197 -184 m 0
 -171 -184 -164 -164 -169 -144 c 0
 -175 -124 -193 -104 -219 -104 c 0
 -245 -104 -252 -124 -246 -144 c 0
 -241 -164 -222 -184 -197 -184 c 0
EndSplineSet
EndChar
StartChar: uni0E39
Encoding: 185 3641 184
OldEncoding: 217
Width: 0
Flags: HW
HStem: -307 34<-207 -189>
VStem: -286 49<-239 -157> -175 76<-238 -69>
AnchorPoint: "BelowBase" -99.6123 -69.1201 mark 0
Back
-349 -226 m 6
 -342 -201 l 5
-336 -69 m 4
 -278 -69 -265 -106 -281 -157 c 5
-424 -137 m 0
 -423 -99 -393 -69 -356 -69 c 0
 -318 -69 -287 -99 -288 -137 c 0
 -289 -175 -319 -205 -356 -205 c 0
 -394 -205 -425 -175 -424 -137 c 0
EndSplineSet
Fore
-99 -212 m 2
 -99 -264 -131 -307 -189 -307 c 0
 -248 -307 -286 -275 -286 -226 c 2
 -287 -204 l 1
 -290 -206 -297 -207 -317 -202 c 0
 -353 -195 -378 -166 -386 -137 c 0
 -395 -104 -381 -71 -334 -68 c 0
 -257 -64 -237 -106 -237 -157 c 2
 -237 -238 l 2
 -237 -257.24 -226 -273 -207 -273 c 0
 -186 -273 -175 -261 -175 -238 c 2
 -175 -69 l 1
 -99 -69 l 1
 -99 -212 l 2
-282 -140 m 0
 -288 -117 -310 -101 -329 -101 c 0
 -350 -101 -362 -117 -356 -140 c 0
 -351 -158 -328 -178 -307 -178 c 0
 -288 -178 -277 -158 -282 -140 c 0
EndSplineSet
EndChar
StartChar: uni0E3A
Encoding: 186 3642 185
OldEncoding: 218
Width: 0
Flags: HW
AnchorPoint: "BelowBase" -99.6123 -58.3682 mark 0
Fore
-119 -161 m 0
 -154 -161 -179 -134 -187 -108 c 0
 -194 -82 -184 -55 -149 -55 c 0
 -117 -55 -95 -81 -87 -108 c 0
 -80 -134 -88 -161 -119 -161 c 0
EndSplineSet
EndChar
StartChar: zerospace
Encoding: 188 8203 186
OldEncoding: 220
Width: 798
Flags: HW
HStem: 0 60<98 611>
VStem: 98 66<-183 -38> 667 66<-183 60>
Fore
733 -183 m 1
 667 -183 l 1
 667 -52 l 2
 667 -17 647 0 605 0 c 2
 215 0 l 2
 181 0 164 -15 164 -48 c 2
 164 -183 l 1
 98 -183 l 1
 98 60 l 1
 733 60 l 1
 733 -183 l 1
EndSplineSet
EndChar
StartChar: dottedcircle
Encoding: 189 9676 187
OldEncoding: 221
Width: 618
Flags: W
HStem: 5 36<322 332> 41 39<180 190> 52 39<445 455> 134 36<85 95> 146 37<523 533> 276 37<558 568> 283 36<49 59> 412 37<523 533> 501 38<433 443> 508 37<189 199> 544 37<320 330>
Fore
82 453 m 2
178 544 m 2
168 78 m 2
74 169 m 2
435 88 m 2
512 181 m 2
512 447 m 2
424 536 m 2
547 312 m 2
39 318 m 2
310 579 m 2
91 455 m 0,11,12
 102 455 111 445 114 436 c 0,13,14
 117 425 112 416 101 416 c 0,15,16
 92 416 82 425 79 436 c 0,17,18
 76 445 82 455 91 455 c 0,11,12
189 545 m 0,19,20
 199 545 210 538 213 527 c 0,21,22
 215 518 209 508 199 508 c 0,23,24
 190 508 177 518 175 527 c 0,25,26
 172 538 180 545 189 545 c 0,19,20
180 80 m 0,27,28
 189 80 199 71 202 61 c 0,29,30
 205 51 199 41 190 41 c 0,31,32
 180 41 169 51 166 61 c 0,33,34
 163 71 170 80 180 80 c 0,27,28
85 170 m 0,35,36
 94 170 104 163 107 152 c 0,37,38
 110 141 104 134 95 134 c 0,39,40
 84 134 75 141 72 152 c 0,41,42
 69 163 74 170 85 170 c 0,35,36
445 91 m 0,43,44
 455 91 464 81 467 71 c 0,45,46
 470 61 465 52 455 52 c 0,47,48
 446 52 435 61 432 71 c 0,49,50
 429 81 436 91 445 91 c 0,43,44
523 183 m 0,51,52
 534 183 543 175 546 164 c 0,53,54
 549 154 544 146 533 146 c 0,55,56
 524 146 514 154 511 164 c 0,57,58
 508 175 514 183 523 183 c 0,51,52
523 449 m 0,59,60
 534 449 543 441 546 430 c 0,61,62
 549 419 544 412 533 412 c 0,63,64
 524 412 514 419 511 430 c 0,65,66
 508 441 514 449 523 449 c 0,59,60
433 539 m 0,67,68
 443 539 454 530 457 519 c 0,69,70
 460 510 453 501 443 501 c 0,71,72
 434 501 424 510 421 519 c 0,73,74
 418 530 424 539 433 539 c 0,67,68
558 313 m 0,75,76
 568 313 579 306 582 295 c 0,77,78
 585 284 578 276 568 276 c 0,79,80
 559 276 548 284 545 295 c 0,81,82
 542 306 549 313 558 313 c 0,75,76
49 319 m 0,83,84
 60 319 69 312 72 301 c 0,85,86
 74 292 70 283 59 283 c 0,87,88
 49 283 38 292 36 301 c 0,89,90
 33 312 39 319 49 319 c 0,83,84
322 41 m 0,91,92
 332 41 341 34 344 23 c 0,93,94
 347 12 342 5 332 5 c 0,95,96
 323 5 312 12 309 23 c 0,97,98
 306 34 313 41 322 41 c 0,91,92
320 581 m 0,99,100
 331 581 340 571 342 562 c 0,101,102
 345 551 341 544 330 544 c 0,103,104
 322 544 311 551 308 562 c 0,105,106
 306 571 312 581 320 581 c 0,99,100
EndSplineSet
EndChar
StartChar: uni0E3F
Encoding: 190 3647 188
OldEncoding: 223
Width: 717
Flags: HW
HStem: 3 17<33 33 33 320> 359 40<235 320> 707 15<33 52 33 77>
VStem: 134 100<85 359 88 650> 320 65<-106 3 38 349 399 674 723 822> 494 102<533 551> 516 113<181 215>
Fore
629 200 m 0xfa
 629 200 l 0xfa
 629 77 535 11 387 3 c 1
 385 -106 l 1
 322 -106 l 1
 320 2 l 1
 33 3 l 1
 33 20 l 1
 120 20 134 54 134 88 c 2
 134 637 l 2
 134 670 120 705 33 707 c 1
 33 722 l 1
 65 722 318 723 320 723 c 1
 322 822 l 1
 385 822 l 1
 387 720 l 1
 506 708 596 656 596 541 c 0xfc
 596 450 538 404 459 382 c 1
 459 376 l 1
 547 359 629 304 629 200 c 0xfa
494 536 m 0
 494 614 451 659 387 674 c 1
 387 406 l 1
 453 422 494 467 494 536 c 0
320 399 m 1
 320 684 l 0
 259 687 235 682 235 650 c 2
 235 399 l 1
 320 399 l 1
320 38 m 9
 320 359 l 0
 312 359 235 359 235 359 c 1
 235 100 l 2
 235 60 246 38 320 38 c 9
516 203 m 0xfa
 516 292 456 333 387 349 c 1
 387 45 l 1
 463 58 516 100 516 203 c 0xfa
EndSplineSet
EndChar
StartChar: uni0E40
Encoding: 191 3648 189
OldEncoding: 224
Width: 321
Flags: HW
HStem: -6 41<193 211> 574 20G<93 169>
VStem: 93 76<109 594>
Back
190 -5 m 4
 125 -5 108 54 123 109 c 2
334 594 m 1
 214 164 l 1
124 80 m 0
 124 127 163 166 210 166 c 0
 258 166 296 127 296 80 c 0
 296 33 257 -6 210 -6 c 0
 162 -6 124 33 124 80 c 0
EndSplineSet
Fore
193 162 m 0
 236 147 264 114 273 80 c 0
 285 37 266 -6 209 -6 c 0
 120 -6 93 57 93 109 c 2
 93 594 l 1
 169 594 l 1
 169 167 l 1
 169 167 183 166 193 162 c 0
204 35 m 0
 234 35 243 58 236 80 c 0
 230 104 208 127 178 127 c 0
 149 127 140 104 147 82 c 0
 153 58 175 35 204 35 c 0
EndSplineSet
EndChar
StartChar: uni0E41
Encoding: 192 3649 190
OldEncoding: 225
Width: 580
Flags: HW
HStem: -6 41<193 211 450 468> 574 20G<93 169 350 426>
VStem: 93 76<109 594> 350 76<109 594>
Fore
426 167 m 1
 426 167 440 166 450 162 c 0
 493 147 521 114 530 80 c 0
 542 37 523 -6 466 -6 c 0
 377 -6 350 57 350 109 c 2
 350 594 l 1
 426 594 l 1
 426 167 l 1
461 35 m 0
 491 35 500 58 493 80 c 0
 487 104 465 127 435 127 c 0
 406 127 397 104 404 82 c 0
 410 58 432 35 461 35 c 0
169 167 m 1
 169 167 183 166 193 162 c 0
 236 147 264 114 273 80 c 0
 285 37 266 -6 209 -6 c 0
 120 -6 93 57 93 109 c 2
 93 594 l 1
 169 594 l 1
 169 167 l 1
204 35 m 0
 234 35 243 58 236 80 c 0
 230 104 208 127 178 127 c 0
 149 127 140 104 147 82 c 0
 153 58 175 35 204 35 c 0
EndSplineSet
EndChar
StartChar: uni0E42
Encoding: 193 3650 191
OldEncoding: 226
Width: 315
Flags: HW
HStem: -4 39<223 238> 127 40<202 206>
VStem: 128 74<106 694>
DStem: -50 836 3 860 93 757 159 770
Back
394 694 m 5
 247 164 l 5
157 106 m 6
 322 700 l 5
152 82 m 0
 152 129 191 168 238 168 c 0
 286 168 324 129 324 82 c 0
 324 35 285 -4 238 -4 c 0
 190 -4 152 35 152 82 c 0
EndSplineSet
Fore
318 909 m 0
 279 777 178 845 177 845 c 0
 116 879 80 892 55 892 c 0
 28 892 16 878 3 860 c 1
 159 770 l 2
 175 760 205 743 202 694 c 2
 202 167 l 1
 209 167 219 164 222 163 c 0
 264 149 290 116 299 84 c 0
 311 40 291 -4 236 -4 c 0
 183 -4 128 51 128 106 c 2
 128 700 l 2
 129 719 128 739 93 757 c 2
 -50 836 l 1
 -38 862 2 955 76 958 c 0
 126 961 214 903 269 903 c 0
 284 903 297 907 306 919 c 0
 314 926 322 923 318 909 c 0
229 35 m 0
 258 35 265 58 259 80 c 0
 253 104 232 127 203 127 c 0
 173 127 165 104 171 82 c 0
 177 58 199 35 229 35 c 0
EndSplineSet
EndChar
StartChar: uni0E43
Encoding: 194 3651 192
OldEncoding: 227
Width: 345
Flags: HW
HStem: -4 39<243 258> 127 40<222 226> 678 41<42 58> 908 50<72 84>
VStem: 148 74<106 828>
Back
178 828 m 4
 206 900 268 958 350 958 c 4
178 828 m 1
 159 768 153 679 224 679 c 0
212 803 m 1
 231 868 271 908 326 908 c 0
176 754 m 0
 176 784 206 830 246 830 c 0
 288 830 319 796 319 754 c 0
 319 712 288 678 246 678 c 0
 204 678 176 712 176 754 c 0
EndSplineSet
Fore
222 167 m 1
 229 167 239 164 242 163 c 0
 284 149 310 116 319 84 c 0
 331 40 311 -4 256 -4 c 0
 203 -4 148 51 148 106 c 2
 148 811 l 2
 148 862 121 906 74 908 c 0
 19 908 -4 870 -9 822 c 1
 10 837 36 828 44 825 c 0
 80 811 102 783 110 755 c 0
 120 716 104 678 58 678 c 0
 -40 678 -57 779 -52 828 c 0
 -44 900 2 958 84 958 c 0
 173 958 222 892 222 808 c 2
 222 167 l 1
249 35 m 0
 278 35 285 58 279 80 c 0
 273 104 252 127 223 127 c 0
 193 127 185 104 191 82 c 0
 197 58 219 35 249 35 c 0
28 793 m 0
 4 793 -4 777 2 756 c 0
 6 740 21 719 46 719 c 0
 70 719 77 738 72 757 c 0
 67 775 51 793 28 793 c 0
EndSplineSet
EndChar
StartChar: uni0E44
Encoding: 195 3652 193
OldEncoding: 228
Width: 384
Flags: HW
HStem: -4 39<289 304> 127 40<264 271> 654 37<66 76> 919 39<167 186>
VStem: -9 56<719 931> 103 34<715 883> 194 71<106 885>
Fore
265 167 m 1
 272 167 285 164 288 163 c 0
 330 149 356 116 365 84 c 0
 377 40 357 -4 302 -4 c 0
 249 -4 194 51 194 106 c 2
 194 883 l 2
 194 905 183 919 167 919 c 0
 147 919 137 900 137 883 c 2
 137 730 l 2
 137 688 117 654 68 654 c 0
 19 653 -9 690 -9 734 c 2
 -9 909 l 2
 -9 919 -8 929 -22 945 c 0
 -33 957 -39 958 -52 971 c 2
 -63 983 -50 992 -36 983 c 2
 28 962 l 2
 49 949 47 942 47 931 c 2
 47 720 l 2
 47 703 57 691 74 691 c 0
 90 691 103 702 103 720 c 2
 103 866 l 2
 103 917 128 958 186 958 c 0
 243 958 265 914 265 871 c 2
 265 167 l 1
295 35 m 0
 324 35 331 58 325 80 c 0
 319 104 298 127 269 127 c 0
 239 127 231 104 237 82 c 0
 243 58 265 35 295 35 c 0
EndSplineSet
EndChar
StartChar: uni0E45
Encoding: 196 3653 194
OldEncoding: 229
Width: 289
Flags: HW
HStem: 558 44<22 38>
VStem: 117 76<-240 466>
Fore
117 -240 m 1
 117 456 l 2
 117 512 85 555 27 555 c 0
 -38 555 -85 513 -99 496 c 1
 -99 539 l 1
 -82 559 -38 599 36 599 c 0
 136 599 194 555 194 461 c 2
 194 -240 l 1
 117 -240 l 1
EndSplineSet
EndChar
StartChar: uni0E46
Encoding: 197 3654 195
OldEncoding: 230
Width: 670
Flags: HW
HStem: 262 33<324 342>
VStem: 492 74<-240 481>
Back
463 524 m 1
 412 499 382 429 381 399 c 1
396 263 m 0
 313 263 315 350 336 424 c 0
 351 479 408 565 484 598 c 1
344 340 m 0
 344 388 370 416 418 416 c 0
 458 416 492 383 492 340 c 0
 492 297 459 262 418 262 c 0
 378 262 344 297 344 340 c 0
EndSplineSet
Fore
492 -240 m 0
 492 464 l 2
 492 504 479 518 457 524 c 1
 387 455 l 1
 374 468 318 524 318 524 c 1
 274 499 265 432 269 410 c 1
 269 410 296 422 326 412 c 0
 364 400 390 370 398 340 c 0
 409 301 392 262 340 262 c 0
 238 262 219 342 218 424 c 0
 218 479 251 565 318 598 c 1
 387 528 l 1
 457 599 l 1
 545 598 566 527 566 464 c 2
 566 -240 l 1
 492 -240 l 0
335 295 m 0
 364 295 372 317 366 338 c 0
 360 360 340 382 311 382 c 0
 284 382 276 360 282 338 c 0
 288 317 308 295 335 295 c 0
EndSplineSet
EndChar
StartChar: uni0E47
Encoding: 198 3655 196
OldEncoding: 231
Width: 0
Flags: HW
HStem: 668 94<-397 -396.949> 757 57<-343 -336>
AnchorPoint: "AboveMark" -276.861 645.12 mark 0
AnchorPoint: "AboveBase" -124.515 645.12 mark 0
Back
-126 757 m 4
 -171 756 -188 685 -178 668 c 5
-113 814 m 0
 -53 814 -53 753 -30 739 c 1
21 668 m 0
 -91 671 -71 759 -126 757 c 0
-28 752 m 0
 -29 814 6 834 47 834 c 0
 88 834 120 798 121 752 c 0
 121 706 87 668 46 668 c 0
 5 668 -28 706 -28 752 c 0
EndSplineSet
Fore
-72 1028 m 17
 -72 919 -140 868 -286 892 c 0
 -356 905 -397 903 -409 837 c 0
 -415 806 -405 773 -397 762 c 1x80
 -397 762 -396 814 -339 814 c 0x40
 -276 814 -256 742 -230 737 c 1
 -230 737 -235 747 -238 756 c 0
 -254 809 -225 834 -188 834 c 0
 -149 834 -102 806 -88 753 c 0
 -73 696 -107 668 -140 668 c 0x80
 -298 668 -270 759 -336 757 c 0x40
 -381 756 -378 685 -363 668 c 1
 -402 668 l 1
 -445 705 -482 785 -462 865 c 0
 -450 911 -416 963 -273 943 c 0
 -185 931 -140 935 -147 1028 c 1
 -72 1028 l 17
-125 753 m 0
 -133 781 -157 795 -177 795 c 0
 -197 795 -213 781 -205 754 c 0
 -205 753 l 0
 -197 726 -174 712 -154 712 c 0
 -134 712 -117 726 -125 753 c 0
EndSplineSet
EndChar
StartChar: uni0E48
Encoding: 199 3656 197
OldEncoding: 232
Width: 0
Flags: W
VStem: -169 72<1009 1210>
AnchorPoint: "AboveMark" -133.305 967.68 mark 0
Fore
-97 1210 m 1
 -97 1009 l 5
 -169 1009 l 1
 -169 1210 l 1
 -97 1210 l 1
EndSplineSet
Substitution: 0 65534 'loww' uni0E48.low
Substitution: 0 65534 'amni' uni0E4D
EndChar
StartChar: uni0E49
Encoding: 200 3657 198
OldEncoding: 233
Width: 0
Flags: HW
HStem: 1066 34<-177 -173> 1184 36<-209 -198>
AnchorPoint: "AboveMark" -52.7354 967.68 mark 0
Back
48 1008 m 5
 58 1011 100 1032 123 1066 c 5
205 1143 m 5
 182 1061 128 1021 128 1021 c 5
53 1144 m 0
 53 1186 87 1220 129 1220 c 0
 171 1220 205 1186 205 1144 c 0
 205 1102 171 1066 129 1066 c 0
 77 1066 53 1102 53 1144 c 0
EndSplineSet
Fore
128 1213 m 17
 107 1040 -62 951 -232 978 c 1
 -232 1008 l 1
 -222 1011 -186 1032 -173 1066 c 1
 -176 1066 l 1
 -176 1066 -182 1066 -192 1069 c 0
 -230 1079 -255 1110 -263 1140 c 0
 -274 1180 -258 1220 -207 1220 c 0
 -167 1220 -119 1184 -111 1135 c 0
 -101 1080 -155 1021 -155 1021 c 1
 -159 1017 l 1
 -71 1025 47 1087 52 1213 c 1
 128 1213 l 17
-176 1100 m 0
 -149 1100 -142 1121 -148 1141 c 0
 -153 1163 -173 1184 -200 1184 c 0
 -229 1184 -237 1163 -231 1143 c 0
 -225 1121 -205 1100 -176 1100 c 0
EndSplineSet
Substitution: 0 65534 'loww' uni0E49.low
Substitution: 0 65534 'amni' uni0E4D
EndChar
StartChar: uni0E4A
Encoding: 201 3658 199
OldEncoding: 234
Width: 0
Flags: HW
AnchorPoint: "AboveMark" -102.542 967.68 mark 0
Back
152 1172 m 5
 117 1172 78 1129 74 1091 c 5
101 989 m 4
 41 989 19 1043 39 1115 c 4
 53 1166 118 1226 167 1226 c 5
53 1056 m 0
 51 1088 81 1124 117 1124 c 0
 154 1124 183 1094 183 1056 c 0
 182 1018 157 988 117 988 c 0
 80 988 56 1019 53 1056 c 0
EndSplineSet
Fore
115 1229 m 17
 123 1091 50 1009 -66 992 c 1
 -66 1017 l 1
 -41 1033 -29 1067 -29 1098 c 0
 -29 1132 -43 1165 -68 1172 c 1
 -121 1134 l 1
 -173 1172 l 1
 -208 1172 -228 1133 -230 1109 c 1
 -230 1109 -216 1132 -174 1121 c 0
 -147 1114 -117 1086 -110 1056 c 0
 -100 1015 -118 988 -159 988 c 0
 -238 988 -270 1043 -270 1115 c 0
 -270 1166 -222 1226 -173 1226 c 1
 -173 1226 -121 1180 -120 1180 c 2
 -69 1224 l 1
 -2 1206 17 1161 17 1120 c 0
 17 1093 10 1068 2 1051 c 1
 55 1089 71 1157 54 1229 c 1
 115 1229 l 17
-139 1055 m 0
 -146 1080 -167 1093 -185 1093 c 0
 -203 1093 -218 1080 -211 1055 c 0
 -204 1030 -182 1018 -164 1018 c 0
 -146 1018 -132 1030 -139 1055 c 0
EndSplineSet
Substitution: 0 65534 'loww' uni0E4A.low
Substitution: 0 65534 'amni' uni0E4D
EndChar
StartChar: uni0E4B
Encoding: 202 3659 200
OldEncoding: 235
Width: 0
Flags: HW
HStem: 1080 58<-268 -166 -107 -9>
VStem: -169 62<1140 1229>
DStem: -175 1140 -112 1140 -281 1138 -9 1138
AnchorPoint: "AboveMark" -139.164 967.68 mark 0
Fore
-9 1081 m 5
 -109 1080 l 1
 -110 992 l 1
 -164 992 l 1
 -166 1080 l 1
 -268 1081 l 1
 -268 1138 l 1
 -167 1140 l 1
 -169 1229 l 1
 -106 1229 l 1
 -107 1140 l 1
 -9 1138 l 1
 -9 1081 l 5
EndSplineSet
MinimumDistance: x8,9 
Substitution: 0 65534 'loww' uni0E4B.low
Substitution: 0 65534 'amni' uni0E4D
EndChar
StartChar: uni0E4C
Encoding: 203 3660 201
OldEncoding: 236
Width: 0
Flags: HW
HStem: 902 29<-157 -141>
AnchorPoint: "AboveMark" -162.602 890.88 mark 0
Back
361 1143 m 4
 300 1043 153 1041 159 1038 c 4
34 975 m 4
 51 1035 107 1069 179 1081 c 4
36 972 m 0
 35 1011 67 1046 107 1046 c 0
 155 1046 179 1011 180 972 c 0
 179 933 147 902 107 902 c 0
 67 902 35 933 36 972 c 0
EndSplineSet
Fore
44 1143 m 17
 11 1040 -148 1040 -141 1036 c 0
 -114 1021 -97 998 -90 974 c 0
 -80 938 -97 902 -145 902 c 0
 -189 902 -230 940 -236 983 c 0
 -244 1041 -189 1069 -121 1081 c 0
 -96 1086 -17 1118 -14 1172 c 1
 44 1143 l 17
-150 931 m 0
 -124 931 -117 951 -122 972 c 0
 -128 993 -147 1014 -174 1014 c 0
 -201 1014 -209 994 -203 973 c 0
 -197 952 -177 931 -150 931 c 0
EndSplineSet
Substitution: 0 65534 'loww' uni0E4C.low
EndChar
StartChar: uni0E4D
Encoding: 204 3661 202
OldEncoding: 237
Width: 0
Flags: HW
HStem: 668 43<-121 -108> 813 46<-160 -146>
AnchorPoint: "AboveMark" -101.939 645.12 mark 0
AnchorPoint: "AboveMark" -134.77 967.68 basemark 0
AnchorPoint: "AboveBase" -68.248 645.12 mark 0
Fore
-108 668 m 0
 -170 668 -213 715 -226 763 c 0
 -240 811 -222 859 -160 859 c 0
 -100 859 -58 812 -44 764 c 0
 -31 716 -48 668 -108 668 c 0
-87 762 m 0
 -95 791 -123 813 -148 813 c 0
 -176 813 -191 791 -183 762 c 0
 -175 734 -147 711 -119 711 c 0
 -94 712 -79 732 -87 762 c 0
EndSplineSet
Substitution: 0 65534 'G006' uni0E4B
Substitution: 0 65534 'G005' uni0E4A
Substitution: 0 65534 'G004' uni0E49
Substitution: 0 65534 'G003' uni0E48
EndChar
StartChar: uni0E4E
Encoding: 205 3662 203
OldEncoding: 238
Width: 0
Flags: HW
AnchorPoint: "AboveBase" -101.077 645.12 mark 0
Fore
87 865 m 2
 5 923 -39 862 -19 816 c 1
 -19 816 -14 805 -17 800 c 0
 -25 788 -54 759 -69 762 c 0
 -72 762 -76 765 -76 765 c 1
 -137 831 -216 765 -170 696 c 1
 -170 696 -161 687 -167 682 c 0
 -175 676 -202 654 -211 651 c 0
 -216 650 -222 657 -222 657 c 1
 -308 762 -169 903 -63 806 c 1
 -62 808 l 1
 -106 908 24 980 113 900 c 1
 113 900 115 897 114 892 c 0
 112 882 103 862 91 863 c 0
 90 863 87 865 87 865 c 2
EndSplineSet
EndChar
StartChar: uni0E4F
Encoding: 206 3663 204
OldEncoding: 239
Width: 702
Flags: HW
HStem: -2 54<352 359> 164 43<352 359> 276 20G<583 583> 296 21G<479 479 680 680> 382 47<352 359> 539 55<352 359>
VStem: 22 96<296 319> 222 70<296 303> 412 67<296 303> 583 97<296 319>
Fore
680 296 m 0
 680 101 505 -2 352 -2 c 0
 194 -2 22 101 22 296 c 0
 22 492 194 594 352 594 c 0
 505 594 680 492 680 296 c 0
583 296 m 0
 583 430 479 539 352 539 c 0
 221 539 118 430 118 296 c 0
 118 163 221 52 352 52 c 0
 479 52 583 163 583 296 c 0
479 296 m 0
 479 218 419 164 352 164 c 0
 279 164 222 218 222 296 c 0
 222 376 279 429 352 429 c 0
 419 429 479 376 479 296 c 0
412 296 m 0
 412 341 394 382 352 382 c 0
 309 382 292 341 292 296 c 0
 292 252 309 207 352 207 c 0
 394 207 412 252 412 296 c 0
EndSplineSet
EndChar
StartChar: uni0E50
Encoding: 207 3664 205
OldEncoding: 240
Width: 615
Flags: HW
HStem: -8 45<308 325> 430 45<308 325>
VStem: 50 76<215 249> 484 76<215 249>
Fore
561 232 m 0
 561 92 446 -8 308 -8 c 0
 164 -8 50 89 50 233 c 0
 50 373 164 475 308 475 c 0
 446 475 561 373 561 232 c 0
484 233 m 0
 484 336 412 430 308 430 c 0
 200 430 126 341 126 232 c 0
 126 126 205 37 308 37 c 0
 410 37 484 132 484 233 c 0
EndSplineSet
EndChar
StartChar: uni0E51
Encoding: 208 3665 206
OldEncoding: 241
Width: 615
Flags: HW
HStem: 430 45<304 322>
VStem: 49 76<232 244> 491 75<205 244>
Back
423 430 m 4
 323 430 223 352 189 232 c 4
189 232 m 0
 127 8 320 0 368 115 c 1
433 152 m 0
 370 -74 31 -65 113 232 c 0
258 182 m 0
 259 234 295 270 341 270 c 0
 386 270 419 231 418 182 c 0
 419 144 386 94 340 94 c 0
 295 94 259 126 258 182 c 0
EndSplineSet
Fore
566 232 m 0
 566 104 495 0 381 -29 c 1
 349 -14 l 1
 472 32 491 146 491 233 c 0
 491 353 405 430 304 430 c 0
 204 430 126 352 125 232 c 0
 123 22 301 0 332 97 c 1
 332 97 324 90 285 99 c 0
 236 110 213 162 207 184 c 0
 195 228 216 270 268 270 c 0
 335 270 391 214 391 152 c 0
 391 -74 49 -65 49 232 c 0
 49 386 169 475 304 475 c 0
 438 475 566 384 566 232 c 0
330 183 m 0
 323 210 299 224 279 224 c 0
 260 224 244 210 251 183 c 0
 259 155 283 141 302 141 c 0
 322 141 338 155 330 183 c 0
EndSplineSet
EndChar
StartChar: uni0E52
Encoding: 209 3666 207
OldEncoding: 242
Width: 615
Flags: HW
HStem: 0 45<176 456>
VStem: 46 71<111 577> 503 70<164 257>
Back
388 412 m 4
 352 404 309 327 300 235 c 5
300 83 m 4
 237 83 222 131 226 184 c 4
 240 353 323 475 401 472 c 4
247 168 m 0
 246 206 284 253 322 253 c 0
 370 253 403 215 403 168 c 0
 403 121 367 82 323 82 c 0
 279 82 247 121 247 168 c 0
EndSplineSet
Fore
573 232 m 0
 573 180 573 146 566 104 c 0
 555 46 544 0 450 0 c 2
 185 0 l 2
 88 0 46 54 46 126 c 2
 46 551 l 2
 46 644 33 664 33 664 c 2
 24 703 52 696 65 687 c 2
 65 687 100.287 642.868 101 641 c 0
 101.713 639.132 117 622 117 551 c 2
 117 124 l 2
 117 74 151 45 189 45 c 2
 443 45 l 2
 482 45 492 71 497 95 c 0
 505 166 503 160 503 233 c 0
 503 318 497 402 454 412 c 0
 423 418 396 350 390 312 c 0
 383 275 345 270 339 313 c 0
 333 352 304 418 274 412 c 0
 246.323 405.488 229.249 357.893 229.249 294.567 c 0
 229.249 280.098 230.14 264.809 232 249 c 1
 232 249 251 258 279 249 c 0
 319 237 347 202 356 168 c 0
 368 125 352 82 298 82 c 0
 223 82 189 110 175 184 c 0
 167.872 220.507 164.569 254.82 164.569 286.154 c 0
 168.808 399.084 200.805 473.798 270 472 c 0
 328 470 358 401 361 364 c 1
 366 364 l 1
 372 401 402 470 462 472 c 0
 546 473 573 352 573 232 c 0
315 166 m 0
 307 194 283 209 263 209 c 0
 243 209 227 194 235 166 c 0
 242 139 266 126 286 126 c 0
 306 126 322 139 315 166 c 0
EndSplineSet
EndChar
StartChar: uni0E53
Encoding: 210 3667 208
OldEncoding: 243
Width: 615
Flags: HW
HStem: -8 21G<162 228> 412 61<193 206>
VStem: 289 47<188.376 265>
Back
407 412 m 4
 360 406 336 316 336 238 c 4
 336 223 336 214 336 197 c 4
316 412 m 0
 270 412 191 352 169 137 c 1
286 77 m 0
 274 31 231 -8 183 -8 c 0
 127 -8 99 32 96 86 c 0
 87 224 159 473 331 473 c 0
127 76 m 0
 128 114 160 163 205 163 c 0
 251 163 288 122 287 76 c 0
 287 30 251 -8 206 -8 c 0
 160 -8 127 30 127 76 c 0
EndSplineSet
Fore
336 238 m 0
 336 223 336 214 336 197 c 0
 336 160 289 161 289 197 c 0
 289 212 289 223 289 237 c 0
 289 339 248 412 202 412 c 0
 164.91 412 119.368 371.692 119.368 252.283 c 0
 119.368 223.599 121.996 190.351 128 152 c 1
 128 152 152 172 188 158 c 0
 240 138 258 100 265 77 c 0
 279 26 252 -8 204 -8 c 0
 120 -8 90 32 72 86 c 0
 56.217 132.341 46.0724 191.2 46.0724 248.943 c 0
 46.0724 363.153 85.7589 473 200 473 c 0
 277 473 309 370 309 370 c 1
 311 370 l 1
 334 450 374 473 421 473 c 0
 523.921 473 569.965 376.001 569.965 239.971 c 0
 569.965 171.138 558.176 92.3107 536 11 c 1
 495 0 l 2
 482 -2 462 -8 469 25 c 0
 487.971 108.922 496.293 179.817 496.293 237.087 c 0
 496.293 352.351 462.582 412.422 414.134 412.422 c 0
 355.5 412.422 336 304.5 336 238 c 0
224 75 m 0
 216 104 192 118 172 118 c 0
 152 118 136 104 144 75 c 0
 152 48 176 34 196 34 c 0
 216 34 232 48 224 75 c 0
EndSplineSet
EndChar
StartChar: uni0E54
Encoding: 211 3668 209
OldEncoding: 244
Width: 615
Flags: HW
HStem: 421 47<350 365> 424 48<274 290>
VStem: 52 77<243 259>
Back
390 45 m 5
 336 69 285 140 311 235 c 4
 332 309 398 349 451 344 c 4
362 184 m 5
 351 146 436 37 548 46 c 4
 554 46 571 49 577 49 c 4
345 257 m 0
 346 306 377 345 422 345 c 0
 466 345 506 309 505 257 c 0
 506 201 466 169 421 169 c 0
 377 169 345 223 345 257 c 0
EndSplineSet
Fore
391 258 m 0
 384 285 360 298 340 298 c 0
 320 298 304 284 311 257 c 0
 319 228 343 214 363 214 c 0
 383 214 398 229 391 258 c 0
535 46 m 0
 541 46 557 49 563 49 c 0
 583 49 571 29 571 29 c 1
 555 0 l 1
 555 0 470 0 385 3 c 0
 345 5 315 -2 276 -5 c 0
 166 -11 52 78 52 243 c 0
 52 398 162 472 278 472 c 0x60
 315 472 323 468 350 468 c 0
 440 468 508 536 508 690 c 1
 574 670 l 2
 580 668 586 664 585 650 c 0
 576 519 497 421 356 421 c 0xa0
 339 421 308 424 290 424 c 0x60
 175 424 131 329 129 243 c 0
 129 134 173 35 298 45 c 0
 311 46 319 48 334 48 c 0
 355 48 378 45 378 45 c 1
 317 69 246 140 246 235 c 0
 246 309 277 345 330 345 c 0
 376 345 418 309 434 252 c 0
 449 198 417 169 378 169 c 0
 357 169 333 178 315 196 c 1
 288 159 426 37 535 46 c 0
EndSplineSet
EndChar
StartChar: uni0E55
Encoding: 212 3669 210
OldEncoding: 245
Width: 615
Flags: HW
VStem: 52 77<243 259>
Back
119 243 m 4
 160 390 277 456 367 468 c 5
558 485 m 5
 597 508 663 553 697 690 c 5
412 470 m 5
 434 467 480 467 503 472 c 5
369 510 m 0
 370 565 414 610 469 610 c 0
 524 610 570 565 569 510 c 0
 569 455 525 410 470 410 c 0
 415 410 369 455 369 510 c 0
411 510 m 0
 411 541 437 566 467 566 c 0
 498 566 523 541 523 510 c 0
 524 479 498 454 468 454 c 0
 437 454 412 479 411 510 c 0
EndSplineSet
Fore
390 258 m 0
 383 285 360 298 340 298 c 0
 320 298 304 284 311 257 c 0
 319 228 343 214 363 214 c 0
 383 214 398 229 390 258 c 0
535 46 m 0
 541 46 557 49 563 49 c 0
 583 49 571 29 571 29 c 1
 555 0 l 1
 555 0 470 0 385 3 c 0
 345 5 315 -2 276 -5 c 0
 166 -11 52 78 52 243 c 0
 52 390 151 459 250 469 c 1
 239 479 233 491 229 505 c 0
 208 579 259 610 303 610 c 0
 358 610 413 564 429 505 c 0
 432 496 430 500 432 491 c 1
 459 515 510 553 506 690 c 1
 574 670 l 2
 580 668 586 664 585 650 c 0
 576 515 489 422 363 421 c 0
 344 421 308 422 290 422 c 0
 175 422 131 329 129 243 c 0
 129 134 173 35 298 45 c 0
 311 46 319 48 334 48 c 0
 355 48 380 43 380 43 c 1
 319 68 246 140 246 235 c 0
 246 309 277 345 330 345 c 0
 376 345 418 309 434 252 c 0
 449 198 417 169 378 169 c 0
 357 169 333 178 315 196 c 1
 288 159 426 37 535 46 c 0
383 507 m 0
 374 545 339 566 309 566 c 0
 282 565 260 547 270 507 c 0
 274 492 292 474 301 468 c 1
 319 466 357 468 379 474 c 1
 386 482 385 496 383 507 c 0
EndSplineSet
EndChar
StartChar: uni0E56
Encoding: 213 3670 211
OldEncoding: 246
Width: 615
Flags: HW
HStem: -8 45<296 306> 430 45<292 306>
VStem: 479 76<230 249>
Back
294 -8 m 4
 19 -8 106 280 261 280 c 4
180 120 m 5
 175 72 237 37 306 37 c 4
 412 37 512 118 543 230 c 4
155 192 m 0
 156 241 189 280 236 280 c 0
 282 280 320 241 319 192 c 0
 319 143 289 104 235 104 c 0
 189 104 155 182 155 192 c 0
EndSplineSet
Fore
292 475 m 0
 441 475 555 381 555 230 c 0
 555 94 469 -8 296 -8 c 0
 164 -8 97 58 78 127 c 0
 57 202 93 280 162 280 c 0
 206 280 253 238 266 190 c 0
 281 136 255 104 203 104 c 0
 175 104 143 134 143 134 c 1
 148 72 227 37 296 37 c 0
 402 37 479 118 479 230 c 0
 479 349 394 430 292 430 c 0
 251 430 194 419 153 393 c 0
 142 386 109 393 112 435 c 1
 112 544 91 610 52 674 c 0
 49 680 46 691 58 691 c 2
 132 691 l 1
 148 664 181 564 175 453 c 1
 202 468 251 475 292 475 c 0
224 192 m 0
 216 220 192 233 172 233 c 0
 152 233 136 220 144 192 c 0
 152 164 176 149 196 149 c 0
 216 149 232 164 224 192 c 0
EndSplineSet
EndChar
StartChar: uni0E57
Encoding: 214 3671 212
OldEncoding: 247
Width: 615
Flags: HW
HStem: -9 21G<141.5 209.5> 418 54<348.56 357.969> 651 20G<560 560>
VStem: 237 45<275 295.455>
Back
280 418 m 4
 248 418 173 367 148 138 c 5
165 -8 m 4
 102 -8 79 38 78 94 c 4
 80 281 160 465 297 472 c 4
103 77 m 0
 103 116 140 163 185 163 c 0
 235 163 267 124 267 77 c 0
 267 26 231 -9 186 -9 c 0
 141 -9 103 30 103 77 c 0
EndSplineSet
Fore
560 671 m 0
 585.161 594.241 597.338 502.672 597.338 412.06 c 0
 597.338 218.174 541.588 28.6675 438 -2 c 1
 438 -2 377 -18 383 22 c 1
 383 22 400 97 409 146 c 0
 417.072 195.62 420.466 237.011 420.466 271.283 c 0
 420.466 381.363 385.453 418 358 418 c 0
 318 418 295 366 287 326 c 0
 284 312 282 287 282 275 c 0
 278 240 241 238 237 275 c 0
 237 290 235 313 232 327 c 0
 224 370 199 418 164 418 c 0
 138.855 418 97.6552 387.127 97.6552 269.582 c 0
 97.6552 237.539 100.717 199.055 108 153 c 1
 108 153 115 163 144 163 c 0
 186 163 232 126 245 78 c 0
 260 26 234 -9 185 -9 c 0
 98 -9 68 38 52 94 c 0
 36.9512 150.282 29.0588 206.293 29.0588 257.288 c 0
 29.0588 375.725 71.6317 467.107 166 472 c 0
 205 473 248 427 257 362 c 1
 262 362 l 1
 270 427 318 473 358 472 c 0
 437.833 467.493 482.019 390.864 482.019 274.936 c 0
 482.019 210.8 468.495 134.635 440 52 c 1
 440 52 473 68 489 109 c 0
 519.57 184.085 538.635 279.305 538.635 379.541 c 0
 538.635 466.201 524.385 556.61 491 641 c 1
 525 687 l 2
 536 702 547 710 560 671 c 0
204 75 m 0
 196 104 173 118 153 118 c 0
 133 118 117 104 125 75 c 0
 133 48 156 34 176 34 c 0
 196 34 212 48 204 75 c 0
EndSplineSet
EndChar
StartChar: uni0E58
Encoding: 215 3672 213
OldEncoding: 248
Width: 615
Flags: HW
HStem: -3 21G<408 469> 160 46<487 503> 289 47<454 472> 421 47<347 363> 424 49<262 289>
VStem: 39 76<214 263>
Back
637 240 m 4
 602 71 503 -3 433 -3 c 4
373 214 m 5
 315 2 500 0 549 166 c 5
459 248 m 0
 459 297 491 336 547 336 c 0
 601 336 635 297 635 248 c 0
 634 199 582 160 546 160 c 0
 490 160 458 199 459 248 c 0
EndSplineSet
Fore
570 240 m 0
 582 71 504 -3 434 -3 c 0
 382 -3 289 6 271 152 c 1
 248 134 230 48 224 -6 c 1
 162 -8 38 69 39 243 c 0
 41 398 147 473 262 473 c 0xec
 290 473 325 468 347 468 c 0
 429 468 497 542 494 690 c 1
 561 668 l 2
 568 667 574 662 573 648 c 0
 563 519 476 421 363 421 c 0xf4
 336 421 312 424 289 424 c 0
 169 424 115 338 115 241 c 0
 115 160 136 95 188 61 c 1
 188 61 204 192 273 220 c 1
 314 214 l 1
 314 2 497 2 503 160 c 1
 444 160 404 200 391 246 c 0
 373 310 410 336 458 336 c 0
 530 336 569 261 570 240 c 0
516 247 m 0
 509 272 486 289 464 289 c 0
 441 289 430 272 437 247 c 0
 444 223 465 206 488 206 c 0
 510 206 523 223 516 247 c 0
EndSplineSet
EndChar
StartChar: uni0E59
Encoding: 216 3673 214
OldEncoding: 249
Width: 615
Flags: HW
HStem: -9 41<239 250> 115 45<208 219> 346 60<482 488> 346 121<368 486>
Back
246 398 m 4
 184 361 163 204 203 124 c 5
227 -9 m 4
 189 -9 157 11 135 51 c 4
 76 167 107 369 229 442 c 4
171 75 m 0
 171 112 207 160 249 160 c 0
 297 160 331 121 331 75 c 0
 331 29 295 -9 249 -9 c 0
 204 -9 171 29 171 75 c 0
EndSplineSet
Fore
268 74 m 0
 261 97 237 115 217 115 c 0
 195 115 182 97 189 74 c 0
 195 51 219 32 241 32 c 0
 261 32 274 51 268 74 c 0
345 362 m 1
 350 356 368 327 374 318 c 0
 446 190 508 40 508 40 c 2
 532 -8 463 -29 440 20 c 2
 440 20 369 178 317 275 c 0
 252 390 194 439 136 398 c 0
 84 361 108 209 161 135 c 1
 161 135 172 160 208 160 c 0
 253 160 298 120 310 74 c 0
 324 27 295 -9 250 -9 c 0
 181 -9 154 11 121 51 c 0
 30 167 5 369 106 442 c 0
 131 461 221 496 303 407 c 1
 303 439 336 467 368 467 c 0xd0
 440 468 440 406 482 406 c 0
 528 406 551 501 522 687 c 1
 599 664 l 1
 607 664 608 659 608 650 c 0
 618 449 574 346 486 346 c 0xe0
 421 346 413 412 377 413 c 0
 350 415 341 389 345 362 c 1
EndSplineSet
EndChar
StartChar: uni0E5A
Encoding: 217 3674 215
OldEncoding: 250
Width: 697
Flags: HW
HStem: 0 21G<331 405 514 588> 556 40<91 103>
VStem: 331 74<0 591> 514 74<0 591>
Fore
405 0 m 1
 331 0 l 1
 331 465 l 1
 288 426 230 412 179 412 c 0
 130 412 86 424 68 438 c 0
 45 454 31 476 25 498 c 0
 12 546 35 596 91 596 c 0
 133 596 174 562 188 534 c 0
 208 494 194 462 194 462 c 1
 320 460 331 571 331 591 c 1
 405 591 l 1
 405 0 l 1
127 465 m 0
 156 465 164 487 158 510 c 0
 151 533 130 556 101 556 c 0
 72 556 63 534 70 511 c 0
 76 488 97 465 127 465 c 0
514 591 m 1
 588 591 l 1
 588 0 l 1
 514 0 l 1
 514 591 l 1
EndSplineSet
EndChar
StartChar: uni0E5B
Encoding: 218 3675 216
OldEncoding: 251
Width: 1405
Flags: W
HStem: 210 42<341 359> 401 27<281 292>
VStem: 54 88<313 364> 437 69<373 416>
Back
615 392 m 4
 592 309 504 210 410 210 c 4
 337 210 297 263 320 347 c 4
379 281 m 5
 382 264 390 252 423 252 c 4
323 352 m 0
 322 394 357 428 398 428 c 0
 440 428 474 394 475 352 c 0
 474 300 440 274 399 280 c 0
 356 286 322 310 323 352 c 0
EndSplineSet
Fore
1381 335 m 1
 1284 332 l 0
 1268 332 1261 330 1258 315 c 0
 1248 260 1184 261 1178 323 c 0
 1175 358 1143 347 1148 326 c 0
 1164 263 1132 204 1068 192 c 0
 1062 190 1041 190 1044 203 c 0
 1062 281 1058 376 1006 435 c 1
 1003 435 l 1
 1034 378 1033 218 943 170 c 1
 943 170 924 157 904 157 c 0
 889 157 895 175 895 175 c 1
 910 278 888 427 834 473 c 1
 831 473 l 1
 869 390 872 187 738 123 c 1
 738 123 722 117 716 115 c 0
 706 112 694 121 696 131 c 0
 705 187 697 418 607 530 c 1
 604 530 l 1
 636 465 648 366 636 293 c 0
 624 218 555 66 372 49 c 0
 208 34 54 155 54 338 c 0
 54 547 191 637 322 619 c 0
 441 602 506 524 506 392 c 0
 506 309 446 210 352 210 c 0
 279 210 228 260 221 346 c 0
 217 398 237 428 281 428 c 0
 323 428 366 392 378 349 c 0
 396 284 340 275 318 280 c 2
 300 284 l 1
 307 264 320 252 353 252 c 0
 394 252 437 303 437 390 c 0
 437 468 412 559 320 573 c 0
 226 587 142 487 142 336 c 0
 142 192 252 69 372 91 c 0
 566 124 596 409 551 561 c 0
 544 587 571 593 586 587 c 0
 615 574 626 564 633 558 c 0
 752 464 769 312 735 167 c 1
 740 167 l 1
 790 215 813 381 790 504 c 1
 790 504 785 531 813 522 c 0
 829 518 844 508 844 508 c 2
 967 449 948 284 927 198 c 1
 930 198 l 1
 974 249 978 393 970 464 c 1
 970 464 964 485 990 478 c 0
 1005 473 1014 465 1014 465 c 2
 1107 416 1112 316 1078 224 c 1
 1081 224 l 2
 1103 237 1118 283 1120 329 c 0
 1121 392 1202 392 1205 330 c 0
 1208 300 1230 300 1235 329 c 0
 1241 364 1257 362 1285 361 c 2
 1381 358 l 1
 1381 335 l 1
328 349 m 0
 323 369 310 401 288 401 c 0
 268 401 269 372 275 349 c 0
 282 326 295 306 313 306 c 0
 331 306 335 324 328 349 c 0
EndSplineSet
EndChar
StartChar: uni0E38.low
Encoding: 219 63256 217
OldEncoding: 252
Width: 0
Flags: HW
HStem: -376 29<-165 -148>
VStem: -148 69<-494 -328>
Back
-281 -492 m 5
 -251 -372 l 5
-243 -246 m 4
 -188 -243 -161 -264 -169 -323 c 5
-326 -312 m 0
 -326 -276 -297 -246 -261 -246 c 0
 -226 -246 -198 -276 -198 -312 c 0
 -198 -348 -226 -378 -262 -378 c 0
 -297 -378 -326 -348 -326 -312 c 0
EndSplineSet
Fore
-79 -494 m 1
 -148 -494 l 1
 -148 -376 l 1
 -151 -376 -160 -381 -177 -376 c 0
 -209 -366 -232 -339 -239 -312 c 0
 -248 -280 -236 -249 -192 -246 c 0
 -138 -242 -88 -268 -79 -328 c 1
 -79 -494 l 1
-165 -347 m 0
 -142 -347 -135 -329 -140 -311 c 0
 -145 -293 -162 -275 -185 -275 c 0
 -207 -275 -213 -293 -208 -311 c 0
 -203 -329 -187 -347 -165 -347 c 0
EndSplineSet
EndChar
StartChar: uni0E39.low
Encoding: 220 63257 218
OldEncoding: 253
Width: 0
Flags: HW
HStem: -493 29<-175 -158> -366 25<-266 -242> -273 27<-290 -273>
VStem: -240 38<-433 -323> -145 66<-432 -250>
Back
-357 -421 m 5
 -343 -361 l 5
-338 -246 m 4
 -287 -246 -277 -278 -292 -323 c 5
-416 -306 m 0
 -416 -273 -390 -246 -358 -246 c 0
 -326 -246 -300 -273 -300 -306 c 0
 -300 -339 -320 -367 -358 -367 c 0
 -390 -367 -416 -339 -416 -306 c 0
EndSplineSet
Fore
-79 -409 m 2
 -84 -455 -107 -493 -158 -493 c 0
 -210 -493 -242 -464 -242 -421 c 2
 -242 -366 l 1
 -254 -366 -259 -369 -273 -364 c 0
 -303 -355 -323 -330 -330 -306 c 0
 -339 -276 -327 -246 -288 -246 c 0
 -237 -246 -200 -278 -202 -323 c 2
 -202 -432 l 2
 -205 -449 -191 -464 -173 -464 c 0
 -155 -464 -147 -449 -145 -432 c 2
 -145 -250 l 1
 -79 -250 l 1
 -79 -409 l 2
-240 -307 m 0
 -246 -287 -264 -273 -282 -273 c 0
 -299 -273 -312 -287 -306 -307 c 0
 -301 -324 -281 -341 -264 -341 c 0
 -246 -341 -235 -324 -240 -307 c 0
EndSplineSet
EndChar
StartChar: uni0E3A.low
Encoding: 221 63258 219
OldEncoding: 254
Width: 0
Flags: HW
Fore
-106 -318 m 0
 -133 -318 -153 -296 -159 -275 c 0
 -165 -254 -157 -233 -130 -233 c 0
 -104 -233 -85 -255 -79 -276 c 0
 -73 -297 -80 -318 -106 -318 c 0
EndSplineSet
EndChar
StartChar: multiply
Encoding: 222 215 221
OldEncoding: 256
Width: 590
Flags: HW
DStem: 92 456 138 502 261 286 309 333 261 286 309 238 91 117 138 69 309 238 356 286 479 68 525 115 478 502 524 456 309 333 356 286
Fore
501 115 m 1
 457 68 l 1
 295 238 l 1
 132 69 l 1
 87 117 l 1
 249 286 l 1
 88 456 l 1
 132 502 l 1
 295 333 l 1
 456 502 l 1
 500 456 l 1
 340 286 l 1
 501 115 l 1
EndSplineSet
EndChar
StartChar: divide
Encoding: 223 247 222
OldEncoding: 257
Width: 520
Flags: HW
HStem: 14 104<246 274> 224 57<31 491> 387 106<245 275>
Fore
311 439 m 0
 311 409 289 387 260 387 c 0
 233 387 211 413 211 439 c 0
 211 468 232 493 260 493 c 0
 289 493 311 472 311 439 c 0
491 224 m 1
 31 224 l 1
 31 281 l 1
 491 281 l 1
 491 224 l 1
311 66 m 0
 311 34 289 14 260 14 c 0
 233 14 211 37 211 66 c 0
 211 92 232 118 260 118 c 0
 289 118 311 95 311 66 c 0
EndSplineSet
EndChar
StartChar: registered
Encoding: 224 174 223
OldEncoding: 258
Width: 700
Flags: HW
HStem: -11 42<353 365> 154 13<211 345 500 516> 315 17<308 335> 492 13<213 227 213 358> 611 42<353 365>
VStem: 43 44<323 342> 251 57<183 315 197 470> 419 57<413 424> 617 44<323 342>
Fore
661 323 m 0
 661 138 523 -11 353 -11 c 0
 180 -11 43 138 43 323 c 0
 43 504 180 653 353 653 c 0
 523 653 661 504 661 323 c 0
617 323 m 0
 617 476 497 611 353 611 c 0
 207 611 87 476 87 323 c 0
 87 164 207 31 353 31 c 0
 497 31 617 164 617 323 c 0
516 154 m 1
 457 154 l 0
 431 154 418 194 402 230 c 0
 364 306 377 316 308 315 c 1
 308 198 l 2
 308 175 309 169 333 169 c 2
 345 167 l 1
 345 154 l 1
 211 154 l 1
 211 167 l 1
 219 167 l 2
 243 169 251 169 251 197 c 2
 251 462 l 2
 251 488 248 492 221 492 c 2
 213 492 l 1
 213 505 l 1
 363 505 l 2
 438 505 476 481 476 422 c 0
 476 369 438 336 391 329 c 1
 391 323 l 1
 428 315 443 273 459 241 c 0
 476 206 484 169 516 167 c 1
 516 154 l 1
419 415 m 0
 419 467 391 492 342 492 c 2
 323 490 l 2
 306 490 308 467 308 452 c 2
 308 335 l 1
 327 332 l 1
 378 332 419 349 419 415 c 0
EndSplineSet
EndChar
